<svg width="263" height="216" viewBox="0 0 263 216" fill="none" xmlns="http://www.w3.org/2000/svg">
<rect width="263" height="215" rx="16" fill="#FEE7B1"/>
<mask id="mask0_2870_10006" style="mask-type:alpha" maskUnits="userSpaceOnUse" x="0" y="0" width="263" height="216">
<path d="M250.856 0.159546H12.1437C5.43692 0.159546 0 5.59647 0 12.3033V203.015C0 209.721 5.43692 215.158 12.1437 215.158H250.856C257.563 215.158 263 209.721 263 203.015V12.3033C263 5.59647 257.563 0.159546 250.856 0.159546Z" fill="#FEE7B1"/>
</mask>
<g mask="url(#mask0_2870_10006)">
<path d="M66.7582 149.185L60.2372 189.036L27.2695 232.876L49.0081 233.239L76.905 198.458L85.9641 161.865L66.7582 149.185Z" fill="#EFA773"/>
<path d="M66.7582 149.185L60.2372 189.036L27.2695 232.876L49.0081 233.239L76.905 198.458L85.9641 161.865L66.7582 149.185Z" stroke="#222223" stroke-width="3" stroke-linecap="round" stroke-linejoin="round"/>
<path d="M206.497 128.691C195.317 138.824 185.518 150.386 177.356 163.077V163.109C177.399 163.109 173.026 143.579 169.942 130.461C167.469 119.995 159.811 117.338 159.811 117.338C159.811 117.338 154.053 120.633 151.499 130.834C149.771 138.047 148.662 145.394 148.182 152.795L159.075 181.958C160.703 185.558 163.536 188.479 167.084 190.216C172.702 192.954 179.407 192.186 184.526 188.593L187.232 186.688C188.995 185.456 190.519 183.914 191.729 182.137C197 174.414 202.368 165.756 207.547 156.269C210.827 150.284 213.771 144.45 216.417 138.822L206.497 128.691Z" fill="#EFA773"/>
<path d="M195.242 139.996L209.805 125.336C209.544 122.819 209.436 120.289 209.48 117.76C209.643 115.054 231.311 125.996 230.169 127.214C229.027 128.432 219.394 132.285 219.394 132.285C215.743 139.5 212.087 146.716 208.425 153.931C207.456 154.03 206.477 153.944 205.541 153.677C204.274 153.309 202.521 152.416 199.588 148.087C197.863 145.547 196.407 142.836 195.242 139.996Z" fill="#EFA773"/>
<path d="M209.436 152.665C209.285 152.666 209.136 152.628 209.003 152.557C208.78 152.441 208.611 152.242 208.534 152.003C208.457 151.763 208.478 151.503 208.592 151.279L218.706 131.592C218.757 131.472 218.833 131.363 218.928 131.273C219.024 131.184 219.136 131.115 219.259 131.07C219.383 131.026 219.513 131.008 219.644 131.016C219.775 131.025 219.902 131.06 220.018 131.12C220.135 131.18 220.237 131.264 220.32 131.365C220.402 131.467 220.463 131.584 220.499 131.71C220.534 131.836 220.543 131.968 220.525 132.097C220.507 132.227 220.463 132.351 220.394 132.463L210.28 152.151C210.2 152.306 210.079 152.436 209.93 152.527C209.781 152.617 209.61 152.665 209.436 152.665Z" fill="#222223"/>
<path d="M215.644 122.793L228.702 131.776C229.364 132.23 230.169 132.422 230.964 132.317C231.336 132.265 231.692 132.135 232.009 131.936C232.326 131.736 232.597 131.471 232.804 131.159L253.406 99.9177C253.62 99.5875 253.764 99.2166 253.828 98.8283C253.893 98.44 253.876 98.0427 253.78 97.6611C253.586 96.8447 253.106 96.1248 252.427 95.6317L238.736 85.6635C238.398 85.417 238.018 85.2336 237.615 85.1223C237.226 85.0147 236.819 84.9871 236.419 85.0412C236.035 85.0878 235.665 85.219 235.337 85.4254C235.011 85.6258 234.736 85.8979 234.531 86.2209L225.558 100.096L214.497 118.55C214.304 118.88 214.179 119.245 214.128 119.624C214.076 120.003 214.101 120.388 214.199 120.758C214.4 121.55 214.871 122.246 215.53 122.728L215.644 122.793Z" fill="#222223"/>
<path d="M217.522 121.645L228.373 128.745C228.943 129.113 229.634 129.245 230.299 129.113C230.965 128.98 231.553 128.594 231.939 128.036L251.139 100.324C251.535 99.7559 251.689 99.0544 251.567 98.3734C251.445 97.6924 251.058 97.0877 250.49 96.6923L239.126 88.7534C238.841 88.5565 238.522 88.4168 238.184 88.3422C237.845 88.2719 237.495 88.2719 237.156 88.3422C236.816 88.4036 236.492 88.5324 236.203 88.721C235.915 88.9108 235.667 89.1554 235.473 89.4407L227.096 101.741L216.711 118.057C216.353 118.625 216.225 119.309 216.354 119.968C216.489 120.629 216.877 121.212 217.436 121.591L217.522 121.645Z" fill="white"/>
<path d="M202.878 132.014C202.878 132.014 209.604 126.743 209.815 123.171C210.2 116.553 211.693 112.224 213.062 110.443C214.432 108.663 223.886 99.0789 223.886 99.0789C223.886 99.0789 226.954 101.428 225.201 103.468C223.447 105.508 220.871 107.878 220.871 109.702C220.871 111.526 221.856 117.43 218.436 120.92C217.143 122.241 218.23 124.394 218.23 124.394L227.279 130.315C225.705 131.267 224.069 132.112 222.381 132.842L220.552 133.518C220.552 133.518 219.178 134.817 217.873 134.482C216.569 134.146 204.425 134.162 202.131 132.555" fill="#EFA773"/>
<path d="M235.006 126.965C235.006 126.965 242.425 123.291 242.171 122.235L241.922 121.153C241.922 121.153 246.111 119.086 246.895 117.76C247.382 116.88 247.664 115.901 247.718 114.897C247.718 114.897 250.813 113.328 250.802 111.997C250.792 110.665 250.299 110.373 250.299 110.373L246.359 111.104L235.006 126.965Z" fill="#EFA773"/>
<path d="M202.878 132.967C202.74 132.967 202.603 132.937 202.478 132.879C202.352 132.822 202.241 132.737 202.153 132.631C201.989 132.439 201.909 132.189 201.929 131.938C201.949 131.686 202.069 131.453 202.261 131.289C204.934 129.027 209.123 124.53 208.993 122.089C208.809 118.469 210.297 114.513 211.282 111.888C211.39 111.591 211.498 111.309 211.59 111.055C212.197 109.393 215.335 106.233 219.378 102.283C220.877 100.811 222.17 99.5443 222.695 98.9111C222.905 98.6066 223.199 98.3701 223.541 98.2306C223.883 98.0912 224.259 98.055 224.622 98.1264C225.444 98.3104 226.115 99.1059 226.413 100.253C226.65 101.166 226.635 102.127 226.368 103.031C226.101 103.936 225.593 104.751 224.898 105.389C223.543 106.555 222.491 108.031 221.829 109.691C221.978 112.743 221.455 115.791 220.297 118.619C219.138 121.447 217.372 123.986 215.124 126.056C214.938 126.215 214.698 126.296 214.454 126.283C214.21 126.27 213.98 126.163 213.812 125.985C213.644 125.806 213.552 125.571 213.553 125.326C213.555 125.081 213.65 124.847 213.82 124.67C215.871 122.773 217.481 120.449 218.534 117.862C219.588 115.274 220.061 112.487 219.919 109.697C219.903 109.57 219.913 109.441 219.946 109.318C220.684 107.24 221.957 105.394 223.637 103.966C224.012 103.612 224.299 103.175 224.475 102.69C224.65 102.205 224.71 101.685 224.649 101.173C224.627 100.762 224.488 100.366 224.248 100.031C224.215 100.058 224.186 100.089 224.162 100.123C223.572 100.832 222.305 102.072 220.709 103.641C218.003 106.298 213.885 110.319 213.376 111.71C213.279 111.969 213.176 112.251 213.057 112.554C212.132 115.027 210.73 118.766 210.892 121.992C211.109 126.175 204.269 132.084 203.489 132.745C203.318 132.889 203.101 132.968 202.878 132.967Z" fill="#222223"/>
<path d="M220.724 133.827C219.675 133.863 218.638 133.596 217.737 133.058C217.528 132.915 217.384 132.694 217.338 132.445C217.292 132.196 217.347 131.939 217.49 131.73C217.634 131.521 217.854 131.378 218.104 131.332C218.353 131.285 218.61 131.34 218.819 131.484C218.954 131.57 221.692 133.232 226.298 129.525C226.495 129.369 226.746 129.296 226.996 129.324C227.246 129.351 227.475 129.476 227.634 129.671C227.713 129.768 227.772 129.88 227.807 130C227.842 130.12 227.853 130.245 227.84 130.37C227.826 130.494 227.788 130.614 227.728 130.724C227.667 130.833 227.586 130.93 227.488 131.007C224.707 133.242 222.391 133.827 220.724 133.827Z" fill="#222223"/>
<path d="M230.368 132.788C229.717 132.791 229.079 132.603 228.534 132.247L215.946 124.016C215.836 123.95 215.74 123.862 215.665 123.758C215.589 123.654 215.535 123.536 215.507 123.411C215.478 123.286 215.475 123.156 215.497 123.03C215.52 122.903 215.568 122.783 215.639 122.675C215.709 122.568 215.801 122.476 215.908 122.405C216.015 122.334 216.135 122.285 216.261 122.262C216.387 122.238 216.517 122.241 216.642 122.269C216.768 122.297 216.886 122.35 216.991 122.425L229.573 130.656C229.89 130.864 230.277 130.94 230.65 130.868C231.024 130.795 231.353 130.579 231.569 130.266L253.102 99.1546C253.323 98.8371 253.408 98.4454 253.34 98.0651C253.272 97.6848 253.056 97.3468 252.74 97.1252L237.944 86.7457C237.789 86.6354 237.613 86.5574 237.427 86.5165C237.242 86.4756 237.049 86.4726 236.862 86.5076C236.669 86.5406 236.485 86.6124 236.321 86.7186C236.157 86.8239 236.017 86.9621 235.91 87.1245L226.331 101.195C226.188 101.403 225.967 101.545 225.719 101.591C225.47 101.637 225.213 101.582 225.005 101.438C224.797 101.295 224.655 101.074 224.609 100.826C224.563 100.577 224.618 100.321 224.762 100.112L234.335 86.0422C234.581 85.6716 234.902 85.3564 235.276 85.1168C235.649 84.8683 236.069 84.6988 236.51 84.6189C236.948 84.5325 237.398 84.5325 237.836 84.6189C238.272 84.7175 238.684 84.9014 239.048 85.1601L253.838 95.5017C254.567 96.0116 255.064 96.7893 255.22 97.6647C255.376 98.5401 255.179 99.4416 254.672 100.172L233.133 131.338C232.637 132.059 231.877 132.556 231.018 132.723C230.804 132.766 230.586 132.788 230.368 132.788Z" fill="#222223"/>
<path d="M235.007 127.917C234.787 127.921 234.572 127.847 234.399 127.709C234.227 127.571 234.108 127.377 234.064 127.16C234.02 126.944 234.053 126.719 234.157 126.524C234.261 126.329 234.43 126.177 234.634 126.094C235.971 125.52 239.564 123.972 240.143 123.68C240.431 123.523 240.678 123.302 240.866 123.033C241.054 122.765 241.177 122.456 241.225 122.132C240.28 122.522 239.357 122.963 238.46 123.453C238.35 123.522 238.227 123.569 238.099 123.589C237.97 123.609 237.839 123.603 237.713 123.57C237.587 123.538 237.469 123.48 237.366 123.4C237.264 123.32 237.178 123.22 237.116 123.106C237.053 122.992 237.015 122.866 237.003 122.737C236.99 122.607 237.005 122.477 237.045 122.353C237.085 122.229 237.151 122.115 237.237 122.018C237.323 121.92 237.428 121.841 237.546 121.786C238.626 121.197 239.741 120.675 240.885 120.222C241.074 120.136 241.278 120.088 241.486 120.083C241.694 120.078 241.901 120.114 242.094 120.19C242.288 120.267 242.464 120.381 242.612 120.527C242.76 120.673 242.878 120.847 242.957 121.039C243.623 122.56 242.416 124.66 240.998 125.369C240.246 125.753 235.587 127.75 235.381 127.836C235.263 127.889 235.136 127.917 235.007 127.917Z" fill="#222223"/>
<path d="M241.916 122.138C241.706 122.137 241.503 122.066 241.337 121.938C241.171 121.809 241.053 121.629 241 121.426C240.947 121.223 240.962 121.009 241.044 120.815C241.125 120.622 241.268 120.461 241.45 120.357C241.483 120.357 244.697 118.555 246.234 117.11C246.576 116.777 246.785 116.331 246.824 115.855C245.828 116.25 243.989 117.051 242.333 117.803C242.106 117.889 241.855 117.886 241.631 117.793C241.407 117.701 241.227 117.527 241.127 117.306C241.027 117.085 241.014 116.835 241.093 116.605C241.171 116.376 241.334 116.185 241.548 116.071C244.865 114.567 246.776 113.782 247.236 113.728C247.506 113.706 247.777 113.772 248.007 113.917C248.237 114.061 248.414 114.276 248.513 114.529C248.755 115.213 248.791 115.953 248.618 116.658C248.445 117.363 248.07 118.001 247.539 118.496C245.818 120.119 242.511 121.954 242.376 122.03C242.234 122.103 242.076 122.141 241.916 122.138Z" fill="#222223"/>
<path d="M247.713 115.882C247.505 115.88 247.304 115.811 247.139 115.684C246.975 115.557 246.856 115.38 246.802 115.18C246.747 114.979 246.76 114.767 246.837 114.574C246.915 114.381 247.053 114.219 247.231 114.112C248.66 113.263 249.813 112.143 249.937 111.693C249.434 111.488 247.675 111.693 246.149 112.191C245.909 112.267 245.649 112.245 245.426 112.129C245.203 112.014 245.035 111.814 244.958 111.574C244.882 111.335 244.905 111.075 245.02 110.851C245.136 110.628 245.336 110.46 245.575 110.384C247.199 109.843 251.025 108.912 251.739 111.028C252.427 113.063 249.207 115.157 248.2 115.747C248.053 115.836 247.885 115.883 247.713 115.882Z" fill="#222223"/>
<path d="M173.502 172.379H173.405C173.155 172.355 172.926 172.232 172.766 172.038C172.607 171.845 172.531 171.596 172.555 171.346C172.588 171.016 173.491 163.05 187.475 147.459C187.832 147.026 195.457 137.853 202.216 131.338C202.306 131.251 202.412 131.183 202.528 131.138C202.644 131.093 202.768 131.071 202.893 131.073C203.018 131.076 203.141 131.103 203.255 131.153C203.369 131.203 203.472 131.275 203.558 131.365C203.645 131.455 203.713 131.561 203.758 131.677C203.803 131.793 203.825 131.917 203.823 132.041C203.82 132.166 203.793 132.289 203.743 132.403C203.693 132.517 203.621 132.62 203.531 132.707C196.724 139.271 189.001 148.59 188.92 148.682L188.893 148.714C175.423 163.732 174.449 171.443 174.444 171.535C174.417 171.767 174.307 171.981 174.133 172.136C173.96 172.292 173.735 172.378 173.502 172.379Z" fill="#222223"/>
<path d="M93.9723 102.153C92.1318 102.543 90.3338 103.112 88.604 103.852C66.6381 113.241 63.0394 147.41 62.4062 154.618L80.887 166.573L93.9723 102.153Z" fill="#5785CC"/>
<path d="M154.064 143.07C153.193 143.947 142.196 192.316 142.196 192.316C142.196 192.316 158.296 217.334 161.786 230.419C165.277 243.505 167.474 280.948 167.474 280.948H81.3694L77.2891 156.139L93.9731 102.131L131.092 98.738L158.691 112.906L154.064 143.07Z" fill="#5785CC"/>
<path d="M144.793 150.062L155.541 175.497L175.851 154.77L169.081 125.477C169.081 125.477 165.763 113.42 157.083 112.857C148.403 112.294 155.725 111.417 155.725 111.417C155.725 111.417 145.026 124.21 143.819 136.311C142.612 148.411 144.793 150.062 144.793 150.062Z" fill="#5785CC"/>
<path d="M88.9666 160.468C88.8313 160.441 89.1506 158.25 89.6863 155.598C90.2221 152.946 90.7687 150.782 90.9039 150.809C91.0392 150.836 90.7199 153.022 90.1842 155.679C89.6484 158.336 89.1073 160.495 88.9666 160.468Z" fill="#FAFAFA"/>
<path d="M103.335 183.906C103.216 183.982 102.285 182.743 101.257 181.146C100.229 179.55 99.4872 178.186 99.6063 178.11C99.7254 178.035 100.656 179.268 101.684 180.87C102.713 182.472 103.432 183.83 103.335 183.906Z" fill="#FAFAFA"/>
<path d="M126.649 150.441C126.741 150.549 125.453 151.734 123.776 153.092C122.098 154.451 120.675 155.457 120.588 155.349C120.502 155.241 121.784 154.05 123.462 152.697C125.139 151.344 126.563 150.332 126.649 150.441Z" fill="#FAFAFA"/>
<path d="M109.376 132.793C109.252 132.858 108.256 131.294 107.152 129.297C106.048 127.301 105.242 125.623 105.366 125.553C105.491 125.482 106.486 127.052 107.59 129.048C108.694 131.045 109.501 132.745 109.376 132.793Z" fill="#FAFAFA"/>
<path d="M143.381 114.599C143.462 114.713 142.234 115.709 140.637 116.824C139.041 117.938 137.683 118.75 137.601 118.636C137.52 118.523 138.749 117.527 140.345 116.412C141.942 115.297 143.305 114.486 143.381 114.599Z" fill="#FAFAFA"/>
<path d="M91.7052 110.871C91.7052 111.012 90.9259 111.125 89.9735 111.125C89.021 111.125 88.2363 111.012 88.2363 110.871C88.2363 110.73 89.0156 110.616 89.9735 110.616C90.9313 110.616 91.7052 110.73 91.7052 110.871Z" fill="#FAFAFA"/>
<path d="M159.287 139.466C159.146 139.439 159.287 137.934 159.617 136.1C159.947 134.265 160.304 132.799 160.439 132.82C160.575 132.842 160.439 134.352 160.115 136.186C159.79 138.021 159.422 139.487 159.287 139.466Z" fill="#FAFAFA"/>
<path d="M157.554 158.239C157.478 158.347 156.472 157.768 155.568 156.691C154.664 155.614 154.253 154.526 154.377 154.483C154.502 154.44 155.086 155.349 155.957 156.366C156.829 157.384 157.64 158.12 157.554 158.239Z" fill="#FAFAFA"/>
<path d="M135.875 212.539C135.745 212.593 135.188 211.538 134.625 210.185C134.062 208.832 133.716 207.685 133.846 207.631C133.976 207.577 134.533 208.632 135.096 209.99C135.659 211.349 136.005 212.485 135.875 212.539Z" fill="#FAFAFA"/>
<path d="M92.2857 214.265C92.1666 214.19 92.7186 213.156 93.5141 211.96C94.3096 210.764 95.0564 209.855 95.1701 209.931C95.2837 210.007 94.7372 211.04 93.9362 212.242C93.1353 213.443 92.3993 214.341 92.2857 214.265Z" fill="#FAFAFA"/>
<path d="M119.716 213.107C119.754 213.243 119.002 213.551 118.05 213.789C117.097 214.027 116.285 214.114 116.253 213.979C116.221 213.843 116.967 213.535 117.925 213.297C118.883 213.059 119.684 212.972 119.716 213.107Z" fill="#FAFAFA"/>
<path d="M133.722 183.23C133.597 183.165 134.55 181.065 135.849 178.587C137.147 176.108 138.306 174.111 138.425 174.176C138.544 174.241 137.597 176.341 136.298 178.819C134.999 181.298 133.846 183.295 133.722 183.23Z" fill="#FAFAFA"/>
<path d="M122.699 191.445C122.558 191.445 122.428 190.124 122.412 188.484C122.396 186.845 122.493 185.519 122.628 185.514C122.764 185.508 122.899 186.839 122.915 188.479C122.931 190.119 122.818 191.445 122.699 191.445Z" fill="#FAFAFA"/>
<path d="M82.159 183.23C82.0291 183.176 82.435 181.909 83.0627 180.4C83.6905 178.89 84.3074 177.694 84.4373 177.759C84.5672 177.824 84.1613 179.079 83.5281 180.589C82.895 182.099 82.2834 183.284 82.159 183.23Z" fill="#FAFAFA"/>
<path d="M98.5851 139.423C98.5147 139.542 97.2321 138.925 95.7223 138.043C94.2125 137.161 93.0165 136.349 93.1085 136.23C93.2005 136.111 94.4614 136.728 95.9766 137.61C97.4919 138.492 98.6554 139.304 98.5851 139.423Z" fill="#FAFAFA"/>
<path d="M130.042 133.367C130.075 133.502 128.879 133.908 127.369 134.303C125.859 134.698 124.603 134.888 124.571 134.752C124.538 134.617 125.734 134.211 127.244 133.811C128.754 133.41 130.004 133.232 130.042 133.367Z" fill="#FAFAFA"/>
<path d="M110.662 198.896C101.481 198.96 92.3602 197.407 83.7176 194.307C83.4882 194.214 83.3041 194.036 83.2042 193.809C83.1042 193.583 83.0963 193.327 83.1821 193.095C83.268 192.862 83.4407 192.673 83.6639 192.566C83.8871 192.459 84.1431 192.443 84.3778 192.522C99.3734 198.031 114.18 197.457 123.964 196.001C130.065 195.144 136.053 193.622 141.822 191.461C142.053 191.379 142.305 191.39 142.528 191.489C142.751 191.589 142.927 191.77 143.02 191.996C143.114 192.222 143.116 192.474 143.028 192.702C142.94 192.93 142.768 193.115 142.547 193.22C142.25 193.339 135.139 196.256 124.289 197.874C119.778 198.55 115.223 198.892 110.662 198.896Z" fill="#222223"/>
<path d="M149.232 156.556C149.003 156.555 148.783 156.471 148.61 156.322C148.437 156.172 148.324 155.965 148.29 155.739C145.958 139.504 156.262 117.857 156.706 116.948C156.815 116.721 157.009 116.547 157.247 116.464C157.484 116.381 157.745 116.395 157.972 116.504C158.199 116.613 158.373 116.808 158.456 117.046C158.539 117.283 158.525 117.544 158.416 117.771C158.313 117.993 147.922 139.823 150.174 155.468C150.192 155.592 150.186 155.719 150.155 155.84C150.125 155.962 150.07 156.076 149.995 156.177C149.92 156.277 149.826 156.362 149.719 156.426C149.611 156.49 149.491 156.533 149.367 156.551L149.232 156.556Z" fill="#222223"/>
<path d="M105.625 223.308C105.447 223.307 105.273 223.256 105.122 223.16C104.972 223.064 104.852 222.928 104.775 222.767C100.879 214.991 105.436 198.252 105.636 197.544C105.669 197.423 105.726 197.311 105.803 197.213C105.88 197.115 105.975 197.033 106.084 196.971C106.192 196.91 106.312 196.871 106.435 196.856C106.559 196.841 106.685 196.85 106.805 196.883C106.925 196.917 107.037 196.973 107.135 197.05C107.234 197.127 107.316 197.223 107.377 197.331C107.438 197.44 107.478 197.559 107.493 197.683C107.508 197.807 107.498 197.932 107.465 198.052C107.422 198.22 102.903 214.79 106.475 221.918C106.546 222.062 106.58 222.223 106.572 222.385C106.565 222.546 106.516 222.703 106.431 222.84C106.346 222.978 106.228 223.092 106.087 223.171C105.946 223.25 105.787 223.291 105.625 223.292V223.308Z" fill="#222223"/>
<path d="M131.302 228.493C131.049 228.493 130.807 228.392 130.628 228.214C130.45 228.035 130.349 227.793 130.349 227.54C130.349 215.299 119.061 199.362 118.947 199.2C118.856 199.1 118.786 198.981 118.744 198.852C118.702 198.723 118.688 198.587 118.703 198.452C118.718 198.318 118.761 198.187 118.83 198.071C118.9 197.954 118.993 197.854 119.104 197.776C119.215 197.698 119.341 197.645 119.475 197.62C119.608 197.595 119.745 197.599 119.877 197.632C120.008 197.664 120.132 197.724 120.238 197.808C120.345 197.891 120.432 197.997 120.495 198.117C122.661 201.253 124.617 204.529 126.35 207.923C130.257 215.537 132.243 222.145 132.249 227.562C132.25 227.687 132.226 227.81 132.178 227.926C132.131 228.042 132.061 228.147 131.973 228.235C131.885 228.324 131.781 228.394 131.665 228.442C131.55 228.49 131.427 228.514 131.302 228.514V228.493Z" fill="#222223"/>
<path d="M157.257 47.1001C156.045 44.5296 157.338 41.2393 159.719 39.6862C162.1 38.133 165.244 38.1168 167.923 39.053C170.296 39.9308 172.37 41.4654 173.903 43.4777C175.436 45.49 176.365 47.8969 176.582 50.4175C178.659 50.9772 180.495 52.2058 181.804 53.9134C185.511 58.6107 184.943 66.0192 180.814 70.3485C176.685 74.6778 169.612 75.6898 164.259 73.0218C158.907 70.3539 155.493 64.3632 155.52 58.4104" fill="#222223"/>
<path d="M153.344 49.8113C153.217 49.2885 153.263 48.7386 153.474 48.244C153.686 47.7494 154.052 47.3367 154.518 47.0676C154.991 46.8124 155.513 46.6598 156.049 46.6197C156.585 46.5796 157.124 46.6529 157.63 46.8349C158.64 47.2028 159.573 47.7531 160.384 48.4584C161.643 49.4117 162.727 50.5763 163.588 51.9002C164.444 53.2371 164.825 54.823 164.67 56.4027C164.583 57.1875 164.304 57.9388 163.858 58.59C163.411 59.2413 162.811 59.7725 162.111 60.1367C161.398 60.4771 160.594 60.5768 159.82 60.4206C159.046 60.2644 158.344 59.8609 157.819 59.2709" fill="#FD6542"/>
<path d="M149.403 35.5787C149.5 32.6511 146.8 30.3728 144.072 29.285C141.345 28.1973 138.32 27.7589 135.89 26.1354C133.725 24.6797 132.308 22.4068 130.478 20.5506C128.241 18.2602 125.434 16.6061 122.346 15.7581C119.259 14.91 116.001 14.8985 112.907 15.7246C109.814 16.5508 106.995 18.1849 104.741 20.4594C102.488 22.7339 100.879 25.567 100.081 28.6681C98.999 32.8405 99.7025 37.7759 102.982 40.5737C106.77 43.8207 112.452 43.1226 117.355 42.1431C122.258 41.1636 127.8 40.2003 131.869 43.0955C134.326 44.8381 135.728 47.6629 137.221 50.2822C138.715 52.9014 140.593 55.5693 143.439 56.5651C146.286 57.5608 150.161 55.8832 150.285 52.8743" fill="#222223"/>
<path d="M149.198 37.1915C148.862 39.6429 150.632 41.8563 152.391 43.5988C154.15 45.3414 156.146 47.1868 156.45 49.6491C156.801 52.5226 154.691 55.3421 155.286 58.1724C155.665 59.9744 157.056 61.3652 157.894 62.9996C159.013 65.3562 159.187 68.0515 158.381 70.5325C157.64 73.0057 156.45 78.5255 154.723 80.4413C149.939 85.7392 142.347 90.2958 135.382 91.8598C128.417 93.4238 121.198 93.4021 114.082 92.9421C108.248 92.5579 101.543 92.7906 96.7213 84.7489C94.2266 80.582 93.0035 75.0567 91.6885 70.381C90.5575 66.3548 89.578 62.0417 90.7956 58.0425C91.5045 55.7101 92.9169 53.6428 93.615 51.305C94.4863 48.3881 94.1887 45.2656 94.5513 42.2459C94.9401 38.9574 96.1085 35.8092 97.9591 33.0632C99.8098 30.3171 102.289 28.0525 105.191 26.4578C108.094 24.863 111.334 23.9841 114.645 23.8941C117.955 23.8042 121.239 24.5058 124.223 25.9407" fill="#222223"/>
<path d="M107.767 83.7476C107.767 83.7476 112.042 99.9447 107.827 103.868C103.611 107.792 102.215 108.695 102.215 108.695C102.215 108.695 112.751 122.587 130.041 111.401L137.97 106.428C136.984 105.429 136.123 104.315 135.404 103.11C133.034 99.1275 132.899 95.2149 132.834 92.3575C132.699 86.3182 132.628 79.5374 132.769 72.0044L107.767 83.7476Z" fill="#EFA773"/>
<path d="M108.779 90.4473C110.511 93.5482 112.616 94.4952 113.563 94.8199C118.84 96.622 124.489 91.4701 125.777 90.3012C125.777 90.3012 126.578 89.5652 131.627 83.1741L108.779 90.4473Z" fill="#222223"/>
<path d="M95.5762 47.7061C95.5762 47.7061 96.5394 55.6396 96.1173 59.1138C95.6952 62.5881 94.4235 69.9371 97.1077 75.4678C99.7918 80.9985 105.501 93.2396 116.898 90.8747C128.295 88.5098 137.489 76.2958 138.144 73.5954C138.799 70.8949 137.029 59.3844 132.57 51.9488C128.111 44.5132 122.099 32.705 111.264 32.6293C100.43 32.5535 95.4138 43.9937 95.5762 47.7061Z" fill="#EFA773"/>
<path d="M114.067 92.1249C110.09 92.1249 106.442 90.3986 103.201 86.9622C99.9589 83.5258 97.7889 79.0883 96.371 76.1714L96.2303 75.8846C93.6057 70.473 94.5419 63.5244 95.0452 59.7796C95.0831 59.4982 95.1209 59.2384 95.148 58.9949C95.5755 55.6776 94.6447 47.901 94.6068 47.8199C94.6042 47.7965 94.6042 47.7729 94.6068 47.7495C94.504 45.4983 96.068 40.5629 99.8507 36.634C101.291 35.0773 103.037 33.8342 104.979 32.9823C106.921 32.1303 109.018 31.6878 111.139 31.6824H111.248C121.735 31.7527 127.807 42.0565 132.239 49.5786L133.365 51.4727C137.862 58.957 139.794 70.7652 139.047 73.8228C138.3 76.8803 128.846 89.3596 117.071 91.8056C116.083 92.0151 115.077 92.1221 114.067 92.1249ZM96.5226 47.6305C96.6037 48.3069 97.4804 55.7479 97.0637 59.233C97.0313 59.4819 96.9934 59.7742 96.9555 60.0339C96.4793 63.5785 95.5972 70.1753 97.9675 75.0512L98.1082 75.3434C100.754 80.7875 106.264 92.1195 116.73 89.9548C128.04 87.6062 136.753 75.495 137.251 73.3844C137.862 70.8734 136.125 59.693 131.785 52.463C131.417 51.8569 131.043 51.2184 130.654 50.5582C126.422 43.4148 120.653 33.6468 111.258 33.5819H111.161C109.297 33.5945 107.455 33.989 105.749 34.7411C104.042 35.4931 102.509 36.5867 101.242 37.9545C98.0486 41.288 96.4576 45.6823 96.5226 47.6305Z" fill="#222223"/>
<path d="M117.188 76.7343H120.532C120.434 78.0366 119.894 79.2663 119.001 80.2194C117.471 81.9015 115.559 83.1915 113.427 83.9804C111.976 84.4242 109.752 83.7964 108.827 83.4393C108.086 80.977 106.792 75.9442 107.571 75.495C108.546 74.9214 116.349 76.7343 117.188 76.7343Z" fill="white"/>
<path d="M105.771 56.9168C105.819 57.1831 105.969 57.4203 106.188 57.579C106.407 57.7377 106.679 57.8056 106.947 57.7686C107.215 57.7316 107.459 57.5926 107.627 57.3804C107.795 57.1683 107.874 56.8994 107.849 56.63L105.771 56.9168ZM101.804 51.5701H101.712L101.891 52.6038L101.804 51.5701ZM98.0161 52.4631C97.7621 52.5535 97.5527 52.7381 97.4311 52.9787C97.3096 53.2193 97.2853 53.4975 97.3632 53.7555C97.4411 54.0136 97.6152 54.2318 97.8496 54.3649C98.084 54.4981 98.3606 54.536 98.6222 54.4708L98.0161 52.4631ZM107.844 56.6246C107.846 56.6066 107.846 56.5885 107.844 56.5705C107.844 56.5272 107.844 56.4677 107.811 56.3865C107.779 56.3053 107.73 56.0347 107.66 55.7912C107.473 55.1663 107.204 54.5693 106.859 54.0162C106.345 53.1618 105.593 52.4756 104.695 52.0412C103.798 51.6068 102.793 51.4432 101.804 51.5701L101.983 53.659C102.585 53.5648 103.202 53.653 103.754 53.9125C104.305 54.172 104.767 54.5907 105.078 55.1148C105.315 55.5049 105.497 55.9255 105.619 56.3648C105.674 56.5434 105.706 56.6895 105.728 56.787C105.731 56.8211 105.731 56.8556 105.728 56.8898L106.767 56.7437L107.844 56.6246ZM101.712 51.5701C100.466 51.7911 99.2333 52.0857 98.0215 52.4522L98.6276 54.4599C99.7587 54.114 100.91 53.8375 102.075 53.632L101.712 51.5701Z" fill="#222223"/>
<path d="M107.774 57.2253C107.894 56.9741 107.91 56.6853 107.818 56.4225C107.725 56.1596 107.532 55.9442 107.281 55.8237C107.03 55.7031 106.741 55.6873 106.478 55.7796C106.215 55.872 106 56.065 105.879 56.3161L107.774 57.2253ZM101.599 66.7985L102.643 66.8796L101.599 66.7985ZM107.552 71.2522C107.814 71.2953 108.084 71.2369 108.305 71.0889C108.527 70.9408 108.683 70.7142 108.744 70.4549C108.804 70.1955 108.764 69.9229 108.631 69.6921C108.498 69.4614 108.283 69.2898 108.028 69.212L107.552 71.2522ZM105.869 56.3161L105.825 56.4135L105.695 56.6841C105.582 56.9168 105.425 57.2253 105.23 57.6636C104.851 58.4808 104.337 59.5902 103.823 60.7537C103.309 61.9172 102.779 63.1402 102.373 64.1955C102.167 64.7366 101.989 65.2128 101.832 65.6404C101.707 66.0171 101.618 66.4049 101.566 66.7985L103.655 66.9716C103.697 66.7329 103.757 66.4978 103.834 66.2681C103.948 65.9001 104.11 65.4564 104.305 64.9531C104.694 63.9465 105.203 62.7506 105.717 61.6033C106.231 60.456 106.729 59.3629 107.108 58.5511C107.297 58.1507 107.454 57.8151 107.568 57.5879L107.692 57.3227L107.741 57.2253L106.794 56.7707L105.869 56.3161ZM101.588 66.8039C101.574 67.2431 101.665 67.6794 101.853 68.0766C102.041 68.4737 102.321 68.8203 102.67 69.0876C103.291 69.5904 103.979 70.0022 104.716 70.3106C105.346 70.5801 105.991 70.8132 106.648 71.0087L107.287 71.1873L107.465 71.236H107.519C107.519 71.236 107.519 71.236 107.757 70.2132L108.001 69.1958H107.952L107.801 69.1525L107.259 68.9956C106.684 68.8231 106.119 68.619 105.566 68.3841C105.024 68.1615 104.516 67.8646 104.056 67.502C103.682 67.1719 103.677 66.9987 103.677 66.9608L101.588 66.8039Z" fill="#222223"/>
<path d="M127.032 48.729C127.298 48.8093 127.584 48.7809 127.829 48.65C128.074 48.5191 128.256 48.2964 128.337 48.0309C128.417 47.7653 128.389 47.4788 128.258 47.2342C128.127 46.9896 127.904 46.807 127.638 46.7267L127.032 48.729ZM112.924 49.4054C112.709 49.5812 112.572 49.8354 112.544 50.1119C112.516 50.3885 112.6 50.6648 112.775 50.8801C112.951 51.0954 113.205 51.232 113.482 51.2599C113.758 51.2878 114.035 51.2047 114.25 51.0289L112.924 49.4054ZM127.638 46.6996H127.601H127.519L127.233 46.6238C126.989 46.5643 126.637 46.4831 126.199 46.4074C125.035 46.206 123.857 46.1064 122.676 46.1097C119.144 46.0592 115.704 47.229 112.935 49.4216L114.261 51.0451C116.663 49.1571 119.643 48.1573 122.698 48.2149C123.753 48.206 124.808 48.2947 125.847 48.48C126.237 48.545 126.54 48.6153 126.746 48.664L126.978 48.7235H127.032C127.032 48.7235 127.032 48.7235 127.33 47.717L127.638 46.6996Z" fill="#222223"/>
<path d="M104.547 49.4921C104.673 49.5553 104.809 49.5928 104.949 49.6023C105.089 49.6118 105.23 49.5931 105.363 49.5474C105.495 49.5017 105.617 49.4298 105.722 49.336C105.826 49.2423 105.911 49.1285 105.971 49.0015C106.03 48.8745 106.064 48.7368 106.069 48.5966C106.075 48.4563 106.052 48.3164 106.003 48.1851C105.954 48.0537 105.878 47.9336 105.782 47.8319C105.685 47.7301 105.569 47.6488 105.44 47.5926L104.547 49.4921ZM96.5436 47.5926C96.2996 47.7158 96.1132 47.9293 96.0241 48.1877C95.935 48.4461 95.9503 48.7291 96.0665 48.9765C96.1828 49.2239 96.391 49.4161 96.6469 49.5124C96.9027 49.6087 97.186 49.6014 97.4365 49.4921L96.5436 47.5926ZM105.44 47.5926C104.048 46.9416 102.529 46.6036 100.992 46.6023V48.702C102.221 48.7021 103.434 48.9719 104.547 49.4921L105.44 47.5926ZM100.992 46.6023C99.4547 46.6041 97.9364 46.9421 96.5436 47.5926L97.4365 49.4921C98.5498 48.9724 99.7633 48.7027 100.992 48.702V46.6023Z" fill="#222223"/>
<path d="M101.454 56.0618C101.4 57.0358 102.249 56.9763 103.229 57.0304C104.208 57.0845 104.944 57.2307 104.998 56.2512C105.017 55.7848 104.852 55.3296 104.538 54.9842C104.224 54.6388 103.787 54.431 103.321 54.4058C102.854 54.3806 102.397 54.5403 102.047 54.8503C101.697 55.1603 101.484 55.5956 101.454 56.0618Z" fill="#222223"/>
<path d="M106.041 56.2567L104.996 56.2134L106.041 56.2567ZM100.402 55.9536C100.365 56.3694 100.466 56.7858 100.689 57.1388C100.909 57.4646 101.23 57.7082 101.603 57.8315C101.875 57.9211 102.157 57.9739 102.442 57.9884C102.669 57.9884 102.983 57.9884 103.167 58.0263L103.281 55.9374L102.61 55.8995C102.504 55.8977 102.398 55.8813 102.296 55.8508C102.353 55.8881 102.403 55.9358 102.442 55.9915C102.513 56.0998 102.491 56.1647 102.496 56.0673L100.402 55.9536ZM103.167 58.0263L103.876 58.0642C104.156 58.0765 104.436 58.051 104.71 57.9884C105.093 57.898 105.433 57.6782 105.673 57.3661C105.901 57.0381 106.029 56.6507 106.041 56.2513L103.947 56.1376C103.947 56.2621 103.947 56.208 103.995 56.1376C104.044 56.0667 104.114 56.0135 104.196 55.9861H104.131C104.064 55.9916 103.997 55.9916 103.93 55.9861L103.281 55.9536L103.167 58.0263ZM106.041 56.2459C106.073 55.5046 105.811 54.7807 105.31 54.2327L103.757 55.6398C103.823 55.7127 103.874 55.7982 103.907 55.8912C103.939 55.9841 103.953 56.0826 103.947 56.1809L106.041 56.2459ZM105.31 54.2327C104.812 53.6814 104.115 53.3505 103.373 53.3128L103.259 55.4017C103.45 55.4134 103.628 55.4988 103.757 55.6398L105.31 54.2327ZM103.373 53.3128C102.632 53.2706 101.904 53.5235 101.349 54.0163L102.74 55.5857C102.813 55.5202 102.899 55.4701 102.992 55.4385C103.085 55.4069 103.183 55.3944 103.281 55.4017L103.373 53.3128ZM101.349 54.0163C100.794 54.5079 100.454 55.1977 100.402 55.9374L102.496 56.0781C102.502 55.984 102.527 55.8919 102.568 55.8073C102.61 55.7228 102.668 55.6474 102.74 55.5857L101.349 54.0163Z" fill="#222223"/>
<path d="M114.273 57.826C114.267 57.9276 114.281 58.0294 114.314 58.1256C114.347 58.2218 114.399 58.3105 114.467 58.3866C114.535 58.4628 114.616 58.5249 114.708 58.5693C114.8 58.6138 114.899 58.6398 115.001 58.6458C115.102 58.6519 115.204 58.6378 115.3 58.6045C115.397 58.5712 115.485 58.5193 115.561 58.4517C115.638 58.3841 115.7 58.3022 115.744 58.2106C115.789 58.119 115.815 58.0196 115.821 57.918L114.273 57.826ZM125.037 57.1495C125.207 57.2643 125.417 57.3066 125.619 57.267C125.821 57.2274 125.999 57.1093 126.113 56.9385C126.228 56.7677 126.271 56.5583 126.231 56.3563C126.191 56.1543 126.073 55.9764 125.902 55.8615L125.037 57.1495ZM115.837 57.918C115.835 57.8946 115.835 57.871 115.837 57.8476L115.886 57.5608C115.953 57.2393 116.059 56.9268 116.199 56.63C116.387 56.2054 116.671 55.8303 117.029 55.5344C117.387 55.2386 117.809 55.03 118.261 54.9253L117.882 53.4209C117.208 53.5813 116.58 53.894 116.045 54.3348C115.51 54.7757 115.084 55.3331 114.798 55.9644C114.602 56.3721 114.458 56.8031 114.37 57.2469C114.339 57.3826 114.315 57.5199 114.3 57.6582C114.3 57.7069 114.3 57.7502 114.3 57.7773C114.298 57.7916 114.298 57.8062 114.3 57.8206L115.074 57.8639L115.837 57.918ZM118.267 54.9145C118.929 54.7892 119.611 54.8132 120.264 54.9849C121.043 55.175 121.802 55.4396 122.531 55.775C123.245 56.0997 123.884 56.446 124.338 56.7112C124.566 56.8411 124.75 56.9547 124.88 57.0305L125.02 57.1225H125.053L125.486 56.4785L125.919 55.8345C125.919 55.8345 125.919 55.8345 125.881 55.802L125.718 55.7046C125.583 55.618 125.388 55.4936 125.139 55.3529C124.506 54.9834 123.854 54.6474 123.186 54.3463C122.365 53.9651 121.507 53.6678 120.626 53.4588C119.741 53.231 118.815 53.2088 117.92 53.3938L118.267 54.9145Z" fill="#222223"/>
<path d="M126.102 56.3215C126.102 56.3215 125.371 56.7545 124.641 57.2632L126.102 56.3215Z" fill="#222223"/>
<path d="M126.503 57.0305C126.679 56.9257 126.807 56.7551 126.858 56.5562C126.908 56.3573 126.878 56.1463 126.773 55.9698C126.668 55.7933 126.498 55.6656 126.299 55.6148C126.1 55.5641 125.889 55.5945 125.713 55.6992L126.503 57.0305ZM124.203 56.6733C124.119 56.7316 124.048 56.8057 123.993 56.8915C123.938 56.9773 123.901 57.0731 123.883 57.1733C123.865 57.2736 123.867 57.3764 123.889 57.4758C123.911 57.5753 123.952 57.6694 124.011 57.7529C124.069 57.8364 124.143 57.9077 124.229 57.9625C124.315 58.0173 124.41 58.0548 124.511 58.0726C124.611 58.0904 124.714 58.0884 124.813 58.0665C124.913 58.0446 125.007 58.0033 125.09 57.9451L124.203 56.6733ZM125.713 55.6992H125.675L125.577 55.7588L125.236 55.9644C124.955 56.143 124.582 56.3865 124.203 56.6517L125.09 57.9234C125.442 57.6745 125.794 57.4472 126.064 57.2794L126.384 57.0792L126.47 57.0305H126.503L126.108 56.3649L125.713 55.6992Z" fill="#222223"/>
<path d="M104.757 75.6898C104.665 75.7983 104.595 75.9246 104.553 76.061C104.511 76.1973 104.497 76.3408 104.512 76.4828C104.527 76.6247 104.571 76.762 104.641 76.8864C104.711 77.0108 104.805 77.1196 104.919 77.2062C105.032 77.2928 105.162 77.3553 105.301 77.39C105.439 77.4246 105.583 77.4307 105.724 77.4078C105.865 77.3849 106 77.3335 106.12 77.2568C106.24 77.18 106.344 77.0796 106.424 76.9615L104.757 75.6898ZM110.678 76.5665L110.872 75.5329L110.678 76.5665ZM122.345 76.3446C122.471 76.1107 122.503 75.838 122.436 75.5812C122.368 75.3244 122.206 75.1027 121.982 74.9607C121.758 74.8187 121.488 74.767 121.227 74.8159C120.966 74.8648 120.733 75.0108 120.576 75.2244L122.345 76.3446ZM106.424 76.9615L106.5 76.8966C106.677 76.7696 106.872 76.6693 107.079 76.5989C107.68 76.3825 108.8 76.1768 110.705 76.534L111.089 74.4722C108.897 74.0663 107.382 74.2557 106.365 74.6291C105.956 74.7673 105.572 74.9701 105.228 75.2298C105.124 75.312 105.024 75.4006 104.931 75.495L104.839 75.5924L104.806 75.6303L105.639 76.2688L106.424 76.9615ZM110.678 76.5665C111.332 76.6855 112.188 76.9074 113.221 77.1563C114.255 77.4053 115.353 77.6542 116.468 77.8166C117.541 78.003 118.635 78.0304 119.715 77.8977C120.244 77.8477 120.755 77.6828 121.213 77.4145C121.671 77.1463 122.065 76.7811 122.367 76.3446L120.597 75.2244C120.451 75.4044 120.269 75.5512 120.062 75.6548C119.854 75.7584 119.627 75.8165 119.396 75.8251C118.527 75.9215 117.649 75.8941 116.787 75.7439C115.781 75.5978 114.731 75.3597 113.735 75.1162C112.739 74.8726 111.809 74.6399 111.084 74.5046L110.678 76.5665Z" fill="#222223"/>
<path d="M121.908 76.5936C121.961 76.4597 121.985 76.3164 121.98 76.1726C121.975 76.0288 121.941 75.8876 121.879 75.7577C121.817 75.6278 121.729 75.512 121.621 75.4175C121.512 75.323 121.385 75.2518 121.248 75.2083C121.111 75.1648 120.967 75.1499 120.823 75.1647C120.68 75.1794 120.542 75.2234 120.416 75.294C120.291 75.3645 120.181 75.46 120.094 75.5747C120.008 75.6893 119.945 75.8206 119.911 75.9604L121.908 76.5936ZM116.112 84.132L115.668 83.1795L116.112 84.132ZM107.767 83.7477C107.808 83.917 107.891 84.0732 108.008 84.2019C108.126 84.3305 108.274 84.4275 108.438 84.4837L108.779 83.4934L107.767 83.7477ZM107.827 75.2893C107.794 75.156 107.735 75.0305 107.653 74.92C107.572 74.8095 107.47 74.7161 107.352 74.6452C107.234 74.5743 107.104 74.5274 106.968 74.507C106.832 74.4866 106.694 74.4931 106.561 74.5263C106.294 74.6002 106.066 74.773 105.924 75.0095C105.781 75.2459 105.734 75.528 105.792 75.798L107.827 75.2893ZM119.911 75.9604V76.0037C119.897 76.055 119.881 76.1056 119.862 76.1552C119.814 76.2851 119.743 76.4853 119.646 76.6964C119.385 77.3357 119.083 77.9575 118.742 78.558C117.92 80.0137 116.751 81.5073 115.257 82.1946L116.139 84.0995C118.228 83.1254 119.673 81.1718 120.566 79.5916C120.951 78.9147 121.29 78.2133 121.583 77.4919C121.697 77.2159 121.778 76.9886 121.838 76.8262L121.902 76.6423C121.901 76.6242 121.901 76.6061 121.902 76.5881L120.907 76.2743L119.911 75.9604ZM115.241 82.2216C113.31 83.0939 111.118 83.1946 109.115 82.5031L108.428 84.4837C110.937 85.3505 113.682 85.2246 116.101 84.132L115.241 82.2216ZM109.786 83.2444L107.816 75.2893L105.781 75.798L107.756 83.7477L109.786 83.2444Z" fill="#222223"/>
<path d="M147.363 82.0647C145.435 82.4437 143.444 82.3583 141.555 81.8158C139.666 81.2732 137.933 80.289 136.5 78.9445C135.067 77.6 133.974 75.9337 133.312 74.0833C132.65 72.233 132.437 70.2516 132.692 68.303C133.141 64.8774 135.008 61.3977 133.834 58.1507C132.281 53.8593 126.258 52.5118 124.705 48.2258C123.79 45.7364 124.634 42.8142 123.595 40.3897C122.616 38.0952 120.213 36.764 117.87 35.9035C115.527 35.0431 112.999 34.4478 111.051 32.9055C109.103 31.3631 107.874 28.4733 109.157 26.3303C119.565 27.6285 129.782 30.1609 139.592 33.8741C141.86 34.7346 144.246 35.7682 145.583 37.7976C147.001 39.9622 146.919 42.7113 146.784 45.2819C146.146 57.8044 145.503 70.3251 144.858 82.844" fill="#222223"/>
<path d="M146.472 86.854C146.472 86.854 146.553 86.8161 146.694 86.7133L147.316 86.2425C147.857 85.8258 148.653 85.198 149.638 84.343C150.844 83.3055 151.947 82.1547 152.933 80.9066C154.274 79.2449 155.18 77.2752 155.569 75.1757C155.996 72.8866 155.704 70.0022 153.805 67.8267C152.795 66.8166 151.709 65.8849 150.558 65.0397C149.402 64.1497 148.529 62.9452 148.041 61.5708C147.024 58.7243 147.5 55.434 147.116 52.068C146.736 48.555 145.38 45.2184 143.203 42.4353C142.079 41.0314 140.677 39.8745 139.085 39.0368C137.505 38.198 135.789 37.8408 134.215 37.37C132.655 36.9682 131.198 36.2416 129.939 35.2378C128.756 34.2376 127.717 33.0795 126.849 31.796C125.107 29.2958 123.824 26.6387 122.168 24.42C121.381 23.3338 120.461 22.3502 119.43 21.4923C118.463 20.7071 117.363 20.1005 116.183 19.701C113.937 18.9217 111.561 19.1598 109.987 20.2909C109.341 20.7868 108.809 21.4153 108.426 22.134C108.043 22.8528 107.819 23.6451 107.768 24.4578C107.678 25.4853 107.973 26.5095 108.596 27.3314C108.746 27.5393 108.929 27.722 109.137 27.8726C109.204 27.9324 109.279 27.9834 109.359 28.0241C109.359 28.0241 109.305 27.9483 109.18 27.8239C108.986 27.6562 108.815 27.4633 108.672 27.2502C108.118 26.4348 107.874 25.4482 107.984 24.4687C108.051 23.7028 108.278 22.9596 108.651 22.2873C109.024 21.6151 109.535 21.0289 110.149 20.5669C111.626 19.5495 113.872 19.3384 116.01 20.1069C117.136 20.5005 118.182 21.0925 119.1 21.8548C120.095 22.6966 120.981 23.6603 121.735 24.723C123.359 26.8877 124.598 29.5556 126.362 32.1207C127.256 33.4517 128.329 34.6535 129.55 35.6924C130.864 36.7501 132.387 37.5173 134.02 37.9436C135.643 38.4307 137.299 38.7824 138.787 39.5671C140.305 40.3675 141.641 41.4729 142.711 42.8141C144.814 45.5067 146.125 48.7316 146.499 52.1275C146.889 55.3745 146.402 58.7243 147.489 61.7548C148.019 63.2191 148.958 64.5003 150.195 65.4456C151.326 66.2677 152.395 67.1721 153.393 68.1514C155.174 70.1537 155.498 72.8757 155.114 75.0945C154.757 77.1334 153.904 79.0531 152.63 80.6847C151.679 81.9364 150.613 83.0976 149.448 84.1536C148.501 85.0357 147.727 85.6851 147.213 86.1396C146.947 86.3576 146.7 86.5965 146.472 86.854Z" fill="#333333"/>
<path d="M180.522 60.9485C180.646 60.9934 180.761 61.0593 180.863 61.1433C181.165 61.368 181.439 61.6278 181.68 61.9172C182.56 63.0069 183.062 64.3538 183.108 65.754C183.119 67.8277 182.519 69.8587 181.382 71.5932C180.086 73.7656 178.213 75.5358 175.971 76.7072C173.701 77.8663 171.097 78.1955 168.611 77.638C167.531 77.392 166.505 76.9539 165.58 76.3446C164.784 75.8073 164.079 75.1459 163.491 74.3856C162.638 73.2808 162.079 71.9773 161.868 70.5974C161.81 70.2288 161.787 69.8556 161.797 69.4826C161.79 69.3513 161.805 69.2196 161.841 69.093C161.884 69.093 161.841 69.6342 162.046 70.5704C162.323 71.8869 162.909 73.1186 163.756 74.1637C165.006 75.7214 166.759 76.7965 168.713 77.205C171.096 77.7095 173.579 77.3809 175.749 76.2742C177.916 75.1404 179.735 73.4381 181.009 71.3496C182.119 69.6914 182.729 67.7492 182.768 65.754C182.75 64.4087 182.315 63.102 181.523 62.0146C181.214 61.6365 180.88 61.2803 180.522 60.9485Z" fill="#222223"/>
<path d="M84.9363 131.424C84.9363 131.424 74.7354 152.806 77.6306 178.895C80.5259 204.985 80.5313 221.647 79.7953 228.168" stroke="#222223" stroke-width="3" stroke-linecap="round" stroke-linejoin="round"/>
<path d="M67.2137 107.218C75.122 107.218 81.5329 100.807 81.5329 92.8988C81.5329 84.9905 75.122 78.5796 67.2137 78.5796C59.3054 78.5796 52.8945 84.9905 52.8945 92.8988C52.8945 100.807 59.3054 107.218 67.2137 107.218Z" fill="white"/>
<path fill-rule="evenodd" clip-rule="evenodd" d="M60.4323 86.5672C62.5235 84.896 65.0568 83.8711 67.7218 83.6178C68.109 83.6056 68.493 83.692 68.8376 83.8691C69.1822 84.0461 69.4761 84.3079 69.6916 84.6298V84.6623C70.2843 84.6745 70.8732 84.76 71.445 84.9166C72.3047 85.0797 73.0674 85.5707 73.5717 86.2858C73.7775 86.5527 73.8991 86.8749 73.9213 87.2112C73.9434 87.5475 73.8651 87.8828 73.6962 88.1744C73.6038 88.3783 73.4971 88.5754 73.3769 88.7643C73.6153 89.1761 73.6919 89.6618 73.5919 90.1269C73.4919 90.5921 73.2223 91.0034 72.8358 91.2807C73.5761 93.19 74.196 95.1438 74.692 97.1307C74.7589 97.513 74.728 97.906 74.6021 98.2731C74.4763 98.6403 74.2596 98.9696 73.9722 99.2304C71.881 100.902 69.3477 101.927 66.6827 102.18C66.2955 102.192 65.9115 102.106 65.5669 101.929C65.2223 101.751 64.9284 101.49 64.7129 101.168C62.4747 97.2503 60.7849 93.044 59.6909 88.6669C59.6276 88.2828 59.6624 87.8889 59.792 87.5218C59.9216 87.1548 60.1419 86.8264 60.4323 86.5672ZM63.6143 89.9927C63.9167 89.1393 64.3974 88.36 65.0245 87.7068C65.6515 87.0537 66.4105 86.5415 67.251 86.2046C68.1744 85.8359 69.1726 85.693 70.1624 85.7879H70.3464C71.1005 85.8821 71.8328 86.1054 72.5111 86.4481C72.6979 86.5485 72.8394 86.7164 72.9067 86.9175C72.9741 87.1186 72.9623 87.3378 72.8736 87.5305C72.8293 87.6245 72.7664 87.7086 72.6888 87.7778C72.6112 87.847 72.5204 87.8999 72.4219 87.9332C72.3234 87.9666 72.2192 87.9797 72.1155 87.9719C72.0118 87.964 71.9107 87.9354 71.8184 87.8876C71.6534 87.8019 71.4836 87.726 71.3097 87.6603C71.196 87.617 71.0824 87.5792 70.9633 87.5467C69.9421 87.2413 68.8478 87.289 67.8571 87.682C67.2217 87.9382 66.6482 88.3271 66.1751 88.8227C65.702 89.3182 65.34 89.909 65.1134 90.5556C65.0803 90.6546 65.0273 90.7459 64.9577 90.8238C64.8881 90.9017 64.8034 90.9647 64.7087 91.0087C64.614 91.0528 64.5113 91.0771 64.4068 91.0801C64.3024 91.0831 64.1985 91.0649 64.1014 91.0264C63.9021 90.9508 63.74 90.8007 63.6491 90.6079C63.5582 90.4151 63.5458 90.1946 63.6143 89.9927ZM68.4307 89.0024C67.8245 89.2341 67.2768 89.5968 66.8269 90.0645C66.3769 90.5322 66.0358 91.0935 65.8277 91.7082C65.7975 91.8008 65.7879 91.8988 65.7997 91.9955C65.8115 92.0921 65.8444 92.185 65.896 92.2676C65.9476 92.3501 66.0167 92.4204 66.0984 92.4733C66.1801 92.5263 66.2724 92.5607 66.3689 92.5741C66.5792 92.6101 66.7956 92.5713 66.9804 92.4646C67.1652 92.3578 67.3069 92.1898 67.3808 91.9896C67.5107 91.6214 67.7186 91.2857 67.9905 91.0055C68.2623 90.7252 68.5915 90.5071 68.9556 90.3661C69.3189 90.2151 69.7112 90.1465 70.1042 90.1652C70.4972 90.1839 70.8812 90.2895 71.2285 90.4744C71.3374 90.5349 71.4579 90.5714 71.582 90.5817C71.7061 90.592 71.8309 90.5757 71.9483 90.5339C72.0296 90.5013 72.1061 90.4576 72.1755 90.404C72.2381 90.3532 72.2944 90.295 72.3433 90.2309L72.3812 90.1713C72.4323 90.0947 72.467 90.0082 72.483 89.9174C72.499 89.8266 72.4959 89.7335 72.4741 89.644C72.4522 89.5545 72.4119 89.4704 72.3559 89.3973C72.2999 89.3241 72.2292 89.2633 72.1485 89.2189L71.9212 89.0998C71.7928 89.0396 71.6609 88.9872 71.5261 88.9429C70.5173 88.6027 69.4204 88.6314 68.4307 89.0241V89.0024ZM71.196 92.3035C71.3028 92.5636 71.3299 92.8495 71.2738 93.125C71.2177 93.4005 71.081 93.6531 70.881 93.8507C70.681 94.0483 70.4268 94.182 70.1506 94.2347C69.8745 94.2875 69.5889 94.257 69.3301 94.1471C69.0714 94.0372 68.8511 93.8528 68.6974 93.6174C68.5437 93.3821 68.4634 93.1063 68.4667 92.8252C68.4701 92.544 68.5569 92.2703 68.7163 92.0386C68.8756 91.807 69.1002 91.6279 69.3615 91.5242C69.711 91.3878 70.1004 91.3955 70.4442 91.5457C70.7881 91.6958 71.0585 91.9761 71.196 92.3252V92.3035ZM69.697 98.7163C69.9752 98.6053 70.1984 98.389 70.318 98.1144C70.4376 97.8398 70.4439 97.529 70.3356 97.2497C70.2537 97.0416 70.1119 96.8624 69.9282 96.7348C69.7445 96.6072 69.527 96.5369 69.3034 96.5329C69.0797 96.5289 68.8599 96.5913 68.6717 96.7122C68.4835 96.8331 68.3354 97.0071 68.2461 97.2122C68.1567 97.4173 68.1303 97.6443 68.17 97.8644C68.2097 98.0846 68.3137 98.288 68.469 98.449C68.6243 98.61 68.8239 98.7213 69.0425 98.7689C69.2611 98.8165 69.4888 98.7982 69.697 98.7163Z" fill="#5786CC"/>
<path d="M181.973 107.656C189.882 107.656 196.293 101.245 196.293 93.3371C196.293 85.4289 189.882 79.0179 181.973 79.0179C174.065 79.0179 167.654 85.4289 167.654 93.3371C167.654 101.245 174.065 107.656 181.973 107.656Z" fill="white"/>
<path fill-rule="evenodd" clip-rule="evenodd" d="M182.448 84.0725C185.065 84.6022 187.472 85.8784 189.38 87.747C189.637 88.0374 189.817 88.388 189.903 88.7663C189.989 89.1446 189.979 89.5385 189.872 89.9116V89.9495C190.249 90.4079 190.564 90.9137 190.809 91.4539C191.238 92.2155 191.354 93.1138 191.133 93.9595C191.064 94.291 190.896 94.5939 190.652 94.8285C190.408 95.0631 190.098 95.2186 189.764 95.2745C189.551 95.3349 189.334 95.3801 189.115 95.4098C188.922 95.874 188.574 96.2567 188.13 96.4922C187.724 96.6671 187.274 96.7106 186.842 96.6166C185.858 98.4132 184.763 100.146 183.562 101.806C183.312 102.103 182.991 102.332 182.629 102.472C182.266 102.612 181.875 102.659 181.49 102.607C178.864 102.085 176.447 100.808 174.536 98.9328C174.279 98.6423 174.099 98.2918 174.013 97.9135C173.927 97.5352 173.937 97.1413 174.043 96.7681C175.598 92.5293 177.727 88.5235 180.37 84.8626C180.622 84.5675 180.945 84.3406 181.308 84.2026C181.671 84.0645 182.063 84.0198 182.448 84.0725ZM181.858 88.7265C182.706 88.4026 183.614 88.264 184.52 88.32C185.427 88.376 186.31 88.6253 187.112 89.0512C187.99 89.5228 188.743 90.1961 189.31 91.0156C189.342 91.0643 189.38 91.113 189.412 91.1671C189.826 91.8003 190.123 92.5022 190.289 93.2398C190.336 93.4476 190.3 93.6653 190.19 93.8477C190.081 94.0301 189.905 94.1632 189.699 94.2193C189.598 94.2451 189.493 94.2505 189.39 94.2353C189.287 94.2201 189.188 94.1845 189.099 94.1306C189.01 94.0767 188.932 94.0055 188.871 93.9214C188.809 93.8372 188.765 93.7416 188.741 93.6402C188.703 93.4567 188.652 93.276 188.59 93.0991C188.547 92.9854 188.503 92.8718 188.455 92.7635C187.964 91.6404 187.059 90.7497 185.928 90.277C184.797 89.8042 183.527 89.7858 182.383 90.2255C182.278 90.2667 182.166 90.2846 182.054 90.2781C181.942 90.2715 181.832 90.2407 181.733 90.1876C181.562 90.095 181.432 89.94 181.371 89.7547C181.304 89.5535 181.317 89.3343 181.408 89.1428C181.499 88.9512 181.66 88.8021 181.858 88.7265ZM185.722 91.7732C185.154 91.4587 184.525 91.2729 183.878 91.2289C183.23 91.185 182.582 91.284 181.977 91.5189C181.886 91.5557 181.804 91.6122 181.738 91.6843C181.671 91.7564 181.621 91.8423 181.592 91.9359C181.562 92.0295 181.554 92.1285 181.567 92.2257C181.58 92.323 181.615 92.4161 181.668 92.4984C181.775 92.6799 181.941 92.8186 182.138 92.8907C182.336 92.9628 182.553 92.9638 182.751 92.8934C183.118 92.7519 183.511 92.6922 183.904 92.7183C184.296 92.7445 184.679 92.856 185.024 93.0449C185.372 93.2251 185.677 93.48 185.915 93.7916C186.154 94.1031 186.321 94.4635 186.404 94.847C186.43 94.9716 186.485 95.0887 186.562 95.1898C186.64 95.2909 186.739 95.3734 186.853 95.4315C186.93 95.4724 187.011 95.5033 187.096 95.5235C187.177 95.5342 187.259 95.5342 187.34 95.5235H187.41C187.502 95.5132 187.59 95.4841 187.67 95.438C187.749 95.3919 187.819 95.3297 187.873 95.2554C187.927 95.1812 187.966 95.0965 187.986 95.0066C188.006 94.9167 188.007 94.8237 187.989 94.7334C187.989 94.6468 187.951 94.5656 187.93 94.479C187.908 94.3924 187.848 94.2084 187.8 94.0731C187.401 93.085 186.664 92.2701 185.722 91.7732ZM184.975 96.0159C184.845 96.2652 184.643 96.47 184.396 96.6045C184.149 96.739 183.868 96.7971 183.588 96.7713C183.308 96.7455 183.042 96.637 182.824 96.4597C182.606 96.2823 182.445 96.0441 182.363 95.7753C182.28 95.5065 182.28 95.2192 182.361 94.95C182.442 94.6808 182.601 94.4418 182.819 94.2634C183.036 94.085 183.302 93.9753 183.581 93.9482C183.861 93.921 184.143 93.9777 184.39 94.111C184.719 94.2879 184.964 94.587 185.074 94.9435C185.183 95.3001 185.148 95.6854 184.975 96.0159ZM179.098 98.9977C179.294 99.1018 179.517 99.1454 179.739 99.1229C179.96 99.1004 180.17 99.0128 180.341 98.8713C180.513 98.7298 180.638 98.5406 180.703 98.3276C180.767 98.1146 180.766 97.8874 180.701 97.6747C180.637 97.462 180.51 97.2732 180.338 97.1323C180.166 96.9913 179.956 96.9045 179.735 96.8828C179.513 96.8611 179.291 96.9054 179.094 97.0102C178.898 97.115 178.737 97.2756 178.632 97.4717C178.494 97.7362 178.465 98.0445 178.552 98.3301C178.639 98.6157 178.835 98.8555 179.098 98.9977Z" fill="#5786CC"/>
<path d="M63.5399 43.8315C71.4482 43.8315 77.8591 37.4206 77.8591 29.5123C77.8591 21.604 71.4482 15.1931 63.5399 15.1931C55.6316 15.1931 49.2207 21.604 49.2207 29.5123C49.2207 37.4206 55.6316 43.8315 63.5399 43.8315Z" fill="white"/>
<path fill-rule="evenodd" clip-rule="evenodd" d="M56.7526 23.1808C58.845 21.5115 61.3776 20.4868 64.0421 20.2314C64.4283 20.2258 64.8097 20.3176 65.1512 20.4982C65.4926 20.6789 65.783 20.9426 65.9957 21.2651V21.2975C66.5884 21.3095 67.1773 21.3949 67.749 21.5519C68.6175 21.6977 69.3944 22.1774 69.9137 22.8886C70.1219 23.1554 70.2451 23.4787 70.2673 23.8164C70.2895 24.1542 70.2096 24.4908 70.0381 24.7826C69.9474 24.9856 69.8406 25.1811 69.7189 25.3671C69.961 25.7779 70.0397 26.2647 69.9395 26.7309C69.8392 27.1971 69.5673 27.6085 69.1777 27.8835C69.9198 29.7927 70.5416 31.7465 71.0393 33.7335C71.1078 34.117 71.0782 34.5115 70.9533 34.8805C70.8284 35.2495 70.6123 35.5809 70.325 35.844C68.2331 37.5149 65.7004 38.5415 63.0355 38.7988C62.6481 38.8084 62.2645 38.7202 61.9202 38.5424C61.576 38.3646 61.282 38.1028 61.0657 37.7814C58.8258 33.8641 57.1342 29.6579 56.0383 25.2805C55.9717 24.8987 56.0022 24.5063 56.127 24.1393C56.2519 23.7724 56.467 23.4428 56.7526 23.1808ZM59.9346 26.628C60.3946 25.2905 61.2909 24.1465 62.4795 23.38C63.6681 22.6134 65.08 22.2688 66.4881 22.4015H66.6667C67.422 22.4934 68.1549 22.7188 68.8314 23.0671C69.021 23.1646 69.1654 23.332 69.2341 23.5339C69.3027 23.7359 69.2903 23.9566 69.1993 24.1495C69.1546 24.2466 69.0904 24.3334 69.0106 24.4046C68.9309 24.4758 68.8373 24.5298 68.7358 24.5633C68.6343 24.5968 68.527 24.6091 68.4205 24.5993C68.3141 24.5896 68.2108 24.558 68.117 24.5066C67.9539 24.4209 67.7859 24.345 67.6137 24.2793L67.2674 24.1657C66.2441 23.8595 65.1472 23.9091 64.1557 24.3064C63.5191 24.5681 62.9461 24.9634 62.4756 25.4657C62.005 25.968 61.6478 26.5656 61.4282 27.2179C61.3901 27.3226 61.3305 27.4181 61.2531 27.4983C61.1757 27.5784 61.0824 27.6415 60.9791 27.6833C60.8047 27.7494 60.6122 27.7494 60.4379 27.6833C60.3352 27.6475 60.2407 27.5917 60.1597 27.5192C60.0787 27.4466 60.013 27.3587 59.9662 27.2606C59.9194 27.1625 59.8925 27.056 59.8871 26.9475C59.8816 26.8389 59.8978 26.7303 59.9346 26.628ZM64.751 25.6377C64.1447 25.8694 63.5971 26.232 63.1472 26.6998C62.6972 27.1675 62.3561 27.7287 62.148 28.3435C62.1178 28.436 62.1082 28.5341 62.12 28.6307C62.1318 28.7274 62.1647 28.8203 62.2163 28.9028C62.2679 28.9854 62.337 29.0556 62.4187 29.1086C62.5004 29.1616 62.5927 29.1959 62.6891 29.2093C62.899 29.2472 63.1155 29.2093 63.2999 29.1022C63.4843 28.9951 63.6246 28.8259 63.6957 28.6249C63.8269 28.2555 64.0355 27.9184 64.3074 27.636C64.5794 27.3537 64.9085 27.1326 65.2727 26.9877C65.6369 26.8427 66.0279 26.7771 66.4194 26.7954C66.811 26.8136 67.1942 26.9152 67.5434 27.0934C67.6564 27.1519 67.7807 27.1851 67.9078 27.1907C68.0349 27.1963 68.1617 27.1742 68.2794 27.1259C68.3607 27.0932 68.4372 27.0495 68.5067 26.996C68.5705 26.9465 68.627 26.8882 68.6744 26.8228L68.7123 26.7687C68.7646 26.6922 68.8003 26.6056 68.8172 26.5145C68.8341 26.4233 68.8317 26.3297 68.8103 26.2395C68.7889 26.1494 68.7489 26.0647 68.6929 25.9908C68.6369 25.917 68.5661 25.8557 68.485 25.8108C68.4093 25.773 68.3335 25.7297 68.2523 25.6972C68.1244 25.6343 67.9924 25.5801 67.8573 25.5348C66.8425 25.1989 65.7413 25.2353 64.751 25.6377ZM67.5163 28.9442C67.6211 29.2036 67.6464 29.4883 67.5891 29.7622C67.5318 30.036 67.3945 30.2867 67.1945 30.4824C66.9946 30.6781 66.741 30.81 66.466 30.8614C66.191 30.9127 65.9069 30.8813 65.6498 30.771C65.3926 30.6607 65.1741 30.4765 65.0218 30.2418C64.8695 30.0071 64.7903 29.7325 64.7943 29.4527C64.7983 29.173 64.8853 28.9007 65.0443 28.6705C65.2033 28.4402 65.427 28.2624 65.6872 28.1595C66.0339 28.0224 66.4208 28.0279 66.7635 28.1749C67.1061 28.3219 67.3767 28.5984 67.5163 28.9442ZM65.9957 35.3353C66.202 35.2522 66.379 35.1098 66.5044 34.9261C66.6299 34.7424 66.6981 34.5257 66.7005 34.3033C66.7029 34.0809 66.6393 33.8628 66.5178 33.6765C66.3963 33.4901 66.2223 33.344 66.0179 33.2565C65.8134 33.169 65.5876 33.144 65.3689 33.1847C65.1502 33.2254 64.9485 33.33 64.7893 33.4852C64.63 33.6405 64.5203 33.8394 64.474 34.057C64.4277 34.2745 64.4468 34.5009 64.5291 34.7076C64.5839 34.8453 64.6654 34.9708 64.7689 35.077C64.8723 35.1831 64.9957 35.2678 65.132 35.3261C65.2682 35.3844 65.4147 35.4153 65.5629 35.4168C65.7111 35.4184 65.8582 35.3907 65.9957 35.3353Z" fill="#5786CC"/>
</g>
</svg>
