<svg width="263" height="216" viewBox="0 0 263 216" fill="none" xmlns="http://www.w3.org/2000/svg">
<rect width="263" height="215" rx="16" fill="#C1EAE4"/>
<mask id="mask0_2870_10084" style="mask-type:alpha" maskUnits="userSpaceOnUse" x="0" y="0" width="263" height="216">
<path d="M250.856 0.291199H12.1437C5.43692 0.291199 0 5.72812 0 12.4349V203.146C0 209.853 5.43692 215.29 12.1437 215.29H250.856C257.563 215.29 263 209.853 263 203.146V12.4349C263 5.72812 257.563 0.291199 250.856 0.291199Z" fill="#C1EAE4"/>
</mask>
<g mask="url(#mask0_2870_10084)">
<path d="M86.2515 183.204C86.2191 183.204 86.1271 183.296 85.456 184.433C85.2125 184.844 84.9149 185.369 84.4332 186.029C83.6594 187.16 82.9505 188.194 82.9505 188.194C80.8616 193.405 63.0465 196.311 59.8103 195.18C52.023 192.404 51.011 178.664 50.8432 176.586C49.6689 162.202 56.9638 150.464 60.7736 135.425C61.3929 132.981 61.8717 130.504 62.2077 128.006C62.603 125.071 62.7983 122.113 62.7921 119.152C62.7921 119.152 65.5899 116.75 68.7124 116.593C71.835 116.436 86.3814 108.767 86.3814 108.767L99.4451 103.897C98.9018 103.257 98.5994 102.447 98.5901 101.608C98.5901 100.726 99.0284 99.822 100.576 98.4258C102.453 96.7528 104.642 95.4656 107.016 94.6377C107.556 94.5382 108.071 94.3322 108.531 94.0316C109.255 93.5187 109.81 92.8032 110.128 91.9752C110.62 90.8928 112.46 89.3397 118.294 87.4781C119.434 87.056 120.615 86.6573 121.838 86.2821C132.662 82.9973 142.944 83.2678 151.337 84.6586C152.697 85.1968 153.899 86.0689 154.833 87.1945C155.766 88.32 156.401 89.6627 156.679 91.0985C160.425 89.9842 164.434 90.1421 168.081 91.5476C170.667 92.5997 172.948 94.2835 174.716 96.4452C175.993 97.9496 178.022 100.347 177.302 102.165C176.583 103.984 173.184 104.59 173.357 105.185C173.401 105.342 173.644 105.299 174.548 105.796C175.587 106.376 175.424 106.435 180.928 108.8C187.877 111.793 198.505 116.593 199.825 118.887C201.146 121.182 206.752 146.027 207.846 166.97C208.939 187.913 208.722 190.185 207.846 198.07C207.045 205.3 204.057 208.71 202.71 212.222C197.839 224.874 209.745 234.123 204.582 243.441C203.359 245.644 200.691 248.745 193.911 250.698C180.162 249.242 166.314 248.956 152.517 249.843C127.899 251.467 111.215 256.44 97.4699 247.284C95.4676 245.952 90.4347 242.494 87.6532 236.19C85.429 231.108 86.2245 227.677 86.7981 217.839C87.8859 199.347 86.7224 183.204 86.2515 183.204Z" fill="#5785CC"/>
<path d="M185.971 218.58C173.811 218.58 162.16 212.79 151.986 201.615L153.15 200.56C164.466 213.006 177.627 218.553 191.21 216.643C205.183 214.657 206.314 204.451 206.99 198.352L207.039 197.897C207.91 190.131 208.148 188.042 207.039 166.769C205.957 145.615 200.307 120.89 199.1 118.79C198.586 117.902 195.49 115.445 180.473 108.984C175.754 106.949 175.126 106.587 174.401 106.164C174.055 105.964 173.703 105.759 172.827 105.331C171.236 104.557 170.045 105.06 169.087 105.461C168.65 105.694 168.164 105.82 167.669 105.829C166.793 105.764 165.607 105.185 164.963 102.815C164.785 102.181 162.696 101.326 160.937 100.953L161.256 99.4161C162.339 99.6488 165.959 100.542 166.473 102.393C166.663 103.069 167.085 104.211 167.805 104.265C168.042 104.203 168.274 104.119 168.497 104.016C169.547 103.572 171.3 102.836 173.53 103.919C174.455 104.373 174.856 104.6 175.202 104.806C175.89 105.201 176.474 105.542 181.112 107.539C197.011 114.385 199.776 116.793 200.475 118.005C201.984 120.63 207.51 145.805 208.624 166.71C209.745 188.113 209.507 190.229 208.624 198.097L208.576 198.546C207.899 204.667 206.638 216.064 191.459 218.218C189.64 218.465 187.807 218.587 185.971 218.58Z" fill="#5785CC"/>
<path d="M113.926 98.4258C116.031 98.4419 118.114 97.9909 120.025 97.1053C120.165 96.6129 120.301 96.1096 120.436 95.6009C121.684 90.7624 122.409 85.8041 122.601 80.8109C125.234 83.165 128.386 84.8635 131.8 85.768C141.79 88.3439 150.07 82.7591 151.483 81.7688C151.336 88.9879 151.38 94.3616 151.483 96.2774C151.507 97.146 151.719 97.999 152.105 98.7775C152.738 100.028 153.577 100.347 153.631 100.709C154.172 104.33 141.184 109.254 128.472 113.248L113.926 98.4258Z" fill="#C68A54"/>
<path d="M119.48 89.8808C117.153 90.8819 115.589 92.5866 115.031 94.1343C114.726 95.0604 114.587 96.0333 114.62 97.0079C114.642 97.3333 114.685 97.6569 114.75 97.9766C115.35 97.7086 115.973 97.4966 116.612 97.3434C118.333 96.9213 119.117 97.1757 119.734 96.5912C120.108 96.2395 120.086 95.8985 120.275 94.367C120.714 91.1201 121.152 89.9998 120.638 89.6752C120.481 89.5832 120.156 89.5128 119.48 89.8808Z" fill="#222223"/>
<path d="M114.751 98.8749C114.608 98.8729 114.467 98.8377 114.34 98.7721C114.22 98.7113 114.115 98.6243 114.034 98.5174C113.952 98.4106 113.896 98.2868 113.869 98.1552C113.798 97.7979 113.751 97.4363 113.728 97.0728C113.684 95.9716 113.84 94.8715 114.188 93.8259C114.875 91.9101 116.753 90.0864 119.091 89.069C119.914 88.6253 120.601 88.5712 121.137 88.9121C121.997 89.4532 121.84 90.3895 121.553 92.0833C121.445 92.7111 121.315 93.4957 121.185 94.4807C121.153 94.7188 121.126 94.9352 121.099 95.1192C120.958 96.2016 120.898 96.7427 120.352 97.2352C119.795 97.6966 119.094 97.9493 118.371 97.9495C117.85 97.9993 117.333 98.0861 116.823 98.2093C116.237 98.3508 115.665 98.5446 115.113 98.7883C115.001 98.8438 114.877 98.8734 114.751 98.8749ZM119.962 90.6655L119.914 90.6925L119.838 90.7304C117.549 91.7207 116.293 93.3063 115.876 94.4644C115.634 95.2012 115.511 95.9724 115.514 96.7481C115.806 96.6561 116.098 96.5696 116.396 96.4992C116.98 96.3566 117.573 96.2571 118.171 96.2016C118.772 96.1312 118.977 96.0987 119.118 95.9634C119.259 95.8282 119.221 95.6983 119.318 94.9244C119.345 94.735 119.372 94.5185 119.405 94.275C119.54 93.263 119.675 92.4621 119.784 91.8181C119.854 91.3744 119.924 90.9523 119.962 90.6655Z" fill="#222223"/>
<path d="M138.907 112.426C137.083 112.428 135.263 112.263 133.468 111.933C119.788 109.395 113.5 100.612 112.904 99.1022C112.826 98.9461 112.791 98.7722 112.803 98.5982C112.814 98.4242 112.872 98.2564 112.969 98.1118C113.267 97.7168 113.797 97.6032 115.594 97.2676C116.676 97.0728 118.841 96.6669 119.274 96.299C119.669 95.4872 120.178 90.4544 120.513 87.0992C120.816 84.1065 121.103 81.2817 121.379 79.945L121.774 78.0401L122.813 79.6636C124.777 82.7861 128.138 86.623 132.96 87.1966C138.063 87.7973 145.504 85.9681 150.623 80.5132L152.009 79.0358L151.982 81.0598C151.922 85.0806 151.917 95.9364 152.572 97.8954C152.94 99.0102 156.284 100.428 158.281 101.278C160.608 102.268 161.56 102.696 161.804 103.394C161.848 103.522 161.864 103.658 161.852 103.793C161.84 103.929 161.799 104.06 161.733 104.178C161.106 105.347 151.073 112.426 138.907 112.426ZM114.652 99.0481C116.011 101.186 122.05 108.221 133.755 110.412C146.316 112.745 157.566 105.694 159.964 103.805C159.423 103.513 158.47 103.112 157.669 102.771C154.276 101.332 151.635 100.098 151.089 98.442C150.391 96.3477 150.369 87.1208 150.396 82.9755C144.984 87.7919 137.836 89.4045 132.781 88.8038C128.993 88.3547 125.513 86.098 122.629 82.2125C122.456 83.6087 122.272 85.4107 122.088 87.2832C121.373 94.3778 121.06 96.694 120.464 97.3434C119.869 97.9928 118.24 98.3933 115.875 98.8316L114.652 99.0481Z" fill="#C68A54"/>
<path d="M133.23 99.4377C132.938 99.3403 130.411 98.3554 130.081 93.4849C130.073 93.2522 130.155 93.0255 130.311 92.8525C130.467 92.6796 130.684 92.5739 130.916 92.5578C131.148 92.5416 131.378 92.6163 131.556 92.766C131.734 92.9158 131.848 93.1289 131.872 93.3605C132.115 97.0133 133.739 97.6898 133.804 97.6898L133.23 99.4377Z" fill="#222223"/>
<path d="M119.627 89.8862C119.627 89.8862 111.996 93.1332 115.471 100.423C117.306 102.702 119.33 104.824 121.521 106.765C124.416 109.162 129.005 112.561 128.161 114.942C127.672 116.539 127.649 118.242 128.096 119.85L121.413 120.354L111.607 109.79L108.576 105.12L112.251 93.4471L119.627 89.8862Z" fill="#5785CC"/>
<path d="M152.219 91.9913C152.219 91.9913 167.761 96.9051 166.386 101.732C165.012 106.559 145.005 115.954 139.252 116.208C137.641 116.319 136.028 116.006 134.576 115.3C133.123 114.593 131.881 113.518 130.973 112.182C130.973 112.182 139.951 109.152 142.878 108.069C145.806 106.987 155.893 105.271 152.376 96.0122L152.219 91.9913Z" fill="#5785CC"/>
<path d="M118.332 95.3033L132.348 88.0841C127.25 87.2345 123.148 82.8457 122.153 80.4375L120.881 91.0551L118.332 95.3033Z" fill="#222223"/>
<path d="M118.333 96.2016C118.21 96.2021 118.088 96.1769 117.975 96.1275C117.862 96.0781 117.761 96.0056 117.678 95.9148C117.543 95.7717 117.459 95.5883 117.439 95.3928C117.418 95.1973 117.462 95.0005 117.564 94.8325L120.016 90.7467L121.266 80.3185C121.29 80.1219 121.379 79.939 121.519 79.7982C121.658 79.6575 121.84 79.5668 122.037 79.5402C122.233 79.5137 122.433 79.5528 122.604 79.6514C122.776 79.7501 122.911 79.9028 122.987 80.0858C123.809 82.0881 127.56 86.3633 132.495 87.1858C132.681 87.2171 132.852 87.3059 132.984 87.4398C133.117 87.5737 133.204 87.7458 133.233 87.9319C133.263 88.118 133.233 88.3085 133.148 88.4767C133.063 88.6448 132.927 88.782 132.76 88.8688L118.744 96.0771C118.62 96.1527 118.478 96.1956 118.333 96.2016ZM122.743 83.0892L121.774 91.1634C121.758 91.2879 121.715 91.4077 121.65 91.5151L120.725 93.0629L129.881 88.3439C127.079 87.2535 124.617 85.4405 122.743 83.0892Z" fill="#222223"/>
<path d="M128.483 114.731H128.364C128.238 114.715 128.117 114.672 128.01 114.605C127.902 114.538 127.811 114.448 127.742 114.341C125.523 111.094 122.871 108.93 120.485 107.041C117.535 104.687 114.986 102.652 114.05 99.1834C111.934 91.3203 120.073 88.7606 120.16 88.7336C120.386 88.6724 120.627 88.702 120.832 88.8159C121.036 88.9299 121.188 89.1192 121.255 89.3436C121.322 89.568 121.299 89.8097 121.19 90.0172C121.082 90.2247 120.897 90.3816 120.674 90.4545C120.409 90.5356 114.121 92.5434 115.804 98.718C116.588 101.619 118.812 103.394 121.626 105.64C123.916 107.463 126.497 109.52 128.732 112.604C129.977 111.863 132.85 110.44 138.971 108.448C148.03 105.531 150.286 104.189 151.926 102.29C153.566 100.39 152.467 98.6693 152.467 98.6531C152.39 98.557 152.334 98.4461 152.301 98.3273C152.269 98.2085 152.261 98.0842 152.279 97.9623C152.297 97.8404 152.339 97.7235 152.404 97.6187C152.469 97.514 152.554 97.4236 152.656 97.3534C152.757 97.2831 152.871 97.2343 152.992 97.2102C153.113 97.186 153.237 97.187 153.358 97.2129C153.478 97.2389 153.592 97.2894 153.692 97.3612C153.792 97.433 153.876 97.5246 153.939 97.6303C154.616 98.599 155.346 101.067 153.29 103.459C151.234 105.851 148.111 107.387 139.528 110.158C131.183 112.864 129.111 114.488 129.089 114.525C128.92 114.667 128.704 114.741 128.483 114.731Z" fill="#222223"/>
<path d="M132.733 125.874C132.319 125.877 131.907 125.829 131.505 125.733C130.826 125.554 130.195 125.231 129.653 124.785C129.111 124.34 128.672 123.782 128.366 123.152C127.588 121.678 127.123 120.06 127 118.399C126.877 116.738 127.099 115.069 127.652 113.497C127.689 113.38 127.751 113.272 127.832 113.18C127.913 113.087 128.012 113.013 128.123 112.96C128.234 112.908 128.355 112.878 128.478 112.875C128.601 112.871 128.723 112.892 128.838 112.937C128.952 112.983 129.056 113.051 129.143 113.138C129.229 113.225 129.297 113.329 129.343 113.443C129.388 113.557 129.409 113.68 129.405 113.803C129.4 113.926 129.371 114.046 129.318 114.157C128.873 115.483 128.699 116.884 128.805 118.279C128.911 119.673 129.295 121.032 129.935 122.275C130.125 122.686 130.402 123.05 130.747 123.344C131.092 123.637 131.496 123.852 131.932 123.974C134.324 124.559 138.031 122.264 141.321 120.062C141.976 119.629 142.588 119.206 143.178 118.806C147.171 116.1 150.37 113.936 159.007 110.689C163.877 108.865 175.35 104.59 176.481 101.835C176.571 101.616 176.745 101.441 176.964 101.35C177.184 101.258 177.43 101.258 177.65 101.348C177.869 101.439 178.044 101.612 178.135 101.832C178.227 102.051 178.227 102.297 178.137 102.517C176.946 105.412 170.176 108.437 159.629 112.372C151.198 115.521 148.265 117.523 144.19 120.3C143.594 120.705 142.977 121.128 142.317 121.566C139.054 123.768 135.612 125.874 132.733 125.874Z" fill="#222223"/>
<path d="M123.899 127.465C122.711 127.462 121.541 127.184 120.479 126.653C118.341 125.571 116.804 123.346 114.856 120.511C113.208 117.983 111.345 115.602 109.287 113.394C107.224 111.311 104.98 109.415 102.582 107.728C99.4166 105.391 97.1275 103.708 97.9014 100.774C98.9837 96.5966 107.291 93.512 108.232 93.1981C108.452 93.1326 108.689 93.1538 108.894 93.2575C109.099 93.3612 109.256 93.5394 109.334 93.7556C109.412 93.9718 109.404 94.2094 109.311 94.4198C109.219 94.6301 109.05 94.7971 108.838 94.8866C107.329 95.4525 105.861 96.1216 104.444 96.8889C101.69 98.3987 99.9794 99.9519 99.6385 101.256C99.1893 102.934 100.542 104.016 103.649 106.305C106.13 108.05 108.45 110.013 110.581 112.171C112.703 114.447 114.624 116.903 116.323 119.509C118.125 122.134 119.57 124.207 121.269 125.062C122.04 125.454 122.89 125.665 123.755 125.677C124.62 125.689 125.477 125.503 126.258 125.132C126.771 124.895 127.22 124.54 127.567 124.094C127.914 123.649 128.15 123.127 128.255 122.572C128.305 122.347 128.439 122.15 128.63 122.021C128.821 121.892 129.054 121.841 129.282 121.879C129.509 121.917 129.713 122.042 129.851 122.226C129.99 122.411 130.052 122.641 130.025 122.87C129.871 123.701 129.524 124.483 129.012 125.155C128.5 125.826 127.836 126.367 127.075 126.734C126.088 127.223 125 127.473 123.899 127.465Z" fill="#222223"/>
<path d="M113.477 104.227C113.163 103.989 105.738 98.4258 107.827 93.7122C108.677 91.7965 111.047 89.9241 114.862 88.0896C116.603 87.2687 118.394 86.5601 120.225 85.9682L120.69 87.4672C117.985 88.306 110.668 91.1796 109.266 94.3508C107.946 97.3164 112.513 101.575 114.413 102.961L113.477 104.227Z" fill="#5785CC"/>
<path d="M89.6707 140.588C89.5528 140.585 89.4365 140.559 89.3286 140.511C89.2206 140.463 89.1232 140.395 89.0418 140.309C88.9604 140.224 88.8966 140.123 88.8541 140.013C88.8116 139.903 88.7912 139.786 88.7941 139.668C88.9154 131.214 87.4221 122.814 84.3944 114.92C84.3362 114.713 84.3553 114.491 84.4481 114.296C84.5409 114.101 84.7012 113.946 84.8992 113.86C85.0973 113.775 85.3197 113.763 85.5254 113.829C85.7311 113.894 85.906 114.032 86.0179 114.217C89.1761 122.338 90.7131 130.999 90.542 139.711C90.5366 139.941 90.4432 140.16 90.2811 140.323C90.119 140.486 89.9006 140.581 89.6707 140.588Z" fill="#222223"/>
<path d="M89.5094 136.015C89.3246 136.015 89.1443 135.957 88.9932 135.851C88.8421 135.744 88.7276 135.594 88.6652 135.42C84.5416 123.893 80.8995 120.576 80.8617 120.543C80.6937 120.384 80.5939 120.165 80.583 119.934C80.5721 119.703 80.6511 119.476 80.8033 119.301C80.9555 119.127 81.1693 119.018 81.4 118.997C81.6307 118.976 81.8605 119.046 82.0414 119.19C82.2037 119.331 86.0352 122.74 90.3591 134.814C90.4391 135.038 90.427 135.284 90.3256 135.499C90.2241 135.714 90.0416 135.88 89.8179 135.961C89.7194 135.998 89.6148 136.017 89.5094 136.015Z" fill="#222223"/>
<path d="M74.4805 133.915C74.4805 133.915 80.8175 141.427 81.1476 140.452C81.4777 139.478 76.9536 131.626 76.9536 131.626L74.4805 133.915Z" fill="#222223"/>
<path d="M81.0063 141.324C80.4652 141.324 79.1772 140.696 73.8792 134.418C73.7499 134.264 73.6847 134.066 73.6967 133.864C73.7088 133.663 73.7973 133.474 73.9442 133.336L76.401 131.042C76.4871 130.961 76.5901 130.901 76.7024 130.865C76.8148 130.83 76.9337 130.82 77.0504 130.836C77.1637 130.857 77.2709 130.903 77.3645 130.97C77.458 131.038 77.5355 131.125 77.5916 131.226C82.2781 139.343 81.9642 140.36 81.856 140.68C81.8095 140.835 81.7214 140.975 81.6012 141.083C81.481 141.192 81.3333 141.266 81.1741 141.297C81.1191 141.311 81.063 141.32 81.0063 141.324ZM75.5622 133.959C76.9855 135.62 78.544 137.335 79.6751 138.472C78.9878 136.984 77.8676 134.851 76.742 132.855L75.5622 133.959Z" fill="#222223"/>
<path d="M79.9914 191.376C79.7918 191.38 79.5965 191.318 79.4364 191.199C79.2762 191.079 79.1603 190.91 79.1069 190.718C79.0535 190.526 79.0658 190.321 79.1417 190.136C79.2175 189.952 79.3528 189.798 79.526 189.698C84.6562 186.614 85.8738 183.345 86.7613 170.265C87.7246 155.951 88.6175 149.809 88.6284 149.75C88.6454 149.633 88.6852 149.522 88.7454 149.421C88.8056 149.32 88.8851 149.232 88.9793 149.162C89.0736 149.092 89.1807 149.041 89.2945 149.012C89.4084 148.984 89.5268 148.978 89.643 148.995C89.7592 149.012 89.8709 149.052 89.9717 149.112C90.0726 149.172 90.1605 149.252 90.2306 149.346C90.3007 149.44 90.3516 149.547 90.3803 149.661C90.409 149.775 90.415 149.893 90.398 150.009C90.398 150.069 89.5104 156.157 88.5472 170.39C87.6759 183.291 86.507 187.593 80.4297 191.235C80.2983 191.319 80.1472 191.368 79.9914 191.376Z" fill="#222223"/>
<path d="M81.5539 152.152C81.3221 152.153 81.0992 152.063 80.9317 151.903C80.7643 151.743 80.6654 151.524 80.6556 151.292L80.2389 140.469C80.2301 140.231 80.3157 140 80.477 139.826C80.6382 139.651 80.862 139.548 81.0993 139.538C81.3369 139.532 81.5673 139.619 81.7412 139.781C81.9152 139.943 82.0189 140.166 82.0301 140.404L82.4523 151.227C82.4566 151.345 82.4376 151.463 82.3965 151.573C82.3553 151.684 82.2927 151.786 82.2123 151.872C82.1319 151.958 82.0352 152.028 81.9278 152.077C81.8204 152.126 81.7044 152.154 81.5864 152.158L81.5539 152.152Z" fill="#222223"/>
<path d="M61.3413 196.192C60.4631 196.229 59.5846 196.127 58.7383 195.889C58.6195 195.856 58.5087 195.799 58.4128 195.722C58.317 195.644 58.2382 195.547 58.1813 195.438C58.1244 195.328 58.0907 195.208 58.0822 195.085C58.0737 194.962 58.0907 194.839 58.132 194.723C58.1734 194.606 58.2382 194.5 58.3225 194.41C58.4068 194.32 58.5088 194.248 58.622 194.199C58.7352 194.15 58.8573 194.125 58.9807 194.125C59.1041 194.126 59.226 194.151 59.339 194.201C60.6757 194.672 65.6382 194.331 70.8875 193.059C76.7266 191.647 80.6771 189.639 81.4564 187.685C83.4424 182.717 81.267 164.48 81.2453 164.296C81.2428 164.286 81.2428 164.274 81.2453 164.264C81.1696 163.387 81.6404 162.142 82.2411 160.568C82.9879 158.603 84.0053 155.914 83.4208 154.707C82.5225 152.856 79.2647 150.773 78.0849 150.123C77.8761 150.008 77.7214 149.815 77.655 149.586C77.5885 149.358 77.6156 149.112 77.7305 148.903C77.8453 148.694 78.0384 148.539 78.2672 148.473C78.4961 148.406 78.742 148.434 78.9508 148.548C79.1402 148.657 83.7022 151.184 85.0335 153.922C85.9589 155.827 84.8765 158.684 83.9187 161.201C83.4857 162.337 82.9987 163.62 83.0312 164.096C83.1502 165.097 85.2716 182.999 83.1286 188.351C81.7486 191.809 75.1356 193.876 71.315 194.802C68.0513 195.629 64.7067 196.095 61.3413 196.192Z" fill="#222223"/>
<path d="M78.1448 69.257L61.4824 71.7897L67.9764 111.479L86.5166 109.314L78.1448 69.257Z" fill="#FD6542"/>
<path d="M86.4893 109.314L90.0177 108.681L82.5225 68.77L78.1445 69.257L86.4893 109.314Z" fill="#FEC1B2"/>
<path d="M66.6554 82.0989C66.4572 82.1394 66.2529 82.1394 66.0547 82.0989C65.856 82.0573 65.6677 81.976 65.5012 81.8597C65.3347 81.7434 65.1935 81.5947 65.086 81.4224C64.9804 81.2573 64.9069 81.0737 64.8696 80.8812L63.9983 75.632C63.9352 75.2405 64.0243 74.8397 64.2472 74.5117C64.4735 74.1877 64.8171 73.9645 65.2051 73.8894C65.4033 73.8489 65.6076 73.8489 65.8058 73.8894C65.9992 73.935 66.1826 74.0157 66.3469 74.1275C66.5106 74.2462 66.6502 74.3949 66.7582 74.5659C66.866 74.7299 66.9396 74.9139 66.9747 75.107L67.8514 80.3563C67.9165 80.7467 67.8269 81.1471 67.6016 81.4725C67.3763 81.7979 67.0329 82.0226 66.6446 82.0989H66.6554Z" fill="#222223"/>
<path d="M76.3539 128.347L78.3129 137.352C78.3129 137.352 77.1711 138.558 69.7193 140.783C67.993 141.291 59.3614 143.24 59.3614 143.24L58.9609 135.344C58.9609 135.344 70.1793 132.378 76.3539 128.347Z" fill="#5785CC"/>
<path d="M86.5605 107.636L79.7473 110.147C80.7972 109.303 82.4964 108.075 84.6773 106.608C87.9243 104.444 86.474 101.413 86.474 101.413L77.6097 104.406L73.762 109.417V109.379C74.8877 107.707 76.5815 105.309 77.6368 104.406C79.8014 102.539 83.1999 102.717 84.6286 101.548C86.0573 100.379 85.1373 98.2364 85.1373 98.2364C85.1373 98.2364 79.3847 99.5027 73.6159 100.504C73.1235 100.585 71.408 103.064 69.9847 105.234C69.9847 105.234 72.0303 99.9789 73.3507 98.2256C74.6712 96.4722 77.6259 94.2318 78.8814 92.3756C79.1683 91.9535 78.8814 89.9891 77.7991 88.9446C76.7168 87.9002 68.3775 95.1572 66.2128 98.8912C63.875 102.917 61.8294 117.074 60.9798 123.482C60.4714 127.286 60.3463 131.131 60.6063 134.96C63.7222 134.205 66.7774 133.219 69.7466 132.01C74.6874 129.992 75.7319 128.612 76.9062 125.267C78.5297 120.695 78.4106 119.753 78.9356 118.487C79.4605 117.22 80.4508 114.877 84.423 112.458C88.3951 110.039 86.5605 107.636 86.5605 107.636ZM77.2525 113.259C77.733 112.422 78.2891 111.63 78.9139 110.894C79.0817 110.726 79.3252 110.515 79.6174 110.272C78.6853 111.145 77.8883 112.152 77.2525 113.259Z" fill="#C68A54"/>
<path d="M87.5833 110.012C87.3609 110.009 87.1476 109.923 86.9846 109.772C86.8216 109.621 86.7206 109.414 86.701 109.193C86.6815 108.971 86.7449 108.75 86.8789 108.573C87.0128 108.395 87.2079 108.274 87.4264 108.232L88.9687 107.956L81.7982 69.755L78.2428 70.15C78.1213 70.173 77.9964 70.1706 77.8759 70.1431C77.7554 70.1155 77.6419 70.0634 77.5424 69.99C77.443 69.9165 77.3598 69.8234 77.298 69.7163C77.2362 69.6092 77.1972 69.4905 77.1834 69.3677C77.1695 69.2449 77.1812 69.1205 77.2177 69.0024C77.2541 68.8842 77.3146 68.7749 77.3953 68.6812C77.4759 68.5875 77.575 68.5115 77.6864 68.4579C77.7978 68.4043 77.919 68.3742 78.0426 68.3696L82.426 67.8771C82.6505 67.8528 82.876 67.9138 83.0575 68.0482C83.239 68.1826 83.3633 68.3804 83.4055 68.6023L90.8898 108.524C90.9316 108.76 90.8791 109.003 90.7437 109.2C90.6765 109.298 90.5907 109.381 90.4914 109.445C90.392 109.509 90.281 109.553 90.1646 109.574L87.7348 110.007C87.6846 110.013 87.6339 110.015 87.5833 110.012Z" fill="#222223"/>
<path d="M66.2004 99.7895C65.9898 99.7889 65.7861 99.7143 65.6249 99.5788C65.4636 99.4433 65.3551 99.2555 65.3184 99.0481L60.5832 71.9466C60.5631 71.8293 60.5666 71.7091 60.5933 71.5931C60.6201 71.4771 60.6697 71.3675 60.7392 71.2708C60.8087 71.1742 60.8967 71.0923 60.9981 71.0299C61.0995 70.9675 61.2123 70.926 61.33 70.9076L77.9924 68.3695C78.2236 68.3427 78.4561 68.4066 78.6411 68.5478C78.8261 68.689 78.9491 68.8964 78.9841 69.1265C79.0192 69.3565 78.9636 69.5912 78.8291 69.7811C78.6946 69.971 78.4916 70.1013 78.263 70.1445L62.5097 72.5419L67.0771 98.7396C67.0973 98.8555 67.0944 98.9742 67.0686 99.0889C67.0428 99.2037 66.9945 99.3122 66.9266 99.4082C66.8587 99.5043 66.7726 99.586 66.673 99.6486C66.5735 99.7112 66.4625 99.7536 66.3466 99.7732C66.2985 99.7833 66.2496 99.7887 66.2004 99.7895Z" fill="#222223"/>
<path d="M60.8046 135.414C60.5891 135.414 60.3809 135.336 60.218 135.195C60.0551 135.054 59.9483 134.859 59.9171 134.646C59.4989 130.894 59.5553 127.105 60.0849 123.368C61.3133 114.082 63.2345 102.225 65.4262 98.442C67.396 95.0543 74.6259 88.3439 77.164 87.9813C77.3757 87.939 77.5944 87.9473 77.8022 88.0056C78.0101 88.0639 78.2012 88.1706 78.36 88.3168C79.5884 89.4911 80.2432 91.9372 79.5884 92.9005C78.6697 94.1049 77.6367 95.2177 76.5038 96.2232C75.6197 97.0169 74.795 97.8742 74.0361 98.7883C73.0133 100.147 71.3303 104.146 70.7891 105.575C70.7465 105.684 70.6827 105.784 70.6014 105.869C70.5201 105.954 70.4229 106.021 70.3154 106.069C70.2079 106.116 70.0921 106.142 69.9746 106.144C69.8572 106.146 69.7404 106.126 69.631 106.083C69.5216 106.041 69.4216 105.977 69.3368 105.895C69.252 105.814 69.184 105.717 69.1368 105.61C69.0896 105.502 69.064 105.386 69.0615 105.269C69.059 105.151 69.0797 105.035 69.1223 104.925C69.2035 104.709 71.2274 99.5405 72.6074 97.706C73.4244 96.7138 74.3144 95.784 75.2699 94.9244C76.2823 94.0235 77.2147 93.0367 78.0569 91.9751C78.0371 91.1893 77.7659 90.4306 77.2831 89.8104C75.6217 90.2433 68.9816 95.931 67.0009 99.3728C65.4045 102.122 63.5916 110.737 61.887 123.628C61.3866 127.202 61.3285 130.824 61.7138 134.413C61.7314 134.53 61.7257 134.649 61.6971 134.763C61.6685 134.878 61.6175 134.985 61.547 135.08C61.4766 135.174 61.3881 135.254 61.2867 135.314C61.1853 135.374 61.0729 135.414 60.9562 135.43L60.8046 135.414Z" fill="#222223"/>
<path d="M72.4911 131.253C72.2893 131.253 72.0935 131.184 71.9351 131.059C71.7768 130.934 71.6652 130.759 71.6183 130.563C71.5714 130.367 71.592 130.16 71.6767 129.977C71.7614 129.794 71.9053 129.645 72.0852 129.553C74.1362 128.531 74.9805 128.109 76.079 124.981C76.6797 123.318 77.1892 121.623 77.6051 119.905C77.7363 119.308 77.9173 118.723 78.1463 118.157L78.2166 117.983C79.2115 115.315 81.1798 113.122 83.7257 111.847C85.479 110.916 85.8524 109.682 85.8903 108.87L80.2622 110.965C79.4095 111.778 78.6802 112.711 78.0976 113.735C77.9684 113.927 77.77 114.062 77.5438 114.112C77.3176 114.161 77.0811 114.121 76.8835 114C76.686 113.88 76.5427 113.687 76.4836 113.464C76.4244 113.24 76.454 113.002 76.5661 112.799C77.2752 111.534 78.2001 110.402 79.2989 109.455C79.3661 109.403 79.441 109.363 79.5208 109.336L86.307 106.803C86.4182 106.762 86.5364 106.743 86.6548 106.748C86.7732 106.753 86.8895 106.782 86.9968 106.832C87.1041 106.882 87.2003 106.954 87.2797 107.041C87.3592 107.129 87.4204 107.232 87.4597 107.344C87.9576 108.665 88.0009 111.641 84.6132 113.443C82.4355 114.525 80.7547 116.399 79.9159 118.681L79.8455 118.855C79.6587 119.336 79.5121 119.832 79.4072 120.337C78.9798 122.115 78.4541 123.867 77.8324 125.587C76.5498 129.24 75.343 129.976 72.9619 131.172C72.8158 131.243 72.6526 131.271 72.4911 131.253Z" fill="#222223"/>
<path d="M72.5773 112.047C72.4081 112.048 72.2424 111.999 72.1011 111.906C72.0014 111.844 71.915 111.762 71.8469 111.667C71.7787 111.571 71.7302 111.462 71.7041 111.348C71.6779 111.233 71.6747 111.114 71.6945 110.998C71.7143 110.883 71.7569 110.772 71.8197 110.672C71.9604 110.45 75.2507 105.261 77.0148 103.74C78.3948 102.544 80.1157 102.116 81.6364 101.732C82.4811 101.59 83.2933 101.297 84.0337 100.866C84.2368 100.667 84.3836 100.417 84.4596 100.142C84.5356 99.8679 84.538 99.5782 84.4667 99.3025C82.6808 99.6813 78.2703 100.607 73.8815 101.37C73.1618 101.987 70.6345 105.699 68.6485 108.946C68.587 109.046 68.5064 109.133 68.4112 109.202C68.3161 109.271 68.2083 109.321 68.094 109.348C67.9796 109.376 67.861 109.38 67.7449 109.362C67.6288 109.344 67.5175 109.302 67.4173 109.241C67.3171 109.179 67.23 109.099 67.1609 109.004C67.0919 108.909 67.0423 108.801 67.0149 108.686C66.9875 108.572 66.9829 108.454 67.0013 108.337C67.0198 108.221 67.0609 108.11 67.1224 108.01C72.1498 99.8653 73.0319 99.7029 73.4269 99.6271C79.0983 98.6422 84.8563 97.3813 84.9104 97.3705C85.1166 97.326 85.3319 97.3559 85.5181 97.455C85.7043 97.554 85.8495 97.7158 85.9278 97.9117C86.1234 98.3937 86.2438 98.9029 86.285 99.4215C86.3528 99.9535 86.2857 100.494 86.09 100.993C85.8942 101.493 85.5761 101.935 85.1648 102.279C84.3801 102.912 83.2599 103.193 82.0747 103.491C80.6839 103.843 79.2498 104.2 78.1946 105.115C76.8904 106.251 74.2441 110.223 73.3241 111.652C73.2423 111.775 73.1311 111.875 73.0007 111.944C72.8703 112.013 72.7248 112.048 72.5773 112.047Z" fill="#222223"/>
<path d="M76.3868 115.597C76.2292 115.598 76.074 115.558 75.937 115.48C75.8001 115.402 75.6862 115.289 75.6071 115.152C75.5279 115.016 75.4862 114.861 75.4863 114.704C75.4864 114.546 75.5282 114.391 75.6075 114.255C75.7915 113.93 77.4367 111.094 78.3134 110.256C80.1693 108.656 82.1389 107.192 84.2066 105.878C85.9113 104.736 86.0249 103.35 85.8896 102.517L80.0451 104.07C79.9288 104.109 79.8058 104.124 79.6835 104.114C79.5612 104.104 79.4424 104.069 79.3342 104.011C79.2261 103.953 79.1309 103.873 79.0547 103.777C78.9784 103.681 78.9226 103.57 78.8908 103.452C78.8589 103.333 78.8517 103.21 78.8695 103.088C78.8873 102.967 78.9298 102.85 78.9944 102.746C79.0589 102.642 79.1442 102.552 79.2448 102.482C79.3455 102.412 79.4595 102.363 79.5797 102.338L86.2739 100.558C86.4767 100.506 86.6911 100.527 86.8806 100.615C87.0701 100.704 87.2229 100.856 87.3129 101.045C87.919 102.338 88.2599 105.32 85.2024 107.371C83.2167 108.626 81.3199 110.017 79.5256 111.533C78.6389 112.673 77.8445 113.882 77.1499 115.148C77.0719 115.282 76.9607 115.393 76.8271 115.472C76.6935 115.551 76.5419 115.594 76.3868 115.597Z" fill="#222223"/>
<path d="M59.362 144.138C59.1667 144.135 58.9773 144.071 58.8208 143.954C58.717 143.876 58.6317 143.775 58.5709 143.66C58.5101 143.545 58.4753 143.418 58.4691 143.288L58.0578 135.393C58.0472 135.182 58.1107 134.975 58.2373 134.807C58.3639 134.639 58.5455 134.521 58.7505 134.473C58.8695 134.473 70.7102 131.615 76.6846 127.719C76.8117 127.636 76.9578 127.586 77.1092 127.575C77.2606 127.564 77.4124 127.591 77.5505 127.654C77.687 127.719 77.8053 127.817 77.8949 127.939C77.9846 128.061 78.0429 128.203 78.0646 128.352L79.2119 137.238C79.2279 137.37 79.2149 137.504 79.1738 137.63C79.1326 137.756 79.0644 137.872 78.9737 137.969C78.7519 138.196 77.2961 139.462 69.9796 141.643C68.2425 142.157 59.914 144.035 59.5622 144.116C59.4967 144.132 59.4294 144.139 59.362 144.138ZM59.9031 136.02L60.2224 142.109C62.5657 141.567 68.1613 140.29 69.4872 139.901C74.639 138.364 76.6846 137.33 77.3773 136.919L76.4736 129.932C70.9158 133.12 62.425 135.398 59.8815 136.042L59.9031 136.02Z" fill="#222223"/>
<path d="M144.502 66.627C159.679 66.627 171.982 55.8694 171.982 42.5993C171.982 29.3292 159.679 18.5717 144.502 18.5717C129.325 18.5717 117.021 29.3292 117.021 42.5993C117.021 55.8694 129.325 66.627 144.502 66.627Z" fill="#FD6542"/>
<path d="M144.497 67.3955C128.912 67.3955 116.232 56.2637 116.232 42.5831C116.232 28.9025 128.912 17.7762 144.497 17.7762C160.083 17.7762 172.768 28.9187 172.768 42.5993C172.768 56.28 160.083 67.3955 144.497 67.3955ZM144.497 19.3401C129.778 19.3401 117.802 29.7684 117.802 42.6102C117.802 55.452 129.778 65.8531 144.497 65.8531C159.217 65.8531 171.198 55.4303 171.198 42.6102C171.198 29.79 159.222 19.3564 144.497 19.3564V19.3401Z" fill="#222223"/>
<path d="M165.419 47.4536L173.217 53.1845C173.06 55.3492 172.828 58.6665 172.514 62.6982C172.124 67.7689 172.027 68.5914 172.097 69.8361C172.254 72.7151 173.228 76.947 177.271 82.0069C175.896 82.8678 174.244 83.1681 172.655 82.8457C171.765 82.6327 170.93 82.2331 170.206 81.6733C169.482 81.1136 168.885 80.4064 168.455 79.5987L173.775 90.7954C170.919 91.2024 168.006 90.7817 165.381 89.5832C160.965 87.4185 158.99 83.257 158.2 83.6683C157.783 83.8901 157.821 85.335 159.672 90.5302C159.174 90.4274 155.765 89.6643 154.103 86.4498C153.417 85.0976 153.142 83.5734 153.313 82.0664C153.984 68.375 154.659 54.6871 155.337 41.0029L165.419 47.4536Z" fill="#222223"/>
<path d="M171.668 91.6125C169.391 91.6453 167.137 91.1508 165.082 90.1676C162.333 88.8147 160.515 86.7583 159.313 85.3999C159.113 85.1672 158.88 84.9075 158.68 84.6964C158.778 85.4378 159.135 87.0018 160.304 90.2812C160.345 90.393 160.356 90.5141 160.334 90.6314C160.312 90.7487 160.259 90.8578 160.179 90.9469C160.101 91.037 160 91.1046 159.887 91.1426C159.773 91.1807 159.652 91.1878 159.535 91.1633C158.556 90.9631 155.206 90.0485 153.501 86.7366C152.756 85.273 152.457 83.6227 152.641 81.9906L154.659 40.9488C154.671 40.8352 154.711 40.7264 154.775 40.632C154.84 40.5376 154.926 40.4605 155.027 40.4076C155.132 40.3541 155.249 40.329 155.367 40.3347C155.485 40.3403 155.599 40.3767 155.698 40.4401L165.78 46.934H165.818L173.611 52.665C173.703 52.7321 173.776 52.8214 173.824 52.9245C173.873 53.0276 173.894 53.1412 173.887 53.2548C173.665 56.399 173.432 59.6027 173.183 62.7739C173.124 63.5586 173.07 64.2404 173.021 64.8411C172.772 68.0502 172.712 68.8133 172.767 69.8198C172.978 73.727 174.671 77.6938 177.794 81.6064C177.854 81.68 177.897 81.7654 177.922 81.857C177.946 81.9487 177.951 82.0444 177.935 82.138C177.92 82.2316 177.885 82.3209 177.833 82.3999C177.78 82.479 177.712 82.546 177.632 82.5967C176.108 83.554 174.275 83.8874 172.512 83.5275C171.888 83.3919 171.287 83.1678 170.726 82.8619L174.379 90.5518C174.427 90.6475 174.452 90.7532 174.452 90.8603C174.452 90.9674 174.427 91.073 174.379 91.1687C174.327 91.2625 174.253 91.3425 174.164 91.4018C174.074 91.4611 173.972 91.4981 173.865 91.5097C173.135 91.5866 172.402 91.6209 171.668 91.6125ZM158.323 82.9539C158.934 82.9539 159.519 83.6141 160.325 84.5232C161.456 85.8058 163.161 87.7378 165.677 88.9716C167.881 90.0145 170.321 90.4569 172.75 90.2542L167.847 79.9342C167.785 79.7766 167.784 79.6014 167.845 79.4431C167.905 79.2849 168.023 79.1552 168.175 79.0796C168.327 79.0041 168.501 78.9883 168.664 79.0353C168.827 79.0823 168.966 79.1887 169.054 79.3335C169.439 80.0487 169.972 80.6741 170.616 81.1685C171.261 81.6629 172.003 82.015 172.794 82.2017C173.959 82.4483 175.172 82.3097 176.252 81.8066C173.264 77.8724 171.636 73.8677 171.425 69.901C171.365 68.8187 171.425 68.0286 171.679 64.7437C171.728 64.1485 171.782 63.4666 171.841 62.6765C172.079 59.6406 172.307 56.5668 172.518 53.5362L165.028 48.011L155.947 42.1772L153.983 82.0772C153.985 82.0897 153.985 82.1026 153.983 82.1151C153.829 83.4915 154.079 84.883 154.703 86.1197C155.552 87.6789 156.941 88.8741 158.61 89.4803C156.797 84.1661 157.208 83.4085 157.895 83.0513C158.027 82.98 158.173 82.941 158.323 82.9376V82.9539Z" fill="#222223"/>
<path d="M118.197 43.9685C118.197 43.9685 115.784 61.5076 115.242 65.9397C114.701 70.3718 116.812 83.5221 120.254 87.5862C123.695 91.6504 129.897 93.0736 132.819 92.1158C135.742 91.1579 150.137 86.7312 151.43 84.2689C152.723 81.8066 157.096 75.0691 157.096 75.0691C157.096 75.0691 161.149 76.1515 164.645 71.1728C168.141 66.194 170.095 59.8408 162.757 60.7932L154.493 54.2993C154.782 49.8581 155.067 45.4188 155.348 40.9813C144.665 35.6958 132.756 33.3817 120.871 34.2816C119.979 37.5142 119.088 40.7431 118.197 43.9685Z" fill="#C68A54"/>
<path d="M154.947 54.348C154.947 54.348 156.462 62.5358 155.948 65.4581C155.655 67.1842 154.964 68.8183 153.93 70.2312C153.93 70.2312 158.189 69.2896 160.283 65.8315C162.377 62.3735 162.745 60.7987 162.745 60.7987L162.864 51.9182L154.947 54.348Z" fill="#222223"/>
<path d="M153.93 70.9021C153.804 70.9042 153.679 70.8705 153.571 70.8049C153.463 70.7393 153.375 70.6444 153.319 70.5313C153.262 70.4182 153.239 70.2913 153.251 70.1655C153.264 70.0396 153.311 69.9198 153.389 69.8198C154.354 68.4898 155.004 66.9574 155.288 65.339C155.775 62.5682 154.303 54.5536 154.287 54.4724C154.256 54.3102 154.285 54.142 154.37 54.0002C154.455 53.8584 154.589 53.7529 154.747 53.704L162.686 51.2742C162.788 51.243 162.895 51.2365 163 51.2554C163.104 51.2742 163.203 51.3177 163.287 51.3824C163.371 51.4454 163.439 51.5271 163.486 51.621C163.533 51.715 163.557 51.8185 163.557 51.9236L163.406 60.8095C163.409 60.8563 163.409 60.9033 163.406 60.9502C163.406 61.0205 162.995 62.6656 160.862 66.1778C158.644 69.8415 154.266 70.848 154.076 70.8859L153.93 70.9021ZM155.716 54.8188C156.057 56.7778 157.063 63.0012 156.609 65.5717C156.398 66.7543 156.019 67.9005 155.483 68.9756C157.211 68.2607 158.684 67.0426 159.71 65.4797C161.479 62.5574 161.983 61.0205 162.075 60.7066L162.199 52.8327L155.716 54.8188Z" fill="#222223"/>
<path d="M124.164 35.7212C124.164 35.7212 120.273 50.9658 116.94 53.0384L115.316 61.8648C115.316 61.8648 114.889 77.3637 117.73 82.5751C117.73 82.5751 118.271 85.676 114.326 86.7042C111.885 87.3272 109.39 87.7114 106.874 87.8515C106.874 87.8515 110.787 85.3459 111.631 82.981C112.475 80.6161 108.552 83.6791 105.895 82.6996C103.238 81.7201 105.511 83.9443 108.222 76.395C110.933 68.8458 106.874 75.1287 105.754 76.395C104.634 77.6614 108.135 71.3568 108.552 67.3035C108.969 63.2502 115.782 40.0721 118.764 36.008L124.164 35.7212Z" fill="#222223"/>
<path d="M106.896 88.5441C106.75 88.5453 106.608 88.4989 106.491 88.4118C106.373 88.3247 106.288 88.2017 106.247 88.0615C106.206 87.9213 106.212 87.7716 106.263 87.635C106.315 87.4985 106.41 87.3825 106.534 87.3048C107.568 86.6392 110.376 84.5395 111.015 82.7753C110.744 82.8294 110.392 82.9377 110.106 83.0188C108.861 83.3814 107.156 83.8793 105.684 83.3381C105.398 83.2317 105.105 83.1431 104.808 83.073C104.642 83.0591 104.483 82.9961 104.353 82.892C104.223 82.7879 104.127 82.6475 104.077 82.4885C104.048 82.3282 104.069 82.1629 104.135 82.0143C104.202 81.8657 104.312 81.7405 104.45 81.6551C105.576 80.7243 106.615 78.8789 107.611 76.1731C107.887 75.4047 108.076 74.8202 108.206 74.3765C107.833 74.8364 107.443 75.3506 107.189 75.6861C106.821 76.1731 106.507 76.5898 106.28 76.8442C105.83 77.3529 105.452 77.2825 105.197 77.131C104.656 76.8063 104.894 76.2218 105.04 75.8322C105.154 75.5291 105.333 75.1016 105.538 74.6146C106.328 72.7205 107.654 69.5547 107.892 67.2439C108.325 63.0174 115.23 39.6933 118.201 35.6021C118.26 35.5201 118.336 35.4522 118.424 35.4035C118.512 35.3547 118.61 35.3265 118.71 35.3207L124.122 35.0447C124.225 35.0421 124.327 35.0632 124.421 35.1064C124.515 35.1495 124.598 35.2136 124.663 35.2936C124.73 35.3745 124.777 35.4703 124.799 35.5728C124.822 35.6754 124.82 35.7819 124.793 35.8835C124.398 37.4312 120.913 50.7763 117.53 53.4443L115.983 61.9513C115.983 62.92 115.669 77.4178 118.315 82.272C118.349 82.3347 118.373 82.4023 118.385 82.4723C118.618 83.7602 118.099 86.4336 114.489 87.3427C112.007 87.9782 109.47 88.3715 106.913 88.5171L106.896 88.5441ZM111.334 81.3845C111.488 81.3768 111.643 81.4023 111.786 81.4592C111.93 81.5162 112.06 81.6033 112.167 81.7146C112.638 82.2125 112.373 82.9647 112.286 83.2082C111.794 84.6044 110.398 85.9952 109.207 86.9964C110.876 86.7951 112.531 86.4842 114.159 86.0656C117.124 85.2971 117.13 83.3111 117.076 82.8186C114.251 77.407 114.63 62.5142 114.646 61.881C114.643 61.8468 114.643 61.8124 114.646 61.7782L116.269 52.9518C116.286 52.8601 116.322 52.7728 116.374 52.6955C116.426 52.6183 116.494 52.5526 116.572 52.5026C118.959 51.009 122.017 41.1382 123.272 36.4517L119.121 36.6682C116.226 41.1869 109.64 63.4341 109.234 67.3955C108.951 69.2863 108.434 71.1348 107.697 72.8991C108.374 72.1631 108.861 71.9142 109.359 72.1902C110.154 72.6177 109.867 73.8515 108.866 76.6439C107.757 79.7231 106.702 81.2546 105.998 82.0556L106.139 82.1043C107.221 82.4993 108.59 82.1043 109.716 81.7579C110.237 81.5637 110.781 81.4382 111.334 81.3845Z" fill="#222223"/>
<path d="M122.548 76.4004C122.548 76.4004 130.616 76.3192 137.673 78.998C144.622 81.6281 130.741 86.5743 127.31 84.4096C123.181 81.7363 120.74 76.3734 122.548 76.4004Z" fill="white"/>
<path d="M126.862 59.278C126.516 60.9448 125.623 61.5347 123.956 61.1938C122.29 60.8528 121.088 59.83 121.429 58.1578C121.596 57.3579 122.073 56.6565 122.755 56.2072C123.438 55.758 124.271 55.5973 125.071 55.7605C126.743 56.1231 127.203 57.6545 126.862 59.278Z" fill="#222223"/>
<path d="M124.782 61.9838C124.459 61.9821 124.136 61.9477 123.819 61.8809C121.584 61.4209 120.388 59.9165 120.772 58.0495C120.981 57.0788 121.562 56.2286 122.391 55.6821C123.22 55.1356 124.23 54.9363 125.204 55.1272C127.071 55.5114 127.975 57.2053 127.515 59.4565C127.147 61.1233 126.249 61.9838 124.782 61.9838ZM124.441 56.3881C123.887 56.3879 123.35 56.5789 122.92 56.9289C122.49 57.2788 122.194 57.7664 122.082 58.3093C121.768 59.8353 123.202 60.3711 124.084 60.5497C125.388 60.8203 125.924 60.4685 126.195 59.1589C126.373 58.2768 126.454 56.7507 124.928 56.4531C124.769 56.4153 124.605 56.3936 124.441 56.3881Z" fill="#222223"/>
<path d="M130.26 73.4727C130.192 73.4729 130.124 73.4619 130.06 73.4402C128.513 72.9365 127.064 72.1734 125.774 71.1836C125.086 70.6424 124.599 69.3545 126.97 64.4678C128.193 61.9513 129.643 59.5973 129.675 59.5486C129.721 59.4732 129.781 59.4077 129.852 59.3557C129.923 59.3037 130.003 59.2663 130.089 59.2457C130.175 59.225 130.263 59.2216 130.35 59.2355C130.437 59.2494 130.52 59.2804 130.595 59.3267C130.748 59.4198 130.857 59.5692 130.9 59.7426C130.942 59.9159 130.914 60.0991 130.823 60.2521C130.823 60.2521 129.41 62.5629 128.225 64.9981C126.06 69.414 126.634 70.1337 126.639 70.1446C127.797 71.0204 129.092 71.6987 130.471 72.1523C130.623 72.2012 130.754 72.3028 130.838 72.4388C130.923 72.5749 130.957 72.7366 130.933 72.8951C130.91 73.0536 130.831 73.1987 130.711 73.3045C130.59 73.4103 130.436 73.4699 130.276 73.4727H130.26Z" fill="#222223"/>
<path d="M130.61 93.0142C128.621 92.9986 126.656 92.5669 124.843 91.7467C123.031 90.9266 121.41 89.7361 120.085 88.2519C117.379 85.1998 114.348 73.9111 114.278 66.6812C114.229 61.6646 117.525 44.0605 117.687 43.3137C117.723 43.1357 117.828 42.9793 117.979 42.8788C118.131 42.7784 118.316 42.7421 118.494 42.778C118.672 42.8139 118.828 42.919 118.928 43.0702C119.029 43.2214 119.065 43.4063 119.029 43.5843C118.997 43.7683 115.598 61.8053 115.642 66.692C115.717 74.1059 118.84 84.8047 121.118 87.3807C122.629 89.098 124.575 90.3753 126.752 91.0774C128.929 91.7795 131.255 91.8802 133.484 91.369C139.161 90.0811 149.134 85.5948 150.969 83.4897C152.803 81.3846 156.278 74.5226 156.315 74.4523C156.355 74.3734 156.409 74.3031 156.475 74.2454C156.542 74.1876 156.619 74.1437 156.703 74.116C156.786 74.0883 156.874 74.0775 156.962 74.0841C157.05 74.0907 157.135 74.1147 157.214 74.1546C157.373 74.2348 157.495 74.3748 157.552 74.544C157.608 74.7133 157.596 74.8982 157.517 75.0584C157.371 75.3452 153.94 82.1368 151.986 84.3772C150.033 86.6176 139.772 91.3257 133.781 92.6786C132.74 92.9103 131.677 93.0229 130.61 93.0142Z" fill="#222223"/>
<path d="M153.892 71.0699C153.771 71.0705 153.652 71.038 153.548 70.976C153.444 70.914 153.359 70.8249 153.302 70.7182C153.232 70.5885 153.206 70.4397 153.229 70.2941C153.251 70.1486 153.32 70.0144 153.426 69.9118C154.909 68.4832 155.553 65.4148 155.282 61.0422C155.139 58.875 154.83 56.7221 154.357 54.6023C154.318 54.4288 154.349 54.2468 154.443 54.0959C154.537 53.945 154.687 53.8372 154.86 53.796C155.033 53.7554 155.215 53.7849 155.366 53.8783C155.517 53.9716 155.625 54.1211 155.667 54.2939C155.775 54.7376 157.918 63.9536 155.667 68.9919C157.918 67.8338 161.462 65.0738 162.339 58.9371C162.352 58.8496 162.381 58.7655 162.426 58.6895C162.471 58.6135 162.53 58.5471 162.601 58.4941C162.672 58.4411 162.752 58.4025 162.837 58.3805C162.923 58.3586 163.012 58.3537 163.099 58.3661C163.187 58.3786 163.271 58.4081 163.347 58.453C163.423 58.498 163.489 58.5574 163.542 58.628C163.595 58.6987 163.634 58.779 163.656 58.8645C163.678 58.95 163.683 59.039 163.67 59.1265C162.929 64.2946 160.375 67.2439 158.362 68.8349C157.092 69.8536 155.631 70.608 154.065 71.0537C154.008 71.0661 153.95 71.0715 153.892 71.0699Z" fill="#222223"/>
<path d="M157.036 75.9783C156.901 75.9783 156.771 75.9783 156.657 75.9783C156.569 75.9749 156.482 75.9538 156.402 75.9164C156.322 75.879 156.25 75.8261 156.19 75.7606C156.131 75.6951 156.085 75.6184 156.056 75.535C156.026 75.4516 156.014 75.3631 156.019 75.2748C156.023 75.1866 156.044 75.1002 156.082 75.0203C156.12 74.9405 156.173 74.8689 156.238 74.8096C156.303 74.7503 156.38 74.7044 156.463 74.6747C156.546 74.6449 156.634 74.6319 156.722 74.6362C161.333 74.8689 164.239 70.7723 165.278 68.9973C167.069 65.9343 167.361 63.2447 166.901 62.5033C166.333 61.5996 165.689 61.0909 164.991 60.9881C164.274 60.9423 163.568 61.1771 163.021 61.6429C162.888 61.7613 162.713 61.8218 162.535 61.8112C162.357 61.8005 162.19 61.7195 162.072 61.5861C161.953 61.4526 161.893 61.2775 161.903 61.0994C161.914 60.9213 161.995 60.7547 162.128 60.6363C162.545 60.2792 163.028 60.0086 163.55 59.8405C164.073 59.6723 164.623 59.6099 165.17 59.6568C166.252 59.8138 167.248 60.5281 168.043 61.789C169.077 63.4125 168.043 67.0166 166.458 69.7008C163.178 75.2369 159.022 75.9783 157.036 75.9783Z" fill="#222223"/>
<path d="M148.795 62.5521C148.631 62.5531 148.473 62.4933 148.351 62.3843C148.313 62.3518 144.904 59.343 141.673 58.3905C139.785 57.8494 136.337 59.4295 135.179 60.0952C135.024 60.1834 134.84 60.2065 134.668 60.1593C134.496 60.1121 134.35 59.9985 134.262 59.8435C134.174 59.6885 134.151 59.5048 134.198 59.3328C134.245 59.1608 134.359 59.0145 134.514 58.9263C134.708 58.818 139.238 56.2637 142.063 57.0971C145.591 58.1362 149.098 61.2479 149.255 61.3777C149.357 61.4682 149.43 61.5878 149.463 61.7206C149.495 61.8534 149.487 61.993 149.438 62.1208C149.389 62.2485 149.302 62.3583 149.189 62.4353C149.076 62.5124 148.942 62.5532 148.806 62.5521H148.795Z" fill="#222223"/>
<path d="M146.027 62.8876C145.637 64.7979 143.9 65.3878 141.99 64.9927C140.08 64.5977 139.284 63.4937 139.695 61.5834C140.107 59.6731 141.378 58.3364 143.283 58.7206C143.737 58.8135 144.169 58.995 144.552 59.2549C144.936 59.5147 145.265 59.8477 145.52 60.2348C145.775 60.6219 145.951 61.0554 146.038 61.5106C146.125 61.9659 146.121 62.4338 146.027 62.8876Z" fill="#222223"/>
<path d="M143.074 65.7719C142.665 65.7699 142.257 65.7263 141.856 65.6421C140.891 65.5093 140.017 64.9995 139.426 64.2242C139.177 63.8108 139.016 63.3506 138.951 62.8721C138.887 62.3937 138.922 61.9071 139.053 61.4426C139.227 60.4181 139.735 59.4799 140.498 58.7747C140.896 58.4311 141.37 58.1867 141.881 58.0616C142.391 57.9365 142.925 57.9342 143.436 58.0549C144.523 58.2865 145.474 58.938 146.082 59.8675C146.69 60.797 146.906 61.9292 146.683 63.0174C146.595 63.5336 146.383 64.0208 146.065 64.4373C145.748 64.8538 145.334 65.1873 144.86 65.4094C144.298 65.6583 143.688 65.782 143.074 65.7719ZM142.641 59.3159C142.172 59.3091 141.716 59.4769 141.364 59.7867C140.83 60.3022 140.475 60.9756 140.352 61.7078C140.178 62.2953 140.244 62.9279 140.536 63.4666C140.938 63.9469 141.51 64.2548 142.132 64.327C142.851 64.5042 143.607 64.4551 144.297 64.1863C144.581 64.0518 144.829 63.8499 145.017 63.5981C145.206 63.3463 145.33 63.0522 145.379 62.7414C145.531 62.0002 145.383 61.229 144.967 60.5969C144.551 59.9649 143.901 59.5237 143.16 59.37C142.989 59.3369 142.815 59.3224 142.641 59.3267V59.3159Z" fill="#222223"/>
<path d="M127.688 59.4187C127.552 59.4188 127.419 59.3774 127.306 59.3001C127.194 59.2228 127.108 59.1131 127.06 58.9858C126.519 57.6383 125.29 55.3438 124.176 54.9379C123.337 54.6781 122.442 54.6633 121.595 54.8953C120.749 55.1273 119.986 55.5965 119.397 56.2475C119.336 56.3115 119.264 56.3628 119.183 56.3987C119.102 56.4345 119.015 56.4541 118.927 56.4564C118.839 56.4586 118.751 56.4435 118.669 56.4118C118.587 56.3802 118.511 56.3326 118.447 56.2718C118.383 56.2111 118.332 56.1383 118.296 56.0577C118.26 55.9771 118.241 55.8902 118.239 55.802C118.236 55.7138 118.251 55.6261 118.283 55.5437C118.315 55.4614 118.362 55.3861 118.423 55.3221C119.195 54.486 120.191 53.8886 121.292 53.6009C122.393 53.3131 123.553 53.3471 124.636 53.6986C126.687 54.4454 128.153 58.1091 128.315 58.5258C128.348 58.6082 128.363 58.6962 128.362 58.7847C128.36 58.8732 128.34 58.9604 128.305 59.0414C128.269 59.1224 128.218 59.1955 128.154 59.2565C128.089 59.3176 128.014 59.3653 127.931 59.3971C127.852 59.4172 127.77 59.4245 127.688 59.4187Z" fill="#222223"/>
<path d="M128.544 53.9963C128.441 54.0014 128.339 53.9825 128.245 53.9412C128.151 53.8999 128.068 53.8372 128.002 53.7582C127.242 52.9292 126.347 52.234 125.356 51.7017C124.437 51.166 123.392 50.8837 122.328 50.8837C121.264 50.8837 120.22 51.166 119.3 51.7017C119.145 51.7886 118.961 51.81 118.789 51.7613C118.618 51.7126 118.473 51.5977 118.386 51.442C118.299 51.2863 118.278 51.1024 118.326 50.9309C118.375 50.7594 118.49 50.6143 118.646 50.5274C124.274 47.3887 129.009 52.8815 129.058 52.941C129.171 53.0778 129.227 53.2539 129.211 53.4312C129.196 53.6084 129.112 53.7726 128.976 53.888C128.849 53.9729 128.696 54.0111 128.544 53.9963Z" fill="#222223"/>
<path d="M150.776 58.055C150.629 58.055 150.487 58.0075 150.37 57.9197C142.193 51.7288 135.953 54.2235 135.888 54.2506C135.807 54.2861 135.719 54.3053 135.63 54.307C135.542 54.3087 135.453 54.2928 135.371 54.2604C135.288 54.228 135.213 54.1796 135.149 54.1181C135.085 54.0565 135.033 53.9829 134.998 53.9015C134.962 53.8202 134.943 53.7326 134.942 53.6438C134.94 53.555 134.956 53.4668 134.988 53.3841C135.02 53.3015 135.069 53.226 135.13 53.162C135.192 53.0981 135.266 53.0469 135.347 53.0113C135.628 52.8923 142.382 50.1919 151.154 56.8482C151.267 56.933 151.35 57.051 151.391 57.1856C151.433 57.3201 151.431 57.4643 151.386 57.5978C151.341 57.7313 151.256 57.8473 151.141 57.9294C151.027 58.0114 150.889 58.0553 150.748 58.055H150.776Z" fill="#222223"/>
<path d="M129.901 85.6165C128.872 85.6731 127.848 85.4446 126.941 84.9562C123.975 83.0459 120.723 78.6571 121.34 76.6061C121.41 76.3462 121.567 76.118 121.785 75.9588C122.002 75.7996 122.267 75.7187 122.536 75.7294H122.666C123.748 75.7294 131.2 75.8214 137.91 78.3649C139.389 78.9277 140.172 79.6673 140.259 80.5836C140.345 81.5307 139.663 82.4506 138.235 83.3219C135.68 84.7408 132.822 85.5276 129.901 85.6165ZM122.611 77.0715C122.476 77.959 124.365 81.6984 127.671 83.8198C129.154 84.7777 134.301 84.1337 137.537 82.1963C138.619 81.5523 138.944 81.0166 138.917 80.7297C138.917 80.6053 138.765 80.1561 137.434 79.6474C130.875 77.1364 123.32 77.0715 122.611 77.0715Z" fill="#222223"/>
<path d="M136.272 82.0339C135.628 82.0339 134.925 81.9961 134.156 81.9203C132.961 81.7966 131.774 81.6033 130.601 81.3413C130.515 81.3214 130.433 81.2847 130.362 81.2334C130.29 81.1821 130.229 81.1172 130.182 81.0423C130.135 80.9674 130.104 80.8841 130.089 80.797C130.075 80.71 130.077 80.6209 130.097 80.5349C130.117 80.4489 130.154 80.3677 130.205 80.2959C130.257 80.224 130.321 80.163 130.396 80.1163C130.471 80.0696 130.555 80.038 130.642 80.0235C130.729 80.009 130.818 80.0117 130.904 80.0316C132.598 80.4267 137.398 81.2222 139.129 80.1723C139.206 80.1191 139.292 80.082 139.383 80.0636C139.474 80.0451 139.568 80.0456 139.659 80.065C139.75 80.0844 139.835 80.1224 139.911 80.1764C139.987 80.2305 140.05 80.2996 140.098 80.3793C140.146 80.459 140.176 80.5478 140.188 80.6399C140.2 80.732 140.193 80.8257 140.167 80.9149C140.141 81.0041 140.097 81.0871 140.038 81.1586C139.978 81.2301 139.905 81.2886 139.822 81.3304C138.719 81.8677 137.496 82.11 136.272 82.0339Z" fill="#222223"/>
<path d="M116.323 42.0473C116.323 42.0473 138.911 39.3902 155.79 50.4462C172.669 61.5021 170.564 60.7986 170.564 60.7986C170.564 60.7986 173.221 63.4016 173.085 56.4314C172.95 49.4613 171.965 46.7933 171.965 46.7933C165.395 41.6577 151.726 32.6094 133.066 31.6949C128.459 31.4727 123.84 31.754 119.294 32.5337C118.552 32.7501 116.81 32.8367 116.323 34.2167C115.549 36.311 111.993 42.3071 116.323 42.0473Z" fill="#FD6542"/>
<path d="M171.565 62.0596C170.972 62.0236 170.412 61.7736 169.99 61.3561C169.89 61.2627 169.818 61.1425 169.784 61.0097C169.124 60.4253 166.407 58.358 155.33 51.101C138.895 40.3373 116.61 42.805 116.366 42.8266H116.323C115.154 42.897 114.315 42.5777 113.828 41.8688C112.746 40.3048 113.974 37.5395 114.964 35.3044C115.208 34.7633 115.419 34.2871 115.538 33.9461C116.079 32.393 117.735 32.0521 118.617 31.8681L119.034 31.7761H119.121C123.735 30.9816 128.422 30.6912 133.099 30.9102C150.578 31.7652 164.14 39.6879 172.441 46.1764C172.557 46.2676 172.645 46.3895 172.696 46.5282C172.739 46.6418 173.724 49.3963 173.859 56.4152C173.93 59.6622 173.415 61.421 172.236 61.9243C172.024 62.0156 171.795 62.0617 171.565 62.0596ZM171.321 60.4036C171.403 60.4625 171.502 60.4912 171.603 60.4848C171.603 60.4848 172.344 60.1114 172.274 56.4477C172.155 50.7709 171.473 47.9947 171.262 47.2479C163.144 40.9271 149.934 33.2913 133.001 32.4633C128.464 32.2515 123.917 32.5327 119.44 33.3021C119.294 33.34 119.126 33.3779 118.953 33.4104C118.044 33.5998 117.27 33.8108 117.032 34.4927C116.891 34.8932 116.674 35.3856 116.415 35.9647C115.809 37.323 114.548 40.1587 115.132 40.9975C115.322 41.2735 115.825 41.306 116.214 41.2843C120.716 40.8719 125.246 40.89 129.744 41.3384C136.909 41.9986 147.31 44.0064 156.163 49.8022C162.116 53.704 166.38 56.583 168.832 58.3526C170.352 59.4133 171.078 59.9653 171.321 60.4036Z" fill="#222223"/>
<path d="M168.021 58.7368C167.955 58.7358 167.889 58.7267 167.826 58.7097C167.628 58.6541 167.461 58.5229 167.36 58.3446C167.258 58.1664 167.231 57.9553 167.285 57.7573C168.275 53.8988 167.285 47.1992 167.285 47.1343C167.269 47.0323 167.274 46.9282 167.298 46.828C167.323 46.7278 167.367 46.6334 167.428 46.5503C167.489 46.4671 167.566 46.3968 167.654 46.3433C167.742 46.2898 167.84 46.2543 167.942 46.2386C168.044 46.223 168.148 46.2276 168.248 46.2522C168.349 46.2768 168.443 46.3208 168.526 46.3819C168.609 46.4429 168.68 46.5198 168.733 46.608C168.786 46.6963 168.822 46.7942 168.838 46.8961C168.881 47.183 169.893 53.98 168.838 58.1469C168.791 58.325 168.685 58.4814 168.535 58.5891C168.386 58.6967 168.204 58.749 168.021 58.7368Z" fill="#222223"/>
<path d="M163.405 56.2854C163.255 56.2841 163.109 56.241 162.983 56.1609C162.808 56.0488 162.685 55.8719 162.64 55.669C162.595 55.4661 162.633 55.2538 162.745 55.0786C164.07 53.0005 162.707 46.9232 162.068 44.7586C162.017 44.5615 162.044 44.3522 162.145 44.175C162.245 43.9979 162.41 43.8666 162.606 43.809C162.801 43.7514 163.011 43.7719 163.191 43.8663C163.372 43.9607 163.508 44.1215 163.573 44.3148C163.832 45.1807 166.019 52.8706 164.065 55.9228C163.995 56.0341 163.897 56.1257 163.782 56.1891C163.666 56.2526 163.536 56.2857 163.405 56.2854Z" fill="#222223"/>
<path d="M127.416 29.7468C127.265 29.7403 127.119 29.6905 126.995 29.6033C126.871 29.5161 126.775 29.3952 126.718 29.2549C126.661 29.1147 126.646 28.961 126.674 28.8122C126.701 28.6634 126.771 28.5257 126.875 28.4155C126.929 28.3614 128.169 27.0788 129.749 25.7638C131.989 23.8968 133.683 22.9552 134.939 22.8848C135.042 22.8791 135.145 22.8938 135.242 22.928C135.34 22.9621 135.429 23.0152 135.506 23.084C135.583 23.1529 135.646 23.2362 135.69 23.3292C135.735 23.4222 135.761 23.5231 135.767 23.6262C135.772 23.7292 135.758 23.8324 135.723 23.9298C135.689 24.0272 135.636 24.1168 135.567 24.1937C135.499 24.2706 135.415 24.3332 135.322 24.3779C135.229 24.4226 135.128 24.4485 135.025 24.4542C133.402 24.5408 129.846 27.5983 127.99 29.5032C127.916 29.5806 127.827 29.6421 127.728 29.6839C127.63 29.7258 127.524 29.7472 127.416 29.7468Z" fill="#222223"/>
<path d="M133.597 29.8171C133.44 29.8171 133.287 29.7701 133.157 29.6822C133.027 29.5942 132.927 29.4694 132.869 29.3238C132.81 29.1782 132.797 29.0185 132.831 28.8652C132.864 28.712 132.942 28.5723 133.056 28.4642C134.431 27.1545 139.068 22.8848 140.935 22.8848C141.143 22.8848 141.343 22.9674 141.49 23.1146C141.637 23.2618 141.72 23.4613 141.72 23.6695C141.72 23.8776 141.637 24.0772 141.49 24.2243C141.343 24.3715 141.143 24.4541 140.935 24.4541C140.107 24.4541 136.752 27.1167 134.138 29.6006C133.993 29.7405 133.799 29.8182 133.597 29.8171Z" fill="#222223"/>
<path d="M180.674 131.621C180.674 131.621 171.712 167.565 172.378 179.378C173.044 191.192 145.417 202.968 143.637 218.58" stroke="#222223" stroke-width="4" stroke-linecap="round" stroke-linejoin="round"/>
<path d="M170.721 185.093C170.721 185.093 181.073 177.576 189.12 185.093" stroke="#222223" stroke-width="4" stroke-linecap="round" stroke-linejoin="round"/>
<path d="M78.8153 50.3705C86.7235 50.3705 93.1345 43.9596 93.1345 36.0513C93.1345 28.143 86.7235 21.7321 78.8153 21.7321C70.907 21.7321 64.4961 28.143 64.4961 36.0513C64.4961 43.9596 70.907 50.3705 78.8153 50.3705Z" fill="white"/>
<path fill-rule="evenodd" clip-rule="evenodd" d="M78.7462 44.6287C82.1263 42.1542 85.1067 39.1756 87.5834 35.797C87.8477 35.3834 87.993 34.9052 88.0035 34.4145C88.014 33.9239 87.8893 33.4398 87.6429 33.0154C86.1838 30.6707 84.1665 28.7241 81.7713 27.3494C81.332 27.1231 80.8419 27.0138 80.3481 27.0318C79.8543 27.0498 79.3735 27.1946 78.9518 27.4522C75.5705 29.9254 72.5899 32.9042 70.1146 36.284C69.5194 37.0687 69.4165 38.1402 70.0876 38.7788C70.2947 38.9789 70.5501 39.122 70.8289 39.1941C71.1077 39.2662 71.4005 39.2648 71.6786 39.19C71.6175 39.4715 71.6299 39.764 71.7146 40.0394C71.7993 40.3147 71.9534 40.5636 72.1622 40.762C72.371 40.9605 72.6274 41.1018 72.9066 41.1724C73.1859 41.2431 73.4786 41.2406 73.7567 41.1653C73.6936 41.4466 73.7043 41.7394 73.7877 42.0153C73.8712 42.2912 74.0245 42.5409 74.2329 42.7401C74.4422 42.9384 74.6988 43.0799 74.9783 43.1509C75.2577 43.222 75.5507 43.2203 75.8293 43.146C75.7658 43.4277 75.7768 43.7211 75.8613 43.9972C75.9458 44.2734 76.1007 44.5227 76.311 44.7207C76.6653 44.9884 77.1012 45.1255 77.545 45.1087C77.9887 45.0919 78.4131 44.9224 78.7462 44.6287ZM83.3894 33.3022L77.902 33.3509C77.7613 33.3508 77.6221 33.379 77.4926 33.4338C77.363 33.4886 77.2458 33.5688 77.1479 33.6698C77.05 33.7707 76.9733 33.8903 76.9225 34.0215C76.8717 34.1526 76.8478 34.2926 76.8521 34.4332C76.8521 35.0177 78.1022 36.0567 78.1022 36.0567H75.2016C75.0609 36.0566 74.9217 36.0848 74.7922 36.1396C74.6626 36.1944 74.5454 36.2746 74.4475 36.3756C74.3496 36.4766 74.2729 36.5962 74.2221 36.7273C74.1713 36.8584 74.1474 36.9985 74.1517 37.139C74.1517 37.4261 74.2658 37.7014 74.4687 37.9044C74.6717 38.1073 74.947 38.2214 75.2341 38.2214L80.6998 38.1727C80.8404 38.1727 80.9797 38.1445 81.1092 38.0898C81.2387 38.035 81.356 37.9547 81.4539 37.8538C81.5518 37.7528 81.6284 37.6332 81.6793 37.5021C81.7301 37.3709 81.754 37.2309 81.7497 37.0903C81.7497 36.5059 80.5374 35.4668 80.5374 35.4668H83.4219C83.7032 35.4584 83.9703 35.3407 84.1663 35.1386C84.3623 34.9365 84.4718 34.666 84.4717 34.3845C84.4717 34.0975 84.3577 33.8222 84.1547 33.6192C83.9517 33.4162 83.6764 33.3022 83.3894 33.3022Z" fill="#5786CC"/>
<path d="M202.38 101.905C210.288 101.905 216.699 95.4945 216.699 87.5863C216.699 79.678 210.288 73.2671 202.38 73.2671C194.471 73.2671 188.061 79.678 188.061 87.5863C188.061 95.4945 194.471 101.905 202.38 101.905Z" fill="white"/>
<path fill-rule="evenodd" clip-rule="evenodd" d="M210.033 91.4502C209.317 87.3226 207.968 83.3304 206.034 79.6149C205.782 79.1939 205.419 78.8507 204.984 78.6234C204.55 78.3961 204.061 78.2935 203.571 78.3269C200.819 78.588 198.175 79.529 195.876 81.0652C195.479 81.36 195.164 81.7515 194.962 82.2024C194.759 82.6533 194.675 83.1486 194.718 83.6412C195.438 87.7674 196.787 91.7588 198.717 95.4764C199.161 96.3585 200.076 96.9267 200.947 96.6074C201.219 96.5103 201.461 96.3448 201.651 96.1268C201.84 95.9088 201.971 95.6457 202.029 95.3628C202.254 95.5427 202.522 95.6616 202.806 95.708C203.09 95.7544 203.382 95.7269 203.653 95.6279C203.925 95.5294 204.167 95.3628 204.357 95.1439C204.546 94.9251 204.676 94.6613 204.735 94.3778C204.96 94.5608 205.228 94.6825 205.514 94.7309C205.799 94.7794 206.093 94.753 206.365 94.6544C206.638 94.5558 206.88 94.3882 207.068 94.1681C207.257 93.948 207.385 93.6828 207.441 93.3983C207.666 93.5773 207.934 93.6956 208.218 93.742C208.502 93.7884 208.793 93.7614 209.064 93.6635C209.455 93.4611 209.764 93.131 209.94 92.7282C210.116 92.3253 210.149 91.8742 210.033 91.4502ZM201.959 82.2504L199.551 87.1912C199.433 87.4453 199.419 87.735 199.511 87.9994C199.603 88.2637 199.794 88.4822 200.043 88.609C200.584 88.8634 202.067 88.214 202.067 88.214L200.795 90.8224C200.734 90.9473 200.698 91.0832 200.689 91.2221C200.681 91.361 200.7 91.5003 200.746 91.6317C200.792 91.7631 200.863 91.8841 200.956 91.9877C201.049 92.0912 201.162 92.1752 201.288 92.2348C201.544 92.3549 201.836 92.37 202.103 92.277C202.37 92.1839 202.59 91.9901 202.716 91.737L205.114 86.8178C205.231 86.5636 205.245 86.274 205.153 86.0096C205.061 85.7453 204.871 85.5268 204.621 85.3999C204.08 85.1456 202.614 85.7625 202.614 85.7625L203.874 83.1649C203.936 83.0401 203.972 82.9042 203.98 82.7653C203.989 82.6263 203.97 82.4871 203.924 82.3556C203.878 82.2242 203.807 82.1032 203.714 81.9997C203.62 81.8961 203.508 81.8121 203.382 81.7525C203.124 81.6356 202.83 81.6246 202.564 81.7217C202.298 81.8188 202.081 82.0164 201.959 82.272V82.2504Z" fill="#5786CC"/>
<path d="M207.747 49.5533C215.655 49.5533 222.066 43.1424 222.066 35.2341C222.066 27.3258 215.655 20.9149 207.747 20.9149C199.839 20.9149 193.428 27.3258 193.428 35.2341C193.428 43.1424 199.839 49.5533 207.747 49.5533Z" fill="white"/>
<path fill-rule="evenodd" clip-rule="evenodd" d="M211.51 42.9403C213.434 39.2184 214.773 35.2231 215.483 31.0942C215.537 30.6076 215.456 30.1154 215.247 29.6721C215.039 29.2289 214.712 28.852 214.303 28.5832C211.95 27.1209 209.27 26.2672 206.505 26.0993C206.011 26.0939 205.524 26.2149 205.09 26.4507C204.656 26.6866 204.29 27.0295 204.026 27.4468C202.101 31.1681 200.759 35.1636 200.049 39.2929C199.87 40.2615 200.254 41.2681 201.131 41.5441C201.408 41.6322 201.704 41.6465 201.989 41.5858C202.273 41.5251 202.537 41.3913 202.754 41.1978C202.826 41.4768 202.968 41.7328 203.167 41.9413C203.366 42.1498 203.614 42.3037 203.89 42.3885C204.165 42.4732 204.458 42.4858 204.739 42.4251C205.021 42.3645 205.282 42.2325 205.498 42.042C205.568 42.3214 205.709 42.5781 205.907 42.7874C206.105 42.9966 206.353 43.1514 206.628 43.2368C206.904 43.3221 207.196 43.3352 207.478 43.2748C207.759 43.2143 208.021 43.0823 208.236 42.8916C208.306 43.171 208.446 43.4277 208.645 43.6364C208.843 43.8451 209.092 43.9987 209.367 44.0822C209.802 44.1687 210.252 44.1023 210.643 43.8941C211.034 43.686 211.34 43.3489 211.51 42.9403ZM210.628 30.7479L205.72 33.2264C205.596 33.2889 205.485 33.3754 205.394 33.4811C205.304 33.5867 205.235 33.7093 205.192 33.8418C205.149 33.9742 205.133 34.1138 205.145 34.2525C205.157 34.3912 205.196 34.5262 205.26 34.6497C205.525 35.1908 207.105 35.5642 207.105 35.5642L204.535 36.8684C204.287 37 204.101 37.2224 204.014 37.4889C203.927 37.7553 203.947 38.0451 204.07 38.2971C204.201 38.5473 204.425 38.7361 204.694 38.8231C204.963 38.9101 205.256 38.8883 205.509 38.7625L210.379 36.2894C210.504 36.2274 210.616 36.1412 210.707 36.0358C210.798 35.9303 210.867 35.8078 210.911 35.6753C210.954 35.5428 210.97 35.4031 210.959 35.2641C210.948 35.1252 210.909 34.9899 210.845 34.8661C210.574 34.325 209.027 33.9408 209.027 33.9408L211.602 32.6365C211.849 32.505 212.034 32.2836 212.121 32.0184C212.208 31.7532 212.189 31.4648 212.068 31.2133C211.936 30.9631 211.712 30.7743 211.443 30.6873C211.174 30.6003 210.882 30.6221 210.628 30.7479Z" fill="#5786CC"/>
</g>
</svg>
