<svg width="263" height="216" viewBox="0 0 263 216" fill="none" xmlns="http://www.w3.org/2000/svg">
<rect width="263" height="215" rx="16" fill="#FEC1B3"/>
<mask id="mask0_2870_9984" style="mask-type:alpha" maskUnits="userSpaceOnUse" x="0" y="0" width="263" height="216">
<path d="M250.856 0.467773H12.1437C5.43692 0.467773 0 5.9047 0 12.6115V203.323C0 210.03 5.43692 215.467 12.1437 215.467H250.856C257.563 215.467 263 210.03 263 203.323V12.6115C263 5.9047 257.563 0.467773 250.856 0.467773Z" fill="#FEC1B2"/>
</mask>
<g mask="url(#mask0_2870_9984)">
<path d="M89.5028 273.593C89.5028 273.593 88.3177 245.404 91.8027 233.958C95.2878 222.513 109.12 206.278 109.12 206.278L166.213 207.122C166.213 207.122 178.254 222.588 178.892 238.509C179.531 254.43 177.81 273.598 177.81 273.598L89.5028 273.593Z" fill="#222223"/>
<path d="M114.666 117.592C122.765 117.592 129.331 111.026 129.331 102.926C129.331 94.8266 122.765 88.2606 114.666 88.2606C106.566 88.2606 100 94.8266 100 102.926C100 111.026 106.566 117.592 114.666 117.592Z" fill="#222223"/>
<path d="M113.698 98.743C118.008 98.743 121.502 95.2492 121.502 90.9394C121.502 86.6296 118.008 83.1359 113.698 83.1359C109.388 83.1359 105.895 86.6296 105.895 90.9394C105.895 95.2492 109.388 98.743 113.698 98.743Z" fill="#FD6542"/>
<path d="M78.5098 167.687C78.5098 167.687 79.5542 196.228 81.9029 199.881C84.2515 203.534 89.6523 207.198 93.3539 206.916C97.0554 206.635 103.365 207.944 105.481 200.384C107.597 192.824 105.287 173.066 105.481 172.244C105.676 171.421 78.5098 167.687 78.5098 167.687Z" fill="#FCCA95"/>
<path d="M92.9772 207.869C91.1319 207.869 88.9023 207.095 86.6402 205.655C84.4646 204.299 82.5942 202.506 81.1474 200.39C78.7338 196.629 77.7164 170.685 77.6082 167.736C77.6027 167.605 77.6266 167.474 77.6781 167.353C77.7296 167.232 77.8074 167.125 77.9058 167.038C78.0025 166.949 78.1177 166.882 78.243 166.843C78.3684 166.804 78.5008 166.793 78.631 166.81C78.7013 166.81 85.2981 167.725 91.8895 168.732C105.603 170.82 105.884 171.237 106.214 171.713C106.355 171.915 106.412 172.164 106.371 172.406C106.371 172.704 106.463 174.084 106.571 175.545C107.037 181.774 108.011 194.734 106.349 200.666C104.369 207.744 98.8434 207.782 95.1852 207.809C94.5466 207.809 93.9459 207.809 93.421 207.852C93.2749 207.863 93.1288 207.869 92.9772 207.869ZM79.4481 168.748C79.8973 180.112 81.0716 196.959 82.6572 199.41C84.9951 203.047 90.1578 206.278 93.2857 206.05C93.8701 206.012 94.5033 206.007 95.1689 206.002C98.838 206.002 102.994 205.947 104.607 200.179C106.182 194.556 105.229 181.779 104.769 175.68C104.656 174.159 104.591 173.315 104.574 172.807C101.939 172.016 88.491 169.998 79.4535 168.769L79.4481 168.748ZM106.366 172.401C106.366 172.401 106.366 172.433 106.366 172.449C106.366 172.466 106.366 172.444 106.371 172.422L106.366 172.401Z" fill="#222223"/>
<path d="M168.41 184.945C171.457 201.445 174.276 208.929 176.408 212.642C177.222 213.943 177.678 215.437 177.729 216.971C177.783 222.724 171.186 227.01 170.401 227.502C164.449 231.29 159.421 229.174 147.223 228.503C131.481 227.637 129.76 230.581 113.747 228.931C97.393 227.248 95.6775 223.811 95.2878 222.496C94.5032 219.823 96.4946 216.841 98.2913 214.769C97.7068 203.707 97.1206 192.648 96.5325 181.59L74.8535 178.976C75.898 163.558 76.3417 152.892 76.4229 145.018C76.3917 141.407 76.8301 137.807 77.7271 134.308C79.0535 129.281 81.2973 124.542 84.3455 120.33C89.4357 114.688 95.6669 110.193 102.626 107.142C106.67 105.385 110.919 104.143 115.273 103.446L115.922 103.641C117.36 106.638 119.631 109.158 122.464 110.898C125.297 112.637 128.571 113.523 131.895 113.449C135.218 113.374 138.45 112.343 141.202 110.479C143.954 108.615 146.111 105.996 147.413 102.937C150.476 102.488 160.715 107.131 160.715 107.131C160.715 107.131 171.538 111.401 173.637 114.935C176.235 119.296 179.228 132.598 179.228 132.598C181.266 138.302 183.304 144.01 185.343 149.721L169.324 171.519C169.021 176.003 168.717 180.479 168.41 184.945Z" fill="#8FAEDD"/>
<path d="M94.6051 175.572C94.4552 175.515 94.2949 175.492 94.135 175.503C93.9751 175.513 93.8194 175.558 93.6784 175.634C93.5374 175.71 93.4143 175.816 93.3175 175.943C93.2206 176.071 93.1523 176.218 93.1172 176.374C93.082 176.531 93.0808 176.693 93.1136 176.85C93.1464 177.006 93.2124 177.154 93.3073 177.283C93.4022 177.413 93.5236 177.52 93.6635 177.598C93.8034 177.676 93.9584 177.723 94.1181 177.737L94.6051 175.572ZM102.484 191.498C102.573 191.756 102.753 191.972 102.99 192.106C103.226 192.24 103.504 192.283 103.77 192.226C104.036 192.169 104.273 192.017 104.435 191.799C104.597 191.58 104.673 191.31 104.649 191.038L102.484 191.498ZM94.367 176.643L94.1235 177.726H94.1884L94.3941 177.775L95.1571 177.975C95.7903 178.153 96.6291 178.413 97.4679 178.743C98.2547 179.033 99.0048 179.415 99.7029 179.88C100.331 180.329 100.471 180.643 100.488 180.756L102.706 180.513C102.61 180.008 102.408 179.528 102.115 179.106C101.821 178.683 101.442 178.328 101.002 178.061C100.158 177.49 99.25 177.022 98.2959 176.665C97.3597 176.297 96.4451 176.016 95.7686 175.821L94.9407 175.604L94.7079 175.545H94.643L94.367 176.643ZM100.488 180.783C100.628 182.071 101.137 184.777 101.597 187.104C101.824 188.278 102.052 189.377 102.219 190.183C102.3 190.584 102.365 190.914 102.414 191.141C102.414 191.255 102.457 191.347 102.468 191.401V191.498L103.551 191.266L104.633 191.038V190.946C104.633 190.887 104.6 190.8 104.579 190.687C104.53 190.459 104.46 190.146 104.379 189.729C104.216 188.933 103.994 187.84 103.762 186.671C103.296 184.312 102.809 181.709 102.679 180.54L100.488 180.783Z" fill="#222223"/>
<path d="M84.7568 131.429C84.6248 131.352 84.4784 131.303 84.3266 131.285C84.1748 131.266 84.0209 131.279 83.8743 131.323C83.7278 131.366 83.5916 131.439 83.4743 131.537C83.357 131.635 83.261 131.756 83.1922 131.893C83.1234 132.029 83.0832 132.178 83.0742 132.331C83.0652 132.484 83.0875 132.636 83.1398 132.78C83.1921 132.924 83.2732 133.055 83.3782 133.166C83.4832 133.277 83.6098 133.366 83.7503 133.426L84.7568 131.429ZM101.933 151.063H103.054C103.053 150.914 103.022 150.766 102.962 150.63L101.933 151.063ZM100.813 175.356C100.813 175.503 100.842 175.648 100.898 175.784C100.955 175.92 101.037 176.044 101.141 176.148C101.245 176.252 101.369 176.334 101.505 176.39C101.641 176.447 101.786 176.476 101.933 176.476C102.08 176.476 102.226 176.447 102.362 176.39C102.498 176.334 102.621 176.252 102.725 176.148C102.829 176.044 102.912 175.92 102.968 175.784C103.025 175.648 103.054 175.503 103.054 175.356H100.813ZM83.7503 133.426C88.9369 136.135 93.4195 140.017 96.841 144.764C97.9735 146.297 99.0022 147.904 99.9202 149.574C100.256 150.191 100.499 150.657 100.662 151.014L100.835 151.393L100.878 151.49L101.906 151.052L102.935 150.619V150.57C102.914 150.533 102.896 150.495 102.88 150.457C102.837 150.354 102.772 150.213 102.68 150.029C102.507 149.661 102.242 149.131 101.89 148.487C100.925 146.724 99.8404 145.03 98.6431 143.416C95.0105 138.394 90.2555 134.29 84.7568 131.429L83.7503 133.426ZM100.813 151.063V175.356H103.054V151.074L100.813 151.063Z" fill="#222223"/>
<path d="M95.6077 132.836C95.4914 132.567 95.274 132.354 95.0022 132.243C94.7303 132.132 94.4259 132.132 94.1543 132.244C93.8827 132.355 93.6657 132.568 93.5499 132.838C93.434 133.108 93.4287 133.412 93.535 133.686L95.6077 132.836ZM100.889 151.539C100.938 151.685 101.016 151.819 101.118 151.933C101.221 152.048 101.346 152.14 101.485 152.204C101.625 152.268 101.776 152.303 101.93 152.306C102.084 152.309 102.236 152.28 102.378 152.222C102.521 152.164 102.649 152.077 102.756 151.966C102.863 151.856 102.946 151.725 103.001 151.581C103.055 151.438 103.079 151.284 103.071 151.131C103.064 150.977 103.025 150.827 102.957 150.689L100.889 151.539ZM93.535 133.68L100.889 151.539L102.957 150.689L95.6077 132.831L93.535 133.68Z" fill="#222223"/>
<path d="M151.93 193.046C152.007 193.171 152.109 193.28 152.228 193.366C152.347 193.452 152.483 193.513 152.626 193.547C152.769 193.581 152.918 193.586 153.063 193.562C153.208 193.538 153.347 193.486 153.472 193.409C153.597 193.331 153.706 193.23 153.792 193.111C153.878 192.991 153.939 192.856 153.973 192.713C154.007 192.569 154.012 192.421 153.988 192.276C153.964 192.131 153.912 191.992 153.835 191.866L151.93 193.046ZM118.486 192.467L118.199 191.385L118.486 192.467ZM107.939 195.232C107.814 195.31 107.705 195.411 107.619 195.531C107.533 195.65 107.472 195.785 107.438 195.929C107.404 196.072 107.399 196.22 107.423 196.365C107.447 196.511 107.499 196.65 107.576 196.775C107.654 196.9 107.755 197.008 107.874 197.094C107.994 197.18 108.129 197.242 108.272 197.276C108.415 197.309 108.564 197.314 108.709 197.291C108.854 197.267 108.993 197.215 109.118 197.137L107.939 195.232ZM152.855 192.456L153.802 191.866C153.802 191.866 153.802 191.866 153.802 191.829L153.721 191.71C153.632 191.573 153.537 191.441 153.434 191.314C153.109 190.91 152.747 190.536 152.352 190.2C151.475 189.458 149.971 188.576 148.223 189.318L149.072 191.385C149.646 191.152 150.252 191.352 150.907 191.926C151.187 192.161 151.441 192.426 151.665 192.716C151.739 192.806 151.807 192.9 151.87 192.997L151.919 193.068L152.855 192.456ZM148.201 189.301C147.027 189.846 145.941 190.565 144.981 191.434C144.072 192.175 143.526 192.565 142.99 192.651L143.336 194.859C144.575 194.664 145.593 193.82 146.399 193.165C147.189 192.438 148.083 191.833 149.051 191.369L148.201 189.301ZM142.99 192.651H142.611C142.384 192.651 142.07 192.651 141.713 192.651C140.982 192.624 140.019 192.57 138.893 192.494C136.647 192.348 133.801 192.132 130.938 191.921C128.075 191.71 125.213 191.509 122.934 191.379C121.798 191.32 120.77 191.282 120.017 191.271C119.628 191.271 119.276 191.271 118.989 191.271C118.721 191.28 118.455 191.314 118.194 191.374L118.767 193.539C118.767 193.539 118.843 193.539 119.097 193.539C119.352 193.539 119.639 193.539 119.99 193.539C120.726 193.539 121.69 193.587 122.815 193.647C125.066 193.766 127.918 193.966 130.776 194.188C133.633 194.41 136.49 194.616 138.747 194.762C139.878 194.832 140.863 194.892 141.626 194.919C142.195 194.962 142.767 194.962 143.336 194.919L142.99 192.651ZM118.188 191.385C115.549 192.067 112.963 192.938 110.45 193.993C109.616 194.356 108.999 194.653 108.583 194.87L108.112 195.124L107.987 195.2L107.933 195.232L108.523 196.185L109.113 197.137L109.2 197.089C109.286 197.04 109.416 196.964 109.6 196.872C109.963 196.677 110.531 196.401 111.316 196.066C113.731 195.055 116.216 194.217 118.751 193.56L118.188 191.385Z" fill="#EE255C"/>
<path d="M155.946 195.433C156.029 195.72 156.223 195.962 156.485 196.106C156.747 196.25 157.055 196.284 157.342 196.201C157.629 196.118 157.871 195.924 158.015 195.662C158.16 195.4 158.194 195.092 158.11 194.805L155.946 195.433ZM152.244 191.645C152.008 191.816 151.848 192.072 151.798 192.359C151.748 192.646 151.812 192.942 151.976 193.182C152.14 193.423 152.391 193.591 152.677 193.649C152.963 193.708 153.26 193.652 153.505 193.495L152.244 191.645ZM158.094 194.816C157.839 193.783 157.33 192.83 156.611 192.045C156.069 191.475 155.339 191.121 154.555 191.049C154.002 191.007 153.447 191.09 152.932 191.293C152.768 191.355 152.609 191.43 152.455 191.515L152.315 191.596L152.266 191.628L152.894 192.554L153.527 193.479L153.57 193.452C153.636 193.415 153.705 193.382 153.776 193.355C153.969 193.276 154.179 193.242 154.387 193.257C154.645 193.287 154.883 193.408 155.058 193.598C155.511 194.121 155.827 194.747 155.978 195.422L158.094 194.816Z" fill="#222223"/>
<path d="M177.75 144.877L165.731 156.242L166.516 160.073L102.117 197.998C102.117 197.998 137.634 193.165 149.004 193.56C160.373 193.955 179.525 195.26 183.14 191.991C186.755 188.722 192.881 186.779 191.452 176.784C190.024 166.789 177.75 144.877 177.75 144.877Z" fill="#FCCA95"/>
<path d="M102.105 198.929C101.907 198.93 101.713 198.866 101.555 198.746C101.396 198.626 101.282 198.457 101.23 198.265C101.179 198.074 101.192 197.87 101.268 197.687C101.344 197.503 101.478 197.35 101.651 197.251L165.508 159.651L164.853 156.453C164.814 156.222 164.867 155.985 164.999 155.792C165.131 155.598 165.334 155.464 165.563 155.417C165.792 155.37 166.031 155.414 166.229 155.54C166.426 155.665 166.568 155.863 166.623 156.09L167.407 159.922C167.446 160.106 167.425 160.298 167.348 160.469C167.271 160.641 167.143 160.785 166.98 160.879L106.391 196.553C116.295 195.27 139.992 192.375 149.024 192.684L153.846 192.873C164.128 193.301 179.654 193.955 182.528 191.347C183.242 190.703 184.027 190.129 184.849 189.518C188.188 187.056 191.641 184.512 190.553 176.941C189.157 167.2 177.089 145.554 176.964 145.316C176.845 145.105 176.815 144.855 176.88 144.622C176.945 144.388 177.1 144.19 177.311 144.071C177.522 143.952 177.771 143.921 178.005 143.986C178.238 144.051 178.436 144.206 178.555 144.417C178.588 144.471 181.673 150.002 184.892 156.685C189.222 165.707 191.749 172.428 192.355 176.665C193.6 185.324 189.352 188.441 185.937 190.957C185.147 191.536 184.405 192.083 183.772 192.673C180.612 195.53 168.858 195.281 153.813 194.659L149.003 194.469C137.849 194.085 102.625 198.858 102.273 198.907L102.105 198.929Z" fill="#222223"/>
<path d="M154.917 40.9305C158.364 51.2614 161.822 65.6617 160.383 79.8943C160.058 83.1413 159.425 86.8645 156.562 89.592C150.117 95.7233 137.935 91.5077 136.301 90.9232C134.277 85.4647 132.255 80.0025 130.234 74.5368L154.917 40.9305Z" fill="#222223"/>
<path d="M97.6738 58.0421C99.5192 47.0836 99.714 34.4528 108.27 26.8603C114.623 21.2322 122.129 19.284 130.614 19.1541C134.792 19.073 139.619 20.7127 143.375 22.5472C148.522 25.0636 150.978 30.6647 153.695 35.6921C159.134 45.801 159.383 59.92 156.358 64.0328L114.293 89.619C105.337 85.6306 99.7952 84.1641 97.7063 72.6752C96.8459 67.8364 96.8349 62.8847 97.6738 58.0421Z" fill="#222223"/>
<path d="M116.577 79.2829C117.352 81.8475 117.922 84.4696 118.282 87.1243C118.991 92.3141 120.111 100.561 115.922 103.662C115.347 104.081 114.702 104.394 114.018 104.588C114.127 105.237 114.282 105.877 114.483 106.503C116.604 113.079 123.142 116.212 123.888 116.353C130.983 117.776 139.517 118.111 143.435 112.884L143.538 112.743C146.352 108.901 147.375 105.757 147.748 103.484C146.985 103.392 145.383 103.078 144.426 101.784C144.075 101.303 143.84 100.748 143.738 100.161C143.154 97.2711 143.278 93.2341 143.332 91.8324C142.523 89.8247 141.383 87.9664 139.961 86.3342C132.141 77.3996 118.58 79.0177 116.577 79.2829Z" fill="#FCCA95"/>
<path d="M116.577 79.2829C117.352 81.8475 117.922 84.4696 118.282 87.1243C118.991 92.3141 120.111 100.561 115.922 103.662C115.347 104.081 114.702 104.394 114.018 104.588C114.127 105.237 114.282 105.877 114.483 106.503C116.604 113.079 123.142 116.212 123.888 116.353C130.983 117.776 139.517 118.111 143.435 112.884L143.538 112.743C146.352 108.901 147.375 105.757 147.748 103.484C146.985 103.392 145.383 103.078 144.426 101.784C144.075 101.303 143.84 100.748 143.738 100.161C143.154 97.2711 143.278 93.2341 143.332 91.8324C142.523 89.8247 141.383 87.9664 139.961 86.3342C132.141 77.3996 118.58 79.0177 116.577 79.2829Z" fill="#FCCA95"/>
<path d="M114.017 105.491C113.801 105.489 113.593 105.409 113.43 105.267C113.268 105.124 113.162 104.928 113.132 104.714C113.102 104.499 113.149 104.282 113.266 104.1C113.383 103.918 113.561 103.784 113.768 103.722C114.351 103.557 114.901 103.292 115.392 102.937C119.147 100.155 118.049 92.0705 117.394 87.2433C117.037 84.6369 116.478 82.0622 115.722 79.5425C115.683 79.4182 115.672 79.2868 115.69 79.1577C115.708 79.0286 115.754 78.9051 115.824 78.7957C115.896 78.6869 115.99 78.5945 116.1 78.5246C116.21 78.4546 116.334 78.4087 116.463 78.3899C119.699 77.9803 122.975 78.0057 126.204 78.4656C132.341 79.364 137.195 81.8046 140.626 85.7281C142.114 87.4348 143.308 89.377 144.16 91.4752C144.208 91.5954 144.231 91.7246 144.225 91.854C144.144 93.7751 144.089 97.3901 144.609 99.9715C144.691 100.434 144.876 100.873 145.15 101.254C145.49 101.645 145.904 101.966 146.369 102.196C146.833 102.426 147.339 102.562 147.856 102.596C148.084 102.637 148.287 102.763 148.425 102.949C148.562 103.136 148.623 103.367 148.594 103.597C148.566 103.827 148.45 104.037 148.272 104.184C148.093 104.331 147.865 104.404 147.634 104.387C146.872 104.332 146.129 104.121 145.452 103.766C144.775 103.411 144.179 102.921 143.7 102.326C143.27 101.733 142.981 101.05 142.856 100.329C142.314 97.6553 142.347 94.0295 142.423 91.9839C141.655 90.1379 140.595 88.4275 139.284 86.9186C132.72 79.4343 121.702 79.6941 117.74 80.0675C118.375 82.3452 118.856 84.663 119.18 87.0052C119.932 92.5684 121.074 100.973 116.474 104.393C115.813 104.88 115.071 105.247 114.282 105.475C114.195 105.495 114.106 105.501 114.017 105.491Z" fill="#222223"/>
<path d="M143.196 90.7717C136.227 90.2857 129.529 87.8746 123.85 83.8069C124.862 85.7809 126.166 87.5907 127.719 89.1752C133.385 94.9549 140.653 95.8911 143.315 96.0967C143.277 94.3109 143.234 92.5413 143.196 90.7717Z" fill="#222223"/>
<path d="M136.113 24.0896C136.146 24.1924 136.173 24.3007 136.205 24.4035L136.157 24.4305C136.14 24.3169 136.13 24.2032 136.113 24.0896Z" fill="#222223"/>
<path d="M154.534 42.8355C156.829 54.5354 157.652 62.4256 157.576 72.3614C157.636 74.1242 157.389 75.884 156.845 77.562C156.142 79.4452 154.805 81.0146 153.441 82.492C151.455 84.6451 149.362 86.6969 147.169 88.6396C146.079 89.7185 144.794 90.5799 143.381 91.1776C141.124 91.9948 138.624 91.5131 136.303 90.9016C130.213 89.297 124.367 86.8817 118.921 83.7204C116.983 82.5948 115.057 81.3393 113.715 79.5426C112.372 77.7459 111.647 75.3865 111.009 73.1461C109.385 67.2744 107.762 61.327 107.513 55.2335C107.264 49.14 108.427 42.8193 111.885 37.8081C116.518 31.076 125.063 27.4286 133.207 28.1808C141.352 28.933 151.699 33.1487 154.534 42.8517" fill="#FCCA95"/>
<path d="M140.744 92.5089C139.163 92.4629 137.593 92.2155 136.074 91.7729C129.912 90.1481 123.996 87.7018 118.486 84.4997C116.495 83.3416 114.455 82.0049 113.01 80.0892C111.473 78.0436 110.78 75.5705 110.169 73.3896C108.393 67.0526 106.922 61.3216 106.64 55.2714C106.434 50.3685 107.046 43.2684 111.159 37.2832C115.899 30.3941 124.591 26.4599 133.309 27.2662C137.899 27.6707 142.346 29.0705 146.34 31.3682C150.94 34.1065 154.079 37.9867 155.421 42.5811C155.421 42.6082 155.421 42.6298 155.421 42.6569C157.726 54.4056 158.554 62.4581 158.478 72.3668C158.54 74.237 158.272 76.1036 157.688 77.8812C156.909 79.9485 155.431 81.6694 154.106 83.1035C152.099 85.2796 149.984 87.353 147.769 89.316C146.592 90.4679 145.207 91.386 143.688 92.0218C142.743 92.3547 141.746 92.5196 140.744 92.5089ZM131.063 28.9709C127.799 28.9768 124.573 29.6663 121.592 30.9948C117.986 32.5579 114.883 35.0883 112.625 38.306C108.794 43.8799 108.226 50.5633 108.421 55.1957C108.675 61.051 110.141 66.6792 111.884 72.9025C112.425 74.9319 113.102 77.2318 114.433 79.0014C115.678 80.6628 117.545 81.875 119.374 82.9411C124.75 86.0626 130.522 88.4471 136.534 90.0303C138.753 90.6094 141.08 91.0532 143.077 90.328C144.378 89.7677 145.562 88.9673 146.567 87.9685C148.737 86.0442 150.808 84.0123 152.774 81.8804C154.046 80.5059 155.334 79.0123 156.021 77.2427C156.531 75.6717 156.759 74.0226 156.692 72.3722C156.768 62.6312 155.951 54.6599 153.678 43.0682C152.444 38.8796 149.663 35.4919 145.42 32.943C141.646 30.7642 137.439 29.4397 133.098 29.0629C132.437 29.0034 131.75 28.9709 131.063 28.9709Z" fill="#222223"/>
<path d="M134.971 62.1225C134.808 62.1235 134.648 62.0802 134.508 61.9973C134.367 61.9143 134.252 61.7949 134.175 61.6517C133.547 60.499 131.469 57.4793 129.516 57.3657C128.371 57.2742 127.223 57.4929 126.193 57.9988C125.112 58.5438 124.183 59.3468 123.487 60.3366C123.349 60.5311 123.138 60.6626 122.903 60.7022C122.668 60.7418 122.426 60.6862 122.232 60.5477C122.037 60.4092 121.906 60.1991 121.866 59.9637C121.826 59.7282 121.882 59.4867 122.02 59.2922C122.889 58.0539 124.053 57.0529 125.408 56.3807C126.725 55.731 128.193 55.4504 129.656 55.569C131.117 55.6556 132.606 56.5864 134.078 58.3289C134.723 59.0968 135.295 59.9229 135.788 60.7966C135.901 61.007 135.927 61.2538 135.859 61.483C135.791 61.7123 135.635 61.9052 135.425 62.0197C135.286 62.0948 135.129 62.1304 134.971 62.1225Z" fill="#222223"/>
<path d="M121.848 54.5842C121.65 54.5839 121.459 54.519 121.302 54.3994C121.145 54.2799 121.031 54.1122 120.978 53.922C120.925 53.7319 120.936 53.5297 121.009 53.3463C121.082 53.163 121.213 53.0085 121.382 52.9066C123.26 51.7575 125.362 51.023 127.547 50.7523C129.732 50.4817 131.949 50.6811 134.051 51.3372C134.28 51.409 134.471 51.5687 134.582 51.7814C134.693 51.994 134.715 52.242 134.643 52.471C134.572 52.6999 134.412 52.8909 134.199 53.002C133.987 53.1132 133.739 53.1353 133.51 53.0635C131.65 52.4833 129.688 52.3077 127.755 52.5485C125.822 52.7893 123.963 53.441 122.302 54.4597C122.164 54.54 122.007 54.5829 121.848 54.5842Z" fill="#222223"/>
<path d="M142.635 61.8898C142.537 61.8898 142.44 61.8734 142.348 61.8411C142.127 61.7592 141.946 61.5938 141.845 61.3804C141.744 61.167 141.73 60.9225 141.807 60.6992C142.002 60.1256 143.771 55.109 146.797 54.5083C148.13 54.2161 149.521 54.3292 150.79 54.833C152.125 55.368 153.301 56.2362 154.205 57.3548C154.348 57.5403 154.414 57.774 154.388 58.0067C154.362 58.2395 154.246 58.4531 154.066 58.6025C153.886 58.7519 153.655 58.8256 153.421 58.8078C153.187 58.7901 152.97 58.6824 152.814 58.5075C152.105 57.6258 151.183 56.9387 150.136 56.5106C149.191 56.1393 148.157 56.0564 147.165 56.2725C146.358 56.4348 145.465 57.3548 144.626 58.8268C144.189 59.6099 143.818 60.4281 143.517 61.2728C143.456 61.4571 143.338 61.6168 143.179 61.728C143.02 61.8393 142.829 61.896 142.635 61.8898Z" fill="#222223"/>
<path d="M153.121 52.7442C152.981 52.7454 152.842 52.7139 152.715 52.6522C151.156 51.8435 149.429 51.4133 147.672 51.3964C145.916 51.3795 144.181 51.7763 142.606 52.5548C142.5 52.6071 142.384 52.6378 142.265 52.6453C142.147 52.6527 142.028 52.6368 141.916 52.5983C141.804 52.5599 141.7 52.4997 141.611 52.4212C141.522 52.3427 141.449 52.2474 141.397 52.1408C141.345 52.0342 141.314 51.9184 141.306 51.7999C141.299 51.6815 141.315 51.5627 141.353 51.4504C141.392 51.338 141.452 51.2344 141.531 51.1454C141.609 51.0563 141.704 50.9836 141.811 50.9313C143.635 50.0302 145.644 49.57 147.679 49.5879C149.713 49.6058 151.714 50.1012 153.522 51.0342C153.702 51.1256 153.847 51.2752 153.933 51.4588C154.018 51.6424 154.04 51.8494 153.994 52.0466C153.947 52.2438 153.836 52.4198 153.678 52.5463C153.52 52.6728 153.324 52.7425 153.121 52.7442Z" fill="#222223"/>
<path d="M142.298 73.303H142.038C141.914 73.3058 141.791 73.2833 141.677 73.2368C141.562 73.1902 141.459 73.1207 141.372 73.0324C141.285 72.9442 141.218 72.8391 141.173 72.7237C141.129 72.6083 141.109 72.4851 141.114 72.3615C141.119 72.238 141.15 72.1169 141.204 72.0056C141.258 71.8943 141.334 71.7953 141.427 71.7146C141.521 71.634 141.63 71.5734 141.748 71.5366C141.866 71.4999 141.991 71.4877 142.114 71.5009C142.897 71.5328 143.676 71.3632 144.376 71.0085C144.825 70.7758 145.756 70.2887 145.896 69.6664C145.983 69.2767 145.669 68.8222 145.009 67.9184C144.792 67.6208 144.549 67.2853 144.289 66.901C143.307 65.4357 142.487 63.8679 141.843 62.2254C141.755 62.0022 141.76 61.7534 141.856 61.5337C141.952 61.3139 142.131 61.1413 142.354 61.0538C142.578 60.9662 142.826 60.9709 143.046 61.0668C143.266 61.1627 143.438 61.342 143.526 61.5652C144.116 63.0872 144.873 64.5392 145.783 65.8945C146.026 66.2516 146.259 66.5763 146.47 66.8632C147.282 67.978 147.926 68.8655 147.655 70.0668C147.33 71.5063 145.902 72.2315 145.209 72.6103C144.309 73.0742 143.31 73.3119 142.298 73.303Z" fill="#222223"/>
<path d="M152.133 57.3657C151.895 57.3764 151.662 57.2921 151.486 57.1313C151.31 56.9704 151.205 56.7462 151.194 56.5079C151.184 56.2697 151.268 56.0369 151.429 55.8608C151.59 55.6847 151.814 55.5798 152.052 55.569C152.742 55.5038 153.415 55.3207 154.044 55.0278C154.252 54.9623 154.478 54.9749 154.678 55.0632C154.879 55.1515 155.04 55.3096 155.133 55.508C155.225 55.7064 155.243 55.9317 155.182 56.142C155.121 56.3523 154.986 56.5333 154.801 56.6513C153.985 57.031 153.11 57.2672 152.214 57.3494L152.133 57.3657Z" fill="#222223"/>
<path d="M123.808 59.0757C122.942 59.0737 122.081 58.9517 121.248 58.7132C121.134 58.6801 121.028 58.6249 120.935 58.5507C120.842 58.4766 120.765 58.3848 120.708 58.2808C120.651 58.1768 120.614 58.0625 120.601 57.9445C120.588 57.8265 120.598 57.707 120.631 57.593C120.664 57.4789 120.72 57.3725 120.794 57.2797C120.868 57.187 120.96 57.1098 121.064 57.0525C121.274 56.9368 121.521 56.9093 121.752 56.976C122.5 57.1923 123.278 57.2891 124.057 57.2628C124.297 57.2549 124.53 57.3426 124.705 57.5065C124.88 57.6704 124.983 57.8971 124.99 58.1368C124.998 58.3765 124.911 58.6095 124.747 58.7846C124.583 58.9597 124.356 59.0624 124.117 59.0703L123.808 59.0757Z" fill="#222223"/>
<path d="M138.045 81.5287C133.565 81.5287 131.833 79.4289 131.752 79.3315C131.677 79.2391 131.621 79.133 131.588 79.0191C131.554 78.9052 131.543 78.7857 131.556 78.6676C131.581 78.4292 131.7 78.2105 131.887 78.0598C132.073 77.9091 132.312 77.8387 132.551 77.8641C132.789 77.8894 133.008 78.0085 133.159 78.1951C133.234 78.2871 134.723 79.9485 138.857 79.6995H138.884C140.919 79.6 142.837 78.7178 144.236 77.2372C144.318 77.143 144.417 77.0666 144.53 77.0128C144.642 76.959 144.764 76.929 144.888 76.9245C145.013 76.9201 145.136 76.9414 145.252 76.9871C145.368 77.0327 145.473 77.1018 145.561 77.19C145.649 77.2782 145.717 77.3835 145.762 77.4995C145.808 77.6154 145.828 77.7394 145.823 77.8637C145.818 77.9881 145.788 78.11 145.734 78.222C145.679 78.3339 145.603 78.4335 145.508 78.5144C143.79 80.3208 141.439 81.3915 138.949 81.5016C138.641 81.5178 138.338 81.5287 138.045 81.5287Z" fill="#222223"/>
<path d="M121.419 91.2697C121.673 90.853 122.22 89.749 121.359 85.858C120.071 80.0189 117.106 76.5013 116.424 74.4936C114.286 68.2107 116.272 61.2676 116.748 54.6058C120.428 53.924 123.746 51.4941 126.04 48.4636C128.8 44.827 130.332 40.4274 131.825 36.1089C131.967 40.2812 130.803 44.3938 128.497 47.8738C129.337 47.9511 130.184 47.8309 130.97 47.5227C131.755 47.2145 132.458 46.7268 133.021 46.0987C134.132 44.8267 134.967 43.3377 135.473 41.7261C136.846 37.8797 137.492 33.8113 137.378 29.7285C138.284 35.529 137.982 41.4542 136.49 47.1324C137.507 46.7536 138.655 46.97 139.737 47.062C140.819 47.154 142.048 47.062 142.762 46.2232C143.188 45.6299 143.438 44.9283 143.482 44.1993C144.2 39.1808 144.057 34.0767 143.06 29.1062C144.62 31.6792 145.927 34.3978 146.962 37.2237C147.903 40.0918 148.287 43.2035 147.562 46.1312C147.824 46.3559 148.164 46.4688 148.508 46.4456C148.852 46.4223 149.173 46.2647 149.402 46.0067C149.836 45.4656 150.078 44.7955 150.09 44.1019C150.333 41.5909 149.738 39.0853 149.148 36.6284C150.771 39.1664 151.464 42.1807 152.46 45.0272C153.456 47.8738 154.938 50.769 157.558 52.268C157.749 48.4475 157.384 44.6194 156.475 40.9036C155.788 37.8298 154.132 34.8425 152.601 32.0934C150.885 29.0088 148.58 26.027 146.107 24.1004C141.512 20.545 139.791 22.2984 137.091 23.9273L136.772 24.0842L136.739 23.8786L136.577 23.2941C129.184 22.1063 121.608 22.923 114.638 25.659C109.491 27.6884 103.36 33.4788 100.979 38.4738L100.849 38.7552C100.795 38.8634 99.0362 49.7624 96.8066 64.6985C94.9775 76.8531 98.2353 87.5356 105.465 91.5511C110.59 94.4625 119.287 94.798 121.419 91.2697Z" fill="#222223"/>
<path d="M175.476 159.965C175.353 159.965 175.231 159.94 175.118 159.891C175.004 159.843 174.902 159.772 174.816 159.684C174.652 159.509 174.564 159.277 174.571 159.037C174.578 158.798 174.68 158.571 174.854 158.406L184.292 149.493C183.247 146.636 178.675 134.081 178.074 131.635C178.027 131.406 178.071 131.168 178.195 130.971C178.32 130.774 178.516 130.632 178.743 130.576C178.969 130.52 179.209 130.554 179.411 130.671C179.613 130.788 179.762 130.978 179.827 131.202C180.466 133.789 186.132 149.255 186.191 149.407C186.252 149.573 186.262 149.753 186.222 149.925C186.182 150.097 186.092 150.254 185.964 150.376L176.093 159.694C175.932 159.863 175.71 159.96 175.476 159.965Z" fill="#222223"/>
<path d="M173.717 157.005C173.594 157.005 173.473 156.981 173.36 156.932C173.248 156.884 173.146 156.813 173.062 156.723C172.899 156.55 172.811 156.319 172.817 156.081C172.823 155.843 172.923 155.617 173.095 155.452L181.212 147.745C181.389 147.6 181.614 147.528 181.842 147.542C182.07 147.556 182.285 147.657 182.442 147.823C182.599 147.989 182.688 148.208 182.689 148.437C182.691 148.666 182.606 148.887 182.451 149.055L174.334 156.756C174.168 156.915 173.947 157.004 173.717 157.005Z" fill="#FFB206"/>
<path d="M155.529 174.89C155.529 174.89 143.136 182.223 137.226 187.077C131.317 191.931 112.728 203.512 98.9554 206.018C85.1828 208.523 85.2964 192.862 88.8951 189.485C92.4939 186.109 91.3628 184.263 99.437 181.595C107.511 178.927 135.251 171.443 140.311 168.537C145.371 165.631 155.529 174.89 155.529 174.89Z" fill="#FCCA95"/>
<path d="M98.9562 206.911C98.732 206.909 98.5166 206.824 98.3517 206.672C98.1869 206.52 98.0844 206.312 98.0641 206.089C98.0439 205.865 98.1074 205.643 98.2422 205.463C98.3771 205.284 98.5737 205.162 98.7939 205.119C112.561 202.625 131.199 190.865 136.675 186.384C141.616 182.32 150.87 176.643 154.025 174.755C150.778 172.049 144.105 167.395 140.783 169.305C137.222 171.356 123.162 175.48 111.863 178.792C106.716 180.302 102.268 181.606 99.7409 182.439C94.3293 184.236 93.3119 185.556 91.9373 187.375C91.2232 188.365 90.4188 189.287 89.5345 190.129C89.4502 190.22 89.3481 190.292 89.2346 190.342C89.1211 190.392 88.9986 190.418 88.8747 190.418C88.7508 190.418 88.6282 190.393 88.5144 190.344C88.4007 190.295 88.2982 190.223 88.2134 190.132C88.1287 190.042 88.0634 189.935 88.0216 189.819C87.9799 189.702 87.9625 189.578 87.9707 189.454C87.9789 189.331 88.0124 189.21 88.0692 189.1C88.1259 188.99 88.2048 188.893 88.3007 188.814C89.1116 188.043 89.8473 187.197 90.4978 186.287C91.9535 184.366 93.2036 182.699 99.1564 180.729C101.711 179.885 106.192 178.565 111.333 177.06C121.95 173.948 136.491 169.684 139.863 167.741C142.271 166.356 145.783 167.065 150.296 169.846C152.362 171.142 154.317 172.606 156.141 174.224C156.245 174.32 156.325 174.438 156.376 174.571C156.426 174.703 156.444 174.845 156.429 174.985C156.415 175.126 156.367 175.261 156.291 175.38C156.214 175.498 156.111 175.598 155.989 175.669C155.865 175.74 143.586 183.018 137.801 187.775C131.415 193.024 112.907 204.389 99.1186 206.895C99.0651 206.905 99.0107 206.911 98.9562 206.911Z" fill="#222223"/>
<path d="M165.797 182.201L168.411 184.945L199.257 155.04L196.254 151.452L165.797 182.201Z" fill="#FEC1B2"/>
<path d="M196.253 151.452L184.298 138.248L153.062 167.114L165.796 182.201L196.253 151.452Z" fill="#FD6542"/>
<path d="M178.223 148.828C178.074 148.672 177.958 148.488 177.882 148.287C177.801 148.087 177.762 147.874 177.768 147.659C177.774 147.446 177.822 147.236 177.909 147.042C177.995 146.839 178.12 146.655 178.277 146.501L182.401 142.664C182.709 142.383 183.113 142.231 183.53 142.24C183.948 142.249 184.345 142.418 184.641 142.713C184.938 143.025 185.101 143.44 185.095 143.871C185.09 144.085 185.042 144.297 184.955 144.493C184.87 144.697 184.745 144.881 184.587 145.034L180.469 148.866C180.161 149.149 179.755 149.303 179.337 149.295C178.918 149.287 178.519 149.118 178.223 148.822V148.828Z" fill="#222223"/>
<path d="M168.41 185.849H168.378C168.255 185.846 168.135 185.817 168.024 185.765C167.913 185.713 167.814 185.638 167.734 185.546L159.703 176.595C159.616 176.508 159.548 176.404 159.502 176.29C159.456 176.176 159.435 176.054 159.438 175.932C159.441 175.809 159.469 175.688 159.521 175.577C159.572 175.465 159.646 175.365 159.737 175.283C159.828 175.201 159.935 175.138 160.052 175.099C160.168 175.06 160.291 175.045 160.413 175.054C160.536 175.064 160.655 175.099 160.763 175.156C160.872 175.213 160.968 175.292 161.045 175.388L168.453 183.641L198.006 154.959L195.566 152.042L184.244 139.547L163.767 158.893C163.683 158.985 163.581 159.058 163.468 159.108C163.354 159.158 163.232 159.185 163.108 159.186C162.984 159.187 162.861 159.162 162.747 159.114C162.633 159.065 162.53 158.993 162.445 158.903C162.359 158.813 162.294 158.707 162.251 158.59C162.209 158.473 162.191 158.349 162.199 158.225C162.207 158.102 162.24 157.981 162.297 157.87C162.353 157.76 162.432 157.662 162.528 157.584L183.676 137.604C183.763 137.521 183.866 137.456 183.978 137.414C184.091 137.371 184.21 137.351 184.331 137.356C184.451 137.361 184.569 137.389 184.677 137.44C184.786 137.491 184.884 137.563 184.964 137.653L196.924 150.868V150.895L199.911 154.472C200.057 154.647 200.132 154.87 200.121 155.098C200.11 155.325 200.014 155.54 199.852 155.7L169.005 185.6C168.845 185.754 168.633 185.843 168.41 185.849Z" fill="#222223"/>
<path d="M176.646 176.346L170.439 171.854C171.797 172.282 173.87 173.061 176.435 174.133C180.223 175.718 182.068 172.688 182.068 172.688L174.276 166.605L167.608 166.14V166.091C169.741 166.091 172.847 166.205 174.265 166.605C177.171 167.428 178.995 170.528 180.862 171.107C182.729 171.687 184.108 169.625 184.108 169.625C184.108 169.625 179.633 165.295 175.385 160.782C175.022 160.398 171.835 160.328 169.091 160.338C169.091 160.338 174.92 159.077 177.209 159.224C179.498 159.37 183.232 160.658 185.597 160.685C186.138 160.685 187.696 159.278 187.978 157.703C188.259 156.128 177.046 153.06 172.49 153.325C167.576 153.612 153.89 160.073 147.742 163.066C144.101 164.841 140.646 166.974 137.428 169.435C139.906 171.754 142.554 173.883 145.35 175.805C150.01 178.987 151.844 179.1 155.47 178.186C160.443 176.936 161.217 176.292 162.635 176.021C164.053 175.751 166.705 175.247 171.158 177.342C175.612 179.436 176.646 176.346 176.646 176.346ZM166.266 171.475C167.286 171.412 168.309 171.441 169.324 171.562C169.573 171.611 169.898 171.703 170.282 171.822C168.968 171.506 167.615 171.389 166.266 171.475Z" fill="#FCCA95"/>
<path d="M137.919 170.258C137.736 170.257 137.559 170.201 137.409 170.097C137.259 169.993 137.144 169.847 137.079 169.676C137.014 169.506 137.002 169.32 137.045 169.143C137.087 168.965 137.183 168.805 137.318 168.683C140.378 166.132 143.749 163.979 147.351 162.276C156.253 157.946 167.834 152.719 172.439 152.448C174.826 152.313 178.625 153.022 181.385 153.736C183.133 154.185 187.338 155.36 188.48 156.68C188.635 156.836 188.751 157.027 188.819 157.237C188.886 157.446 188.904 157.669 188.869 157.887C188.528 159.781 186.705 161.615 185.622 161.615C184.027 161.508 182.447 161.245 180.903 160.831C179.684 160.515 178.443 160.287 177.191 160.149C175.026 160.014 169.349 161.231 169.295 161.231C169.177 161.263 169.054 161.27 168.933 161.252C168.812 161.235 168.696 161.193 168.592 161.13C168.487 161.066 168.397 160.982 168.326 160.882C168.255 160.783 168.205 160.67 168.179 160.55C168.153 160.431 168.152 160.307 168.175 160.187C168.198 160.067 168.245 159.953 168.313 159.852C168.382 159.751 168.47 159.665 168.573 159.598C168.676 159.532 168.791 159.487 168.911 159.467C169.155 159.413 174.864 158.184 177.305 158.331C178.639 158.464 179.961 158.698 181.26 159.029C182.653 159.396 184.074 159.643 185.509 159.765C186.231 159.281 186.769 158.568 187.035 157.741C185.752 156.523 176.801 153.953 172.531 154.207C169.171 154.407 160.507 157.833 148.13 163.856C144.682 165.509 141.45 167.581 138.508 170.025C138.348 170.173 138.137 170.256 137.919 170.258Z" fill="#222223"/>
<path d="M152.456 179.517C150.713 179.517 149.577 178.922 147.953 177.986C147.842 177.931 147.743 177.854 147.663 177.76C147.583 177.666 147.523 177.557 147.487 177.438C147.451 177.32 147.439 177.196 147.453 177.073C147.467 176.95 147.506 176.831 147.567 176.724C147.629 176.617 147.712 176.523 147.811 176.449C147.91 176.375 148.024 176.323 148.144 176.294C148.264 176.266 148.389 176.263 148.511 176.285C148.633 176.306 148.749 176.353 148.852 176.422C150.962 177.639 151.833 178.143 155.248 177.282C157.068 176.839 158.861 176.297 160.622 175.659C161.22 175.426 161.838 175.245 162.467 175.117L162.657 175.08C165.58 174.398 168.653 174.851 171.256 176.346C173.171 177.385 174.503 176.947 175.239 176.454L170.043 172.666C168.819 172.376 167.559 172.27 166.304 172.352C166.064 172.361 165.831 172.275 165.655 172.112C165.479 171.949 165.374 171.723 165.365 171.484C165.356 171.244 165.442 171.01 165.605 170.834C165.768 170.658 165.994 170.554 166.234 170.545C167.758 170.433 169.291 170.587 170.763 170.999C170.842 171.029 170.917 171.069 170.985 171.118L177.181 175.632C177.277 175.701 177.359 175.789 177.42 175.89C177.482 175.992 177.523 176.104 177.542 176.221C177.56 176.339 177.554 176.458 177.526 176.573C177.498 176.689 177.447 176.797 177.376 176.892C176.505 178.088 173.929 179.842 170.395 177.926C168.161 176.631 165.515 176.243 163.003 176.844L162.803 176.882C162.268 177.001 161.743 177.162 161.233 177.363C159.419 178.029 157.569 178.592 155.692 179.052C154.636 179.339 153.549 179.495 152.456 179.517Z" fill="#222223"/>
<path d="M181.542 172.114C181.223 172.113 180.905 172.064 180.601 171.968C179.594 171.649 178.696 170.831 177.743 169.96C176.623 168.937 175.46 167.877 174.031 167.476C172.261 166.989 167.212 166.973 165.416 167.005C165.176 167.005 164.946 166.91 164.776 166.741C164.607 166.571 164.512 166.341 164.512 166.102C164.512 165.862 164.607 165.632 164.776 165.463C164.946 165.293 165.176 165.198 165.416 165.198C165.686 165.198 172.158 165.079 174.545 165.739C176.396 166.28 177.792 167.52 178.993 168.634C179.794 169.365 180.546 170.058 181.158 170.258C181.469 170.324 181.792 170.306 182.094 170.205C182.396 170.104 182.665 169.924 182.873 169.684C181.515 168.353 178.095 164.971 174.826 161.513C173.89 161.231 169.101 161.193 165.053 161.323C164.813 161.327 164.582 161.236 164.409 161.07C164.237 160.904 164.137 160.675 164.133 160.436C164.129 160.196 164.22 159.964 164.386 159.792C164.553 159.619 164.781 159.52 165.02 159.516C165.02 159.516 167.499 159.44 169.988 159.445C175.4 159.445 175.752 159.84 176.066 160.171C180.249 164.597 184.724 168.937 184.762 168.981C184.913 169.126 185.008 169.32 185.032 169.528C185.056 169.737 185.006 169.947 184.892 170.123C184.583 170.572 184.207 170.972 183.777 171.308C183.146 171.824 182.358 172.109 181.542 172.114Z" fill="#222223"/>
<path d="M178.557 175.491C177.713 175.476 176.882 175.292 176.111 174.95C173.848 173.943 171.519 173.094 169.14 172.406C167.615 172.284 166.082 172.284 164.557 172.406C164.324 172.41 164.099 172.325 163.928 172.167C163.757 172.009 163.653 171.792 163.639 171.56C163.624 171.327 163.699 171.098 163.849 170.921C163.999 170.743 164.212 170.629 164.443 170.604C164.833 170.604 168.291 170.371 169.514 170.631C172.005 171.338 174.443 172.22 176.809 173.272C178.876 174.138 180.191 173.375 180.846 172.758L176.019 168.472C175.839 168.313 175.73 168.089 175.716 167.849C175.702 167.61 175.783 167.374 175.943 167.195C176.102 167.015 176.326 166.907 176.566 166.892C176.805 166.878 177.041 166.96 177.22 167.119L182.691 171.99C182.849 172.13 182.952 172.321 182.984 172.529C183.015 172.738 182.973 172.951 182.864 173.131C182.4 173.853 181.762 174.446 181.01 174.858C180.258 175.27 179.414 175.488 178.557 175.491Z" fill="#222223"/>
<path d="M204.239 107.358C212.147 107.358 218.558 100.947 218.558 93.0391C218.558 85.1309 212.147 78.72 204.239 78.72C196.331 78.72 189.92 85.1309 189.92 93.0391C189.92 100.947 196.331 107.358 204.239 107.358Z" fill="white"/>
<path fill-rule="evenodd" clip-rule="evenodd" d="M199.375 84.3481C199.508 83.9097 199.771 83.5221 200.13 83.2369C200.488 82.9518 200.925 82.7825 201.382 82.7517C204.295 82.7178 207.192 83.1902 209.943 84.1479C210.373 84.3244 210.74 84.6243 210.999 85.0095C211.259 85.3948 211.398 85.8483 211.399 86.3126C211.053 91.1818 210.279 96.0113 209.088 100.745C208.952 101.187 208.687 101.579 208.326 101.868C207.965 102.157 207.526 102.332 207.064 102.369C206.393 102.369 205.733 102.369 205.073 102.309C204.969 102.302 204.868 102.271 204.778 102.22C204.687 102.169 204.609 102.099 204.548 102.014C204.488 101.929 204.447 101.832 204.428 101.73C204.409 101.628 204.413 101.522 204.44 101.422C204.526 100.881 204.635 100.307 204.737 99.7496C204.756 99.6393 204.815 99.5398 204.903 99.4707C204.991 99.4016 205.102 99.3679 205.214 99.3762C205.341 99.3998 205.469 99.416 205.598 99.4249C205.677 99.432 205.757 99.4179 205.829 99.3841C205.901 99.3503 205.963 99.2979 206.008 99.2324C206.053 99.1669 206.08 99.0906 206.086 99.0113C206.092 98.932 206.076 98.8525 206.042 98.781C205.668 98.1262 205.295 97.4659 204.916 96.7895L204.11 95.3608C204.079 95.3048 204.036 95.2565 203.984 95.2196C203.932 95.1826 203.872 95.158 203.809 95.1476C203.746 95.1372 203.681 95.1412 203.62 95.1594C203.558 95.1776 203.502 95.2094 203.455 95.2526L202.4 96.2213C201.777 96.7949 201.16 97.3577 200.56 97.8989C200.503 97.9554 200.464 98.026 200.444 98.1033C200.425 98.1806 200.426 98.2617 200.449 98.3381C200.472 98.4145 200.515 98.4834 200.573 98.5375C200.632 98.5916 200.704 98.629 200.782 98.6457L200.976 98.6836L201.155 98.7214C201.263 98.7496 201.357 98.8164 201.419 98.9092C201.48 99.002 201.506 99.1143 201.49 99.2247C201.404 99.7659 201.328 100.345 201.252 100.902C201.246 101.006 201.217 101.107 201.167 101.198C201.117 101.289 201.048 101.369 200.965 101.43C200.881 101.492 200.785 101.535 200.684 101.556C200.582 101.577 200.477 101.576 200.376 101.552C199.737 101.389 199.099 101.195 198.465 101.011C198.037 100.836 197.673 100.536 197.419 100.149C197.166 99.7624 197.036 99.3079 197.048 98.8459C197.396 93.9543 198.174 89.103 199.375 84.3481ZM208.894 89.3755C208.899 89.1148 208.809 88.8611 208.642 88.661C208.475 88.461 208.241 88.3279 207.984 88.2865C207.726 88.245 207.462 88.2978 207.241 88.4353C207.019 88.5727 206.855 88.7856 206.778 89.0346L206.155 92.8011C206.15 93.0618 206.24 93.3155 206.407 93.5156C206.574 93.7157 206.808 93.8487 207.065 93.8902C207.323 93.9317 207.586 93.8788 207.808 93.7414C208.03 93.6039 208.194 93.3911 208.271 93.142L208.894 89.3755ZM204.743 88.5854C205.021 88.6333 205.27 88.788 205.435 89.0164C205.601 89.2449 205.671 89.5291 205.63 89.8085L205.181 92.6171C205.104 92.8656 204.94 93.0781 204.719 93.2155C204.498 93.3529 204.235 93.4061 203.978 93.3654C203.721 93.3246 203.487 93.1926 203.32 92.9936C203.152 92.7946 203.062 92.5418 203.065 92.2816L203.514 89.473C203.567 89.1976 203.725 88.9535 203.954 88.792C204.183 88.6305 204.466 88.5642 204.743 88.6071V88.5854ZM202.367 90.2685C202.372 90.0094 202.284 89.7572 202.118 89.5577C201.953 89.3583 201.721 89.2248 201.466 89.1815C201.21 89.1383 200.948 89.1882 200.726 89.3221C200.504 89.456 200.337 89.6651 200.257 89.9113L199.954 91.8C199.949 92.0606 200.038 92.3144 200.205 92.5145C200.372 92.7145 200.606 92.8476 200.864 92.889C201.121 92.9305 201.385 92.8777 201.606 92.7402C201.828 92.6028 201.992 92.3899 202.07 92.1409L202.367 90.2685Z" fill="#5786CC"/>
<path d="M72.9266 108.922C80.8349 108.922 87.2458 102.511 87.2458 94.6031C87.2458 86.6948 80.8349 80.2839 72.9266 80.2839C65.0183 80.2839 58.6074 86.6948 58.6074 94.6031C58.6074 102.511 65.0183 108.922 72.9266 108.922Z" fill="white"/>
<path fill-rule="evenodd" clip-rule="evenodd" d="M63.568 91.237C63.3834 90.8182 63.3296 90.3533 63.4136 89.9033C63.4976 89.4534 63.7155 89.0393 64.0388 88.7152C66.21 86.7724 68.7021 85.2214 71.404 84.1316C71.8425 83.9874 72.3135 83.9741 72.7594 84.0932C73.2054 84.2124 73.6069 84.4589 73.915 84.8026C76.842 88.7092 79.4206 92.865 81.6212 97.2223C81.8073 97.6454 81.8619 98.1147 81.7779 98.5692C81.694 99.0237 81.4753 99.4425 81.1504 99.7712C80.6471 100.21 80.133 100.632 79.6081 101.032C79.5239 101.098 79.4259 101.145 79.3212 101.168C79.2166 101.191 79.1081 101.19 79.004 101.165C78.8998 101.14 78.8027 101.091 78.7198 101.023C78.637 100.955 78.5707 100.87 78.5258 100.772C78.2281 100.291 77.9413 99.8036 77.6545 99.3166C77.5963 99.2205 77.5762 99.106 77.5982 98.9958C77.6203 98.8856 77.6828 98.7877 77.7735 98.7213C77.8872 98.6456 77.9954 98.5806 78.0874 98.5049C78.1512 98.4585 78.2017 98.3962 78.2338 98.3242C78.266 98.2521 78.2785 98.1729 78.2703 98.0945C78.2621 98.016 78.2333 97.9412 78.187 97.8774C78.1406 97.8135 78.0783 97.7631 78.0062 97.731L75.8416 96.9625L74.2993 96.4214C74.2408 96.4036 74.1792 96.3987 74.1187 96.407C74.0582 96.4153 74.0002 96.4367 73.9487 96.4696C73.8973 96.5026 73.8536 96.5463 73.8207 96.5977C73.7878 96.6492 73.7664 96.7072 73.7581 96.7677C73.704 97.2494 73.6499 97.7256 73.5958 98.191C73.4983 99.0352 73.4009 99.8632 73.2981 100.664C73.2935 100.744 73.3102 100.823 73.3465 100.894C73.3828 100.965 73.4373 101.026 73.5046 101.069C73.5718 101.112 73.6493 101.136 73.7291 101.139C73.8088 101.142 73.888 101.124 73.9583 101.086L74.1315 100.983C74.1855 100.958 74.238 100.929 74.2884 100.897C74.3881 100.847 74.5028 100.835 74.6106 100.864C74.7184 100.893 74.8117 100.96 74.8729 101.054C75.1705 101.535 75.4844 102.006 75.7983 102.482C75.8631 102.566 75.9087 102.663 75.9317 102.767C75.9547 102.87 75.9545 102.977 75.9313 103.081C75.908 103.184 75.8622 103.281 75.7971 103.365C75.732 103.449 75.6493 103.517 75.5548 103.565C74.9649 103.857 74.3588 104.106 73.7419 104.382C73.3046 104.532 72.8321 104.545 72.3873 104.419C71.9426 104.293 71.5467 104.035 71.2525 103.678C68.3317 99.7643 65.7603 95.6011 63.568 91.237ZM74.0557 88.7964C73.9032 88.5574 73.663 88.3877 73.3867 88.324C73.1105 88.2602 72.8202 88.3074 72.5784 88.4554C72.3399 88.607 72.1702 88.8459 72.1055 89.1209C72.0408 89.396 72.0862 89.6854 72.232 89.9274L74.2343 93.1744C74.4022 93.3724 74.6357 93.5035 74.8922 93.5437C75.1487 93.5839 75.4111 93.5306 75.6315 93.3935C75.852 93.2564 76.0158 93.0446 76.0931 92.7967C76.1704 92.5489 76.156 92.2815 76.0526 92.0434L74.0557 88.7964ZM70.3975 90.9232C70.64 90.7756 70.9307 90.7293 71.207 90.7941C71.4834 90.8588 71.7232 91.0296 71.8749 91.2695L73.3739 93.6831C73.4745 93.8017 73.5483 93.9406 73.5903 94.0903C73.6324 94.24 73.6417 94.3971 73.6176 94.5507C73.5935 94.7043 73.5366 94.851 73.4507 94.9806C73.3649 95.1103 73.2521 95.2199 73.12 95.3021C72.988 95.3842 72.8398 95.4369 72.6855 95.4566C72.5312 95.4763 72.3745 95.4626 72.2261 95.4163C72.0776 95.37 71.9409 95.2922 71.8252 95.1883C71.7095 95.0844 71.6175 94.9568 71.5556 94.8141L70.0511 92.3951C69.9053 92.1531 69.8599 91.8637 69.9246 91.5886C69.9893 91.3136 70.159 91.0747 70.3975 90.9232ZM69.6831 93.7426C69.5176 93.5398 69.2841 93.4039 69.0261 93.3601C68.768 93.3162 68.5027 93.3674 68.2795 93.5041C68.0563 93.6409 67.8901 93.8539 67.8119 94.1037C67.7337 94.3535 67.7486 94.6232 67.854 94.8628L68.8606 96.4863C69.027 96.6893 69.2614 96.8249 69.5204 96.8679C69.7793 96.9109 70.045 96.8583 70.2681 96.72C70.4912 96.5817 70.6563 96.367 70.7329 96.1159C70.8095 95.8649 70.7922 95.5945 70.6843 95.3553L69.6831 93.7426Z" fill="#5786CC"/>
<path d="M186.024 54.3082C193.933 54.3082 200.343 47.8972 200.343 39.989C200.343 32.0807 193.933 25.6698 186.024 25.6698C178.116 25.6698 171.705 32.0807 171.705 39.989C171.705 47.8972 178.116 54.3082 186.024 54.3082Z" fill="white"/>
<path fill-rule="evenodd" clip-rule="evenodd" d="M176.669 36.6283C176.483 36.2095 176.429 35.7445 176.513 35.2944C176.597 34.8442 176.816 34.4301 177.139 34.1064C179.311 32.1596 181.805 30.6066 184.51 29.5174C184.949 29.3724 185.421 29.3593 185.867 29.4795C186.313 29.5997 186.714 29.8481 187.021 30.1938C189.95 34.0988 192.529 38.2549 194.727 42.6135C194.914 43.036 194.968 43.5051 194.883 43.959C194.798 44.413 194.578 44.8306 194.251 45.157C193.753 45.5953 193.239 46.0175 192.714 46.4179C192.63 46.4842 192.532 46.5306 192.427 46.5535C192.323 46.5764 192.214 46.5754 192.11 46.5504C192.006 46.5254 191.909 46.4771 191.826 46.4092C191.743 46.3412 191.677 46.2554 191.632 46.1582C191.334 45.6765 191.047 45.1895 190.761 44.7024C190.702 44.6063 190.682 44.4918 190.704 44.3816C190.726 44.2714 190.789 44.1735 190.88 44.1071C190.99 44.0438 191.095 43.9714 191.193 43.8907C191.257 43.8444 191.308 43.782 191.34 43.71C191.372 43.638 191.385 43.5587 191.376 43.4803C191.368 43.4019 191.339 43.327 191.293 43.2632C191.247 43.1994 191.184 43.1489 191.112 43.1168L188.948 42.3484L187.405 41.8072C187.347 41.7894 187.285 41.7845 187.225 41.7928C187.164 41.8012 187.106 41.8225 187.055 41.8555C187.003 41.8884 186.96 41.9321 186.927 41.9836C186.894 42.035 186.872 42.093 186.864 42.1535C186.81 42.6334 186.756 43.1096 186.702 43.5822C186.604 44.421 186.507 45.249 186.404 46.0553C186.399 46.1352 186.415 46.2149 186.451 46.2863C186.488 46.3576 186.542 46.4178 186.61 46.4605C186.678 46.5032 186.756 46.5268 186.836 46.5288C186.916 46.5309 186.995 46.5112 187.064 46.472L187.238 46.3746L187.394 46.2826C187.495 46.2353 187.61 46.2257 187.717 46.2555C187.824 46.2853 187.917 46.3525 187.979 46.445C188.277 46.9212 188.59 47.3974 188.904 47.8682C188.969 47.952 189.015 48.0492 189.038 48.1526C189.061 48.2561 189.061 48.3633 189.037 48.4667C189.014 48.5701 188.968 48.6671 188.903 48.7507C188.838 48.8344 188.755 48.9026 188.661 48.9506C188.071 49.2482 187.465 49.4917 186.848 49.7731C186.411 49.9213 185.938 49.9334 185.494 49.8078C185.05 49.6822 184.654 49.4248 184.359 49.0696C181.437 45.1549 178.864 40.9919 176.669 36.6283ZM187.156 34.1876C187.093 34.0471 187 33.9218 186.885 33.82C186.769 33.7182 186.633 33.6423 186.485 33.5973C186.338 33.5523 186.183 33.5394 186.03 33.5593C185.877 33.5792 185.73 33.6315 185.599 33.7128C185.468 33.794 185.356 33.9022 185.27 34.0303C185.185 34.1583 185.127 34.3032 185.102 34.4553C185.077 34.6073 185.084 34.763 185.124 34.9119C185.164 35.0608 185.235 35.1995 185.333 35.3187L187.335 38.5386C187.397 38.6812 187.489 38.8088 187.605 38.9128C187.72 39.0167 187.857 39.0944 188.005 39.1407C188.154 39.187 188.311 39.2008 188.465 39.1811C188.619 39.1614 188.767 39.1087 188.899 39.0265C189.031 38.9444 189.144 38.8348 189.23 38.7051C189.316 38.5754 189.373 38.4288 189.397 38.2752C189.421 38.1215 189.412 37.9645 189.37 37.8148C189.328 37.6651 189.254 37.5262 189.153 37.4075L187.156 34.1876ZM183.498 36.309C183.741 36.1615 184.031 36.1151 184.308 36.1799C184.584 36.2447 184.824 36.4154 184.975 36.6553L186.475 39.0689C186.575 39.1875 186.649 39.3264 186.691 39.4761C186.733 39.6259 186.742 39.7829 186.718 39.9365C186.694 40.0902 186.637 40.2368 186.551 40.3665C186.466 40.4961 186.353 40.6058 186.221 40.6879C186.089 40.77 185.94 40.8228 185.786 40.8425C185.632 40.8622 185.475 40.8484 185.327 40.8021C185.178 40.7558 185.042 40.678 184.926 40.5741C184.81 40.4702 184.718 40.3426 184.656 40.1999L183.152 37.808C183.075 37.6871 183.024 37.5521 183 37.4111C182.976 37.27 182.98 37.1256 183.012 36.9862C183.044 36.8468 183.104 36.7152 183.187 36.599C183.271 36.4827 183.376 36.3842 183.498 36.309ZM182.784 39.1339C182.618 38.9336 182.385 38.7998 182.129 38.7569C181.872 38.714 181.609 38.7648 181.387 38.9002C181.165 39.0355 180.999 39.2463 180.92 39.4939C180.84 39.7415 180.853 40.0094 180.955 40.2487L181.961 41.8721C182.128 42.0751 182.362 42.2108 182.621 42.2538C182.88 42.2967 183.146 42.2442 183.369 42.1058C183.592 41.9675 183.757 41.7528 183.834 41.5018C183.91 41.2507 183.893 40.9804 183.785 40.7411L182.784 39.1339Z" fill="#5786CC"/>
</g>
</svg>
